<svg width="1289" height="38" viewBox="0 0 1289 38" fill="none" xmlns="http://www.w3.org/2000/svg">
<path d="M0.96 29V0.999998H11.44C17.76 0.999998 21.92 4.36 21.92 9.88V9.96C21.92 16 16.88 19.12 10.92 19.12H4.12V29H0.96ZM4.12 16.24H11.04C15.68 16.24 18.72 13.76 18.72 10.08V10C18.72 6 15.72 3.92 11.2 3.92H4.12V16.24ZM27.1588 29V8.32H30.2388V13.72C31.7588 10.28 34.7588 7.84 38.6788 7.96V11.28H38.4388C33.9188 11.28 30.2388 14.52 30.2388 20.76V29H27.1588ZM43.4497 3.8V0.399999H46.9697V3.8H43.4497ZM43.6497 29V8.32H46.7297V29H43.6497ZM60.7975 29.16L51.8375 8.32H55.2375L62.1975 25.48L69.1975 8.32H72.5175L63.5175 29.16H60.7975ZM82.4984 29.44C78.6584 29.44 74.7784 27.28 74.7784 23V22.92C74.7784 18.6 78.3784 16.24 83.6184 16.24C86.2984 16.24 88.0984 16.6 89.9784 17.12V16.4C89.9784 12.68 87.6984 10.76 83.8184 10.76C81.3784 10.76 79.4584 11.36 77.5384 12.28L76.6184 9.76C78.8984 8.68 81.0984 8.04 84.1384 8.04C87.0584 8.04 89.2984 8.8 90.8184 10.32C92.2184 11.72 92.9384 13.76 92.9384 16.36V29H89.9784V25.88C88.5384 27.76 86.1784 29.44 82.4984 29.44ZM83.0984 27C86.9384 27 90.0184 24.68 90.0184 21.4V19.4C88.4584 18.96 86.4984 18.52 83.9384 18.52C80.0584 18.52 77.8984 20.2 77.8984 22.8V22.88C77.8984 25.48 80.3384 27 83.0984 27ZM106.227 29.36C102.867 29.36 100.387 27.72 100.387 23.52V11.04H97.5072V8.32H100.387V2.08H103.467V8.32H110.027V11.04H103.467V23.12C103.467 25.68 104.867 26.56 106.947 26.56C108.027 26.56 108.867 26.36 109.947 25.84V28.48C108.867 29.08 107.707 29.36 106.227 29.36ZM123.933 29.48C118.293 29.48 113.613 25.12 113.613 18.72V18.64C113.613 12.68 117.773 7.88 123.533 7.88C129.653 7.88 133.173 12.76 133.173 18.8C133.173 19.24 133.173 19.44 133.133 19.8H116.733C117.173 24.28 120.333 26.8 124.013 26.8C126.893 26.8 128.813 25.64 130.533 23.88L132.453 25.6C130.373 27.96 127.893 29.48 123.933 29.48ZM116.733 17.52H130.053C129.733 13.8 127.613 10.48 123.453 10.48C119.813 10.48 117.173 13.52 116.733 17.52ZM159.877 29.48C153.797 29.48 149.277 24.56 149.277 18.76V18.68C149.277 12.8 153.797 7.88 159.877 7.88C163.797 7.88 166.197 9.48 168.157 11.56L166.117 13.72C164.477 12 162.677 10.6 159.837 10.6C155.637 10.6 152.437 14.12 152.437 18.6V18.68C152.437 23.16 155.717 26.72 160.037 26.72C162.717 26.72 164.717 25.4 166.357 23.64L168.317 25.48C166.237 27.84 163.757 29.48 159.877 29.48ZM180.853 29.44C175.893 29.44 172.933 26.08 172.933 21.16V8.32H176.013V20.4C176.013 24.24 178.053 26.64 181.733 26.64C185.253 26.64 187.933 24.04 187.933 20.16V8.32H190.973V29H187.933V25.4C186.533 27.64 184.413 29.44 180.853 29.44ZM204.741 29.4C201.741 29.4 198.541 28.24 196.181 26.36L197.741 24.16C199.981 25.88 202.461 26.8 204.901 26.8C207.421 26.8 209.181 25.56 209.181 23.52V23.44C209.181 21.4 206.741 20.56 204.021 19.8C200.821 18.84 197.181 17.8 197.181 13.96V13.88C197.181 10.32 200.141 7.96 204.221 7.96C206.781 7.96 209.541 8.84 211.661 10.24L210.261 12.56C208.341 11.32 206.181 10.56 204.141 10.56C201.701 10.56 200.141 11.84 200.141 13.56V13.64C200.141 15.6 202.701 16.36 205.461 17.2C208.661 18.16 212.101 19.4 212.101 23.12V23.2C212.101 27.12 208.861 29.4 204.741 29.4ZM224.352 29.36C220.992 29.36 218.512 27.72 218.512 23.52V11.04H215.632V8.32H218.512V2.08H221.592V8.32H228.152V11.04H221.592V23.12C221.592 25.68 222.992 26.56 225.072 26.56C226.152 26.56 226.992 26.36 228.072 25.84V28.48C226.992 29.08 225.832 29.36 224.352 29.36ZM242.458 29.48C236.258 29.48 231.738 24.6 231.738 18.76V18.68C231.738 12.8 236.258 7.88 242.538 7.88C248.778 7.88 253.298 12.76 253.298 18.6V18.68C253.298 24.56 248.698 29.48 242.458 29.48ZM242.538 26.72C247.018 26.72 250.138 23.08 250.138 18.76V18.68C250.138 14.24 246.818 10.6 242.458 10.6C237.978 10.6 234.898 14.24 234.898 18.6V18.68C234.898 23.12 238.178 26.72 242.538 26.72ZM258.878 29V8.32H261.958V11.8C263.358 9.72 265.158 7.88 268.638 7.88C271.998 7.88 274.158 9.64 275.278 12C276.798 9.72 278.918 7.88 282.558 7.88C287.358 7.88 290.238 11.04 290.238 16.2V29H287.158V16.92C287.158 12.92 285.158 10.68 281.798 10.68C278.718 10.68 276.078 13 276.078 17.08V29H273.038V16.84C273.038 12.96 271.038 10.68 267.718 10.68C264.438 10.68 261.958 13.4 261.958 17.2V29H258.878ZM305.847 29.48C300.207 29.48 295.527 25.12 295.527 18.72V18.64C295.527 12.68 299.687 7.88 305.447 7.88C311.567 7.88 315.087 12.76 315.087 18.8C315.087 19.24 315.087 19.44 315.047 19.8H298.647C299.087 24.28 302.247 26.8 305.927 26.8C308.807 26.8 310.727 25.64 312.447 23.88L314.367 25.6C312.287 27.96 309.807 29.48 305.847 29.48ZM298.647 17.52H311.967C311.647 13.8 309.527 10.48 305.367 10.48C301.727 10.48 299.087 13.52 298.647 17.52ZM320.479 29V8.32H323.559V13.72C325.079 10.28 328.079 7.84 331.999 7.96V11.28H331.759C327.239 11.28 323.559 14.52 323.559 20.76V29H320.479Z" fill="#BFDCED"/>
<path d="M428.76 31.48C420.68 31.48 414.72 25.12 414.72 17.08V17C414.72 9.08 420.68 2.52 428.88 2.52C433.96 2.52 437.04 4.28 439.8 6.96L437.64 9.28C435.24 7.04 432.68 5.44 428.84 5.44C422.64 5.44 418 10.48 418 16.92V17C418 23.48 422.64 28.56 428.84 28.56C432.68 28.56 435.2 27.08 437.88 24.52L439.96 26.56C437.08 29.52 433.8 31.48 428.76 31.48ZM454.177 31.48C447.977 31.48 443.457 26.6 443.457 20.76V20.68C443.457 14.8 447.977 9.88 454.257 9.88C460.497 9.88 465.017 14.76 465.017 20.6V20.68C465.017 26.56 460.417 31.48 454.177 31.48ZM454.257 28.72C458.737 28.72 461.857 25.08 461.857 20.76V20.68C461.857 16.24 458.537 12.6 454.177 12.6C449.697 12.6 446.617 16.24 446.617 20.6V20.68C446.617 25.12 449.897 28.72 454.257 28.72ZM470.596 31V10.32H473.676V15.72C475.196 12.28 478.196 9.84 482.116 9.96V13.28H481.876C477.356 13.28 473.676 16.52 473.676 22.76V31H470.596ZM486.807 37.4V10.32H489.887V14.48C491.607 12.04 493.967 9.88 497.807 9.88C502.767 9.88 507.687 13.8 507.687 20.6V20.68C507.687 27.4 502.807 31.44 497.807 31.44C493.967 31.44 491.487 29.4 489.887 27.04V37.4H486.807ZM497.247 28.68C501.247 28.68 504.527 25.72 504.527 20.72V20.64C504.527 15.72 501.207 12.64 497.247 12.64C493.407 12.64 489.767 15.92 489.767 20.6V20.68C489.767 25.48 493.407 28.68 497.247 28.68ZM522.81 31.48C516.61 31.48 512.09 26.6 512.09 20.76V20.68C512.09 14.8 516.61 9.88 522.89 9.88C529.13 9.88 533.65 14.76 533.65 20.6V20.68C533.65 26.56 529.05 31.48 522.81 31.48ZM522.89 28.72C527.37 28.72 530.49 25.08 530.49 20.76V20.68C530.49 16.24 527.17 12.6 522.81 12.6C518.33 12.6 515.25 16.24 515.25 20.6V20.68C515.25 25.12 518.53 28.72 522.89 28.72ZM539.229 31V10.32H542.309V15.72C543.829 12.28 546.829 9.84 550.749 9.96V13.28H550.509C545.989 13.28 542.309 16.52 542.309 22.76V31H539.229ZM560.584 31.44C556.744 31.44 552.864 29.28 552.864 25V24.92C552.864 20.6 556.464 18.24 561.704 18.24C564.384 18.24 566.184 18.6 568.064 19.12V18.4C568.064 14.68 565.784 12.76 561.904 12.76C559.464 12.76 557.544 13.36 555.624 14.28L554.704 11.76C556.984 10.68 559.184 10.04 562.224 10.04C565.144 10.04 567.384 10.8 568.904 12.32C570.304 13.72 571.024 15.76 571.024 18.36V31H568.064V27.88C566.624 29.76 564.264 31.44 560.584 31.44ZM561.184 29C565.024 29 568.104 26.68 568.104 23.4V21.4C566.544 20.96 564.584 20.52 562.024 20.52C558.144 20.52 555.984 22.2 555.984 24.8V24.88C555.984 27.48 558.424 29 561.184 29ZM584.313 31.36C580.953 31.36 578.473 29.72 578.473 25.52V13.04H575.593V10.32H578.473V4.08H581.553V10.32H588.113V13.04H581.553V25.12C581.553 27.68 582.953 28.56 585.033 28.56C586.113 28.56 586.953 28.36 588.033 27.84V30.48C586.953 31.08 585.793 31.36 584.313 31.36ZM602.019 31.48C596.379 31.48 591.699 27.12 591.699 20.72V20.64C591.699 14.68 595.859 9.88 601.619 9.88C607.739 9.88 611.259 14.76 611.259 20.8C611.259 21.24 611.259 21.44 611.219 21.8H594.819C595.259 26.28 598.419 28.8 602.099 28.8C604.979 28.8 606.899 27.64 608.619 25.88L610.539 27.6C608.459 29.96 605.979 31.48 602.019 31.48ZM594.819 19.52H608.139C607.819 15.8 605.699 12.48 601.539 12.48C597.899 12.48 595.259 15.52 594.819 19.52ZM637.963 31.48C631.883 31.48 627.363 26.56 627.363 20.76V20.68C627.363 14.8 631.883 9.88 637.963 9.88C641.883 9.88 644.283 11.48 646.243 13.56L644.203 15.72C642.563 14 640.763 12.6 637.923 12.6C633.723 12.6 630.523 16.12 630.523 20.6V20.68C630.523 25.16 633.803 28.72 638.123 28.72C640.803 28.72 642.803 27.4 644.443 25.64L646.403 27.48C644.323 29.84 641.843 31.48 637.963 31.48ZM658.938 31.44C653.978 31.44 651.018 28.08 651.018 23.16V10.32H654.098V22.4C654.098 26.24 656.138 28.64 659.818 28.64C663.338 28.64 666.018 26.04 666.018 22.16V10.32H669.058V31H666.018V27.4C664.618 29.64 662.498 31.44 658.938 31.44ZM682.827 31.4C679.827 31.4 676.627 30.24 674.267 28.36L675.827 26.16C678.067 27.88 680.547 28.8 682.987 28.8C685.507 28.8 687.267 27.56 687.267 25.52V25.44C687.267 23.4 684.827 22.56 682.107 21.8C678.907 20.84 675.267 19.8 675.267 15.96V15.88C675.267 12.32 678.227 9.96 682.307 9.96C684.867 9.96 687.627 10.84 689.747 12.24L688.347 14.56C686.427 13.32 684.267 12.56 682.227 12.56C679.787 12.56 678.227 13.84 678.227 15.56V15.64C678.227 17.6 680.787 18.36 683.547 19.2C686.747 20.16 690.187 21.4 690.187 25.12V25.2C690.187 29.12 686.947 31.4 682.827 31.4ZM702.438 31.36C699.078 31.36 696.598 29.72 696.598 25.52V13.04H693.718V10.32H696.598V4.08H699.678V10.32H706.238V13.04H699.678V25.12C699.678 27.68 701.078 28.56 703.158 28.56C704.238 28.56 705.078 28.36 706.158 27.84V30.48C705.078 31.08 703.918 31.36 702.438 31.36ZM720.544 31.48C714.344 31.48 709.824 26.6 709.824 20.76V20.68C709.824 14.8 714.344 9.88 720.624 9.88C726.864 9.88 731.384 14.76 731.384 20.6V20.68C731.384 26.56 726.784 31.48 720.544 31.48ZM720.624 28.72C725.104 28.72 728.224 25.08 728.224 20.76V20.68C728.224 16.24 724.904 12.6 720.544 12.6C716.064 12.6 712.984 16.24 712.984 20.6V20.68C712.984 25.12 716.264 28.72 720.624 28.72ZM736.963 31V10.32H740.043V13.8C741.443 11.72 743.243 9.88 746.723 9.88C750.083 9.88 752.243 11.64 753.363 14C754.883 11.72 757.003 9.88 760.643 9.88C765.443 9.88 768.323 13.04 768.323 18.2V31H765.243V18.92C765.243 14.92 763.243 12.68 759.883 12.68C756.803 12.68 754.163 15 754.163 19.08V31H751.123V18.84C751.123 14.96 749.123 12.68 745.803 12.68C742.523 12.68 740.043 15.4 740.043 19.2V31H736.963ZM783.933 31.48C778.293 31.48 773.613 27.12 773.613 20.72V20.64C773.613 14.68 777.773 9.88 783.533 9.88C789.653 9.88 793.173 14.76 793.173 20.8C793.173 21.24 793.173 21.44 793.133 21.8H776.733C777.173 26.28 780.333 28.8 784.013 28.8C786.893 28.8 788.813 27.64 790.533 25.88L792.453 27.6C790.373 29.96 787.893 31.48 783.933 31.48ZM776.733 19.52H790.053C789.733 15.8 787.613 12.48 783.453 12.48C779.813 12.48 777.173 15.52 776.733 19.52ZM798.565 31V10.32H801.645V15.72C803.165 12.28 806.165 9.84 810.085 9.96V13.28H809.845C805.325 13.28 801.645 16.52 801.645 22.76V31H798.565Z" fill="#BFDCED"/>
<path d="M906.76 31.48C898.68 31.48 892.72 25.12 892.72 17.08V17C892.72 9.08 898.68 2.52 906.88 2.52C911.96 2.52 915.04 4.28 917.8 6.96L915.64 9.28C913.24 7.04 910.68 5.44 906.84 5.44C900.64 5.44 896 10.48 896 16.92V17C896 23.48 900.64 28.56 906.84 28.56C910.68 28.56 913.2 27.08 915.88 24.52L917.96 26.56C915.08 29.52 911.8 31.48 906.76 31.48ZM932.177 31.48C925.977 31.48 921.457 26.6 921.457 20.76V20.68C921.457 14.8 925.977 9.88 932.257 9.88C938.497 9.88 943.017 14.76 943.017 20.6V20.68C943.017 26.56 938.417 31.48 932.177 31.48ZM932.257 28.72C936.737 28.72 939.857 25.08 939.857 20.76V20.68C939.857 16.24 936.537 12.6 932.177 12.6C927.697 12.6 924.617 16.24 924.617 20.6V20.68C924.617 25.12 927.897 28.72 932.257 28.72ZM948.596 31V10.32H951.676V15.72C953.196 12.28 956.196 9.84 960.116 9.96V13.28H959.876C955.356 13.28 951.676 16.52 951.676 22.76V31H948.596ZM964.807 37.4V10.32H967.887V14.48C969.607 12.04 971.967 9.88 975.807 9.88C980.767 9.88 985.687 13.8 985.687 20.6V20.68C985.687 27.4 980.807 31.44 975.807 31.44C971.967 31.44 969.487 29.4 967.887 27.04V37.4H964.807ZM975.247 28.68C979.247 28.68 982.527 25.72 982.527 20.72V20.64C982.527 15.72 979.207 12.64 975.247 12.64C971.407 12.64 967.767 15.92 967.767 20.6V20.68C967.767 25.48 971.407 28.68 975.247 28.68ZM1000.81 31.48C994.61 31.48 990.09 26.6 990.09 20.76V20.68C990.09 14.8 994.61 9.88 1000.89 9.88C1007.13 9.88 1011.65 14.76 1011.65 20.6V20.68C1011.65 26.56 1007.05 31.48 1000.81 31.48ZM1000.89 28.72C1005.37 28.72 1008.49 25.08 1008.49 20.76V20.68C1008.49 16.24 1005.17 12.6 1000.81 12.6C996.33 12.6 993.25 16.24 993.25 20.6V20.68C993.25 25.12 996.53 28.72 1000.89 28.72ZM1017.23 31V10.32H1020.31V15.72C1021.83 12.28 1024.83 9.84 1028.75 9.96V13.28H1028.51C1023.99 13.28 1020.31 16.52 1020.31 22.76V31H1017.23ZM1038.58 31.44C1034.74 31.44 1030.86 29.28 1030.86 25V24.92C1030.86 20.6 1034.46 18.24 1039.7 18.24C1042.38 18.24 1044.18 18.6 1046.06 19.12V18.4C1046.06 14.68 1043.78 12.76 1039.9 12.76C1037.46 12.76 1035.54 13.36 1033.62 14.28L1032.7 11.76C1034.98 10.68 1037.18 10.04 1040.22 10.04C1043.14 10.04 1045.38 10.8 1046.9 12.32C1048.3 13.72 1049.02 15.76 1049.02 18.36V31H1046.06V27.88C1044.62 29.76 1042.26 31.44 1038.58 31.44ZM1039.18 29C1043.02 29 1046.1 26.68 1046.1 23.4V21.4C1044.54 20.96 1042.58 20.52 1040.02 20.52C1036.14 20.52 1033.98 22.2 1033.98 24.8V24.88C1033.98 27.48 1036.42 29 1039.18 29ZM1062.31 31.36C1058.95 31.36 1056.47 29.72 1056.47 25.52V13.04H1053.59V10.32H1056.47V4.08H1059.55V10.32H1066.11V13.04H1059.55V25.12C1059.55 27.68 1060.95 28.56 1063.03 28.56C1064.11 28.56 1064.95 28.36 1066.03 27.84V30.48C1064.95 31.08 1063.79 31.36 1062.31 31.36ZM1080.02 31.48C1074.38 31.48 1069.7 27.12 1069.7 20.72V20.64C1069.7 14.68 1073.86 9.88 1079.62 9.88C1085.74 9.88 1089.26 14.76 1089.26 20.8C1089.26 21.24 1089.26 21.44 1089.22 21.8H1072.82C1073.26 26.28 1076.42 28.8 1080.1 28.8C1082.98 28.8 1084.9 27.64 1086.62 25.88L1088.54 27.6C1086.46 29.96 1083.98 31.48 1080.02 31.48ZM1072.82 19.52H1086.14C1085.82 15.8 1083.7 12.48 1079.54 12.48C1075.9 12.48 1073.26 15.52 1072.82 19.52ZM1115.96 31.48C1109.88 31.48 1105.36 26.56 1105.36 20.76V20.68C1105.36 14.8 1109.88 9.88 1115.96 9.88C1119.88 9.88 1122.28 11.48 1124.24 13.56L1122.2 15.72C1120.56 14 1118.76 12.6 1115.92 12.6C1111.72 12.6 1108.52 16.12 1108.52 20.6V20.68C1108.52 25.16 1111.8 28.72 1116.12 28.72C1118.8 28.72 1120.8 27.4 1122.44 25.64L1124.4 27.48C1122.32 29.84 1119.84 31.48 1115.96 31.48ZM1136.94 31.44C1131.98 31.44 1129.02 28.08 1129.02 23.16V10.32H1132.1V22.4C1132.1 26.24 1134.14 28.64 1137.82 28.64C1141.34 28.64 1144.02 26.04 1144.02 22.16V10.32H1147.06V31H1144.02V27.4C1142.62 29.64 1140.5 31.44 1136.94 31.44ZM1160.83 31.4C1157.83 31.4 1154.63 30.24 1152.27 28.36L1153.83 26.16C1156.07 27.88 1158.55 28.8 1160.99 28.8C1163.51 28.8 1165.27 27.56 1165.27 25.52V25.44C1165.27 23.4 1162.83 22.56 1160.11 21.8C1156.91 20.84 1153.27 19.8 1153.27 15.96V15.88C1153.27 12.32 1156.23 9.96 1160.31 9.96C1162.87 9.96 1165.63 10.84 1167.75 12.24L1166.35 14.56C1164.43 13.32 1162.27 12.56 1160.23 12.56C1157.79 12.56 1156.23 13.84 1156.23 15.56V15.64C1156.23 17.6 1158.79 18.36 1161.55 19.2C1164.75 20.16 1168.19 21.4 1168.19 25.12V25.2C1168.19 29.12 1164.95 31.4 1160.83 31.4ZM1180.44 31.36C1177.08 31.36 1174.6 29.72 1174.6 25.52V13.04H1171.72V10.32H1174.6V4.08H1177.68V10.32H1184.24V13.04H1177.68V25.12C1177.68 27.68 1179.08 28.56 1181.16 28.56C1182.24 28.56 1183.08 28.36 1184.16 27.84V30.48C1183.08 31.08 1181.92 31.36 1180.44 31.36ZM1198.54 31.48C1192.34 31.48 1187.82 26.6 1187.82 20.76V20.68C1187.82 14.8 1192.34 9.88 1198.62 9.88C1204.86 9.88 1209.38 14.76 1209.38 20.6V20.68C1209.38 26.56 1204.78 31.48 1198.54 31.48ZM1198.62 28.72C1203.1 28.72 1206.22 25.08 1206.22 20.76V20.68C1206.22 16.24 1202.9 12.6 1198.54 12.6C1194.06 12.6 1190.98 16.24 1190.98 20.6V20.68C1190.98 25.12 1194.26 28.72 1198.62 28.72ZM1214.96 31V10.32H1218.04V13.8C1219.44 11.72 1221.24 9.88 1224.72 9.88C1228.08 9.88 1230.24 11.64 1231.36 14C1232.88 11.72 1235 9.88 1238.64 9.88C1243.44 9.88 1246.32 13.04 1246.32 18.2V31H1243.24V18.92C1243.24 14.92 1241.24 12.68 1237.88 12.68C1234.8 12.68 1232.16 15 1232.16 19.08V31H1229.12V18.84C1229.12 14.96 1227.12 12.68 1223.8 12.68C1220.52 12.68 1218.04 15.4 1218.04 19.2V31H1214.96ZM1261.93 31.48C1256.29 31.48 1251.61 27.12 1251.61 20.72V20.64C1251.61 14.68 1255.77 9.88 1261.53 9.88C1267.65 9.88 1271.17 14.76 1271.17 20.8C1271.17 21.24 1271.17 21.44 1271.13 21.8H1254.73C1255.17 26.28 1258.33 28.8 1262.01 28.8C1264.89 28.8 1266.81 27.64 1268.53 25.88L1270.45 27.6C1268.37 29.96 1265.89 31.48 1261.93 31.48ZM1254.73 19.52H1268.05C1267.73 15.8 1265.61 12.48 1261.45 12.48C1257.81 12.48 1255.17 15.52 1254.73 19.52ZM1276.57 31V10.32H1279.65V15.72C1281.17 12.28 1284.17 9.84 1288.09 9.96V13.28H1287.85C1283.33 13.28 1279.65 16.52 1279.65 22.76V31H1276.57Z" fill="#BFDCED"/>
</svg>
