<svg width="3840" height="350" viewBox="0 0 3840 350" fill="none" xmlns="http://www.w3.org/2000/svg">
<path d="M0 0H3840V347H0V0Z" fill="#122D3D"/>
<g clip-path="url(#clip0_138_34)">
<path d="M751.423 116C749.732 116 744.705 116 738.862 123.083C738.937 123.173 739.012 123.262 739.09 123.354C740.591 121.602 742.473 119.81 744.494 118.505C746.361 117.305 748.526 116.502 750.319 116.306C751.625 116.162 755.948 116.217 760.868 116.217C760.894 116.217 760.908 116.228 760.92 116.242L760.793 116.029C760.784 116.009 760.767 116 760.746 116H751.423Z" fill="url(#paint0_radial_138_34)"/>
<path d="M717.157 116C717.139 116 717.119 116.006 717.108 116.026L698.808 147.672L693.07 157.595L692.405 158.746L692.318 158.893C692.312 158.905 692.312 158.925 692.324 158.948L709.756 189.093V188.969C709.377 188.276 709.106 187.742 708.961 187.407C708.233 185.759 707.819 183.479 707.926 181.262C708.221 175.426 711.329 169.668 712.893 166.966C716.558 160.628 723.644 148.37 723.644 148.37C723.644 148.37 730.733 136.112 734.399 129.771C735.96 127.072 739.403 121.504 744.32 118.332C746.185 117.129 748.376 116.35 750.163 116.153C751.472 116.006 755.82 116 760.746 116H717.157Z" fill="url(#paint1_radial_138_34)"/>
<path d="M692.468 159.188C692.743 159.667 693.015 160.14 693.283 160.602L692.468 159.188ZM780.156 168.02C779.09 169.469 777.32 170.972 775.343 171.983C770.13 174.647 763.585 174.84 760.463 174.84H738.952H717.443C714.321 174.84 707.767 174.647 702.563 171.983C700.583 170.972 698.814 169.469 697.747 168.02C697.071 167.099 695.336 164.149 693.283 160.602L697.657 168.17L714.119 196.637C714.127 196.652 714.147 196.663 714.165 196.663H763.741C763.756 196.663 763.776 196.649 763.785 196.635L785.386 159.283C783.004 163.402 780.917 166.989 780.156 168.02Z" fill="url(#paint2_radial_138_34)"/>
<path d="M750.163 116.153C748.376 116.35 746.185 117.129 744.32 118.332C742.262 119.66 740.464 121.406 738.952 123.187C741.053 125.661 742.597 128.198 743.505 129.771C747.171 136.112 754.262 148.37 754.262 148.37C754.262 148.37 761.348 160.628 765.016 166.966C766.575 169.668 769.685 175.426 769.974 181.262C770.084 183.479 769.665 185.759 768.945 187.407C768.439 188.559 766.43 192.06 764.097 196.095L785.585 158.94C785.585 158.94 785.588 158.934 785.588 158.928V158.905C785.588 158.899 785.582 158.89 785.582 158.89L760.793 116.029C760.784 116.009 760.767 116 760.746 116C755.82 116 751.472 116.006 750.163 116.153Z" fill="url(#paint3_radial_138_34)"/>
<path d="M193.043 137.968C180.78 137.968 171 148.047 171 160.697C171 173.919 180.612 183.066 192.465 183.066C199.25 183.066 204.506 180.639 208.51 176.067L202.584 170.006C200.132 172.618 197.047 174.046 193.043 174.046C186.096 174.046 181.407 168.236 181.407 160.481C181.407 152.974 186.198 146.987 192.899 146.987C196.417 146.987 199.406 148.301 201.861 150.667L208.004 144.318C204.405 140.401 199.094 137.968 193.043 137.968ZM234.601 137.968C221.603 137.968 211.835 148.128 211.835 160.697C211.835 173.432 221.068 183.066 234.312 183.066C247.309 183.066 257.078 172.909 257.078 160.337C257.078 147.605 247.841 137.968 234.601 137.968ZM267.63 138.689L263.366 182.272H272.4L274.423 158.749C274.831 154.177 274.857 149.441 274.857 149.441H275.074C275.074 149.441 276.08 154.206 277.387 158.533L284.759 182.272H293.359L300.731 158.316C302.038 154.154 303.044 149.441 303.044 149.441H303.188C303.188 149.441 303.287 154.157 303.694 158.893L305.646 182.272H315.258L310.994 138.689H298.346L291.697 160.264C290.636 163.78 289.529 168.274 289.529 168.274C289.529 168.274 288.364 163.786 287.216 160.192L280.494 138.689H267.63ZM328.484 138.689L324.292 182.272H333.326L335.278 158.749C335.685 154.177 335.784 149.441 335.784 149.441H335.928C335.928 149.441 337.007 154.206 338.313 158.533L345.685 182.272H354.286L361.585 158.316C362.895 154.154 363.898 149.441 363.898 149.441H364.043C364.043 149.441 364.141 154.157 364.549 158.893L366.5 182.272H376.185L371.92 138.689H359.273L352.623 160.264C351.56 163.78 350.455 168.274 350.455 168.274C350.455 168.274 349.287 163.786 348.142 160.192L341.421 138.689H328.484ZM386.592 138.689V182.272H414.996V173.902H396.132V164.377H412.105V156.224H396.132V146.987H414.706V138.689H386.592ZM426.198 138.689V182.272H435.738V166.398H438.701L448.025 182.272H459.371L448.603 164.738C454.243 162.617 457.42 158.247 457.42 152.616C457.42 143.801 452.442 138.689 439.279 138.689H426.198ZM465.37 138.689V146.987H483.005L464.937 175.057V182.272H495.364V173.902H476.862L494.93 145.833V138.689H465.37ZM505.193 138.689V182.272H521.888C529.656 182.272 538.294 178.774 538.294 169.717C538.294 164.086 534.692 160.273 528.971 159.543V159.471C533.466 158.079 536.271 154.688 536.271 149.874C536.271 140.404 527.907 138.689 520.298 138.689H505.193ZM557.013 138.689L541.474 182.272H551.014L554.05 173.397H571.034L574.07 182.272H584.332L568.794 138.689H557.013ZM590.259 138.689V182.272H599.076V161.563C599.076 157.644 598.787 153.626 598.787 153.626C598.787 153.626 600.837 157.127 603.124 160.553L617.94 182.272H626.396V138.689H617.506V158.46C617.506 162.38 617.795 166.326 617.795 166.326C617.795 166.326 615.751 162.827 613.459 159.398L599.293 138.689H590.259ZM636.875 138.689V182.272H646.343V161.852L660.292 182.272H672L655.956 158.893L670.483 138.689H659.497L646.343 158.244V138.689H636.875ZM234.456 146.843C241.976 146.843 246.815 152.8 246.815 160.553C246.815 167.899 242.137 174.191 234.456 174.191C226.934 174.191 222.097 168.236 222.097 160.481C222.097 153.135 226.772 146.843 234.456 146.843ZM435.738 146.843H439.641C444.709 146.843 447.663 148.373 447.663 152.616C447.663 156.697 444.954 158.46 439.641 158.46H435.738V146.843ZM514.661 146.843H520.154C523.177 146.843 526.225 147.796 526.225 151.389C526.224 154.896 523.617 156.296 520.587 156.296H514.661V146.843ZM562.578 147.493C562.578 147.493 563.39 150.442 564.457 153.626L568.288 165.171H556.868L560.699 153.698C561.763 150.434 562.578 147.493 562.578 147.493ZM514.661 164.305H521.671C525.918 164.305 528.682 165.639 528.682 169.068C528.682 172.416 526.493 174.119 521.671 174.119H514.661V164.305Z" fill="white"/>
</g>
<g filter="url(#filter0_d_138_34)">
<path d="M366 50.921C365.978 50.7235 365.935 50.5289 365.873 50.3405V50.147C365.77 49.9259 365.634 49.7227 365.469 49.545L352.719 36.645C352.543 36.4778 352.342 36.3399 352.124 36.2365H351.933L351.253 36H338.375C336.684 36 335.063 36.6796 333.867 37.8892C332.672 39.0988 332 40.7394 332 42.45V72.55C332 74.2607 332.672 75.9012 333.867 77.1108C335.063 78.3204 336.684 79 338.375 79H359.625C361.316 79 362.937 78.3204 364.133 77.1108C365.328 75.9012 366 74.2607 366 72.55V51.05C366 51.05 366 51.05 366 50.921ZM353.25 43.3315L358.754 48.9H353.25V43.3315ZM361.75 72.55C361.75 73.1202 361.526 73.6671 361.128 74.0703C360.729 74.4735 360.189 74.7 359.625 74.7H338.375C337.811 74.7 337.271 74.4735 336.872 74.0703C336.474 73.6671 336.25 73.1202 336.25 72.55V42.45C336.25 41.8798 336.474 41.3329 336.872 40.9297C337.271 40.5265 337.811 40.3 338.375 40.3H349V51.05C349 51.6202 349.224 52.1671 349.622 52.5703C350.021 52.9735 350.561 53.2 351.125 53.2H361.75V72.55Z" fill="#638092"/>
<path d="M188.338 70.6756C191.316 70.6783 194.244 69.9089 196.836 68.4422L204.026 75.632C204.902 76.5079 206.09 77 207.329 77C208.568 77 209.756 76.5079 210.632 75.632C211.508 74.7562 212 73.5682 212 72.3295C212 71.0908 211.508 69.9029 210.632 69.027L203.442 61.8372C205.498 58.1869 206.162 53.9154 205.311 49.8132C204.461 45.7109 202.153 42.0555 198.815 39.5235C195.477 36.9915 191.335 35.7542 187.155 36.0406C182.975 36.3269 179.04 38.1176 176.078 41.0813C173.653 43.5057 172.002 46.5947 171.333 49.9576C170.664 53.3205 171.008 56.8062 172.32 59.9739C173.632 63.1417 175.854 65.8492 178.705 67.7541C181.557 69.659 184.909 70.6757 188.338 70.6756ZM179.13 44.1324C181.26 42.0033 184.062 40.6786 187.06 40.384C190.057 40.0894 193.064 40.8432 195.568 42.5168C198.072 44.1904 199.919 46.6803 200.793 49.5624C201.666 52.4445 201.514 55.5405 200.361 58.3228C199.208 61.105 197.126 63.4016 194.47 64.821C191.813 66.2405 188.747 66.6951 185.793 66.1074C182.839 65.5197 180.18 63.9261 178.269 61.598C176.359 59.2699 175.314 56.3514 175.314 53.3398C175.309 51.6289 175.644 49.9341 176.299 48.3535C176.954 46.773 177.916 45.3382 179.13 44.1324Z" fill="#638092"/>
<path d="M412.568 69.384C405.528 69.384 401.176 64.264 401.176 57.864V57.8C401.176 51.656 405.688 46.216 412.408 46.216C416.184 46.216 418.52 47.304 420.76 49.192L419.128 51.112C417.432 49.608 415.448 48.552 412.312 48.552C407.352 48.552 403.8 52.744 403.8 57.736V57.8C403.8 63.144 407.224 67.112 412.664 67.112C415.224 67.112 417.592 66.12 419.128 64.872V59.304H412.312V57.032H421.56V65.96C419.48 67.848 416.376 69.384 412.568 69.384ZM426.846 69V52.456H429.31V56.776C430.526 54.024 432.926 52.072 436.062 52.168V54.824H435.87C432.254 54.824 429.31 57.416 429.31 62.408V69H426.846ZM446.648 69.384C441.688 69.384 438.072 65.48 438.072 60.808V60.744C438.072 56.04 441.688 52.104 446.712 52.104C451.704 52.104 455.32 56.008 455.32 60.68V60.744C455.32 65.448 451.64 69.384 446.648 69.384ZM446.712 67.176C450.296 67.176 452.792 64.264 452.792 60.808V60.744C452.792 57.192 450.136 54.28 446.648 54.28C443.064 54.28 440.6 57.192 440.6 60.68V60.744C440.6 64.296 443.224 67.176 446.712 67.176ZM465.863 69.352C461.895 69.352 459.527 66.664 459.527 62.728V52.456H461.991V62.12C461.991 65.192 463.623 67.112 466.567 67.112C469.383 67.112 471.527 65.032 471.527 61.928V52.456H473.959V69H471.527V66.12C470.407 67.912 468.711 69.352 465.863 69.352ZM479.502 74.12V52.456H481.966V55.784C483.342 53.832 485.23 52.104 488.302 52.104C492.27 52.104 496.206 55.24 496.206 60.68V60.744C496.206 66.12 492.302 69.352 488.302 69.352C485.23 69.352 483.246 67.72 481.966 65.832V74.12H479.502ZM487.854 67.144C491.054 67.144 493.678 64.776 493.678 60.776V60.712C493.678 56.776 491.022 54.312 487.854 54.312C484.782 54.312 481.87 56.936 481.87 60.68V60.744C481.87 64.584 484.782 67.144 487.854 67.144ZM511.402 73.096V43.464H513.482V73.096H511.402ZM540.283 69.384C533.819 69.384 529.051 64.296 529.051 57.864V57.8C529.051 51.464 533.819 46.216 540.379 46.216C544.443 46.216 546.907 47.624 549.115 49.768L547.387 51.624C545.467 49.832 543.419 48.552 540.347 48.552C535.387 48.552 531.675 52.584 531.675 57.736V57.8C531.675 62.984 535.387 67.048 540.347 67.048C543.419 67.048 545.435 65.864 547.579 63.816L549.243 65.448C546.939 67.816 544.315 69.384 540.283 69.384ZM560.617 69.384C555.657 69.384 552.041 65.48 552.041 60.808V60.744C552.041 56.04 555.657 52.104 560.681 52.104C565.673 52.104 569.289 56.008 569.289 60.68V60.744C569.289 65.448 565.609 69.384 560.617 69.384ZM560.681 67.176C564.265 67.176 566.76 64.264 566.76 60.808V60.744C566.76 57.192 564.105 54.28 560.617 54.28C557.033 54.28 554.569 57.192 554.569 60.68V60.744C554.569 64.296 557.193 67.176 560.681 67.176ZM573.752 69V52.456H576.216V55.336C577.336 53.544 579.032 52.104 581.88 52.104C585.848 52.104 588.216 54.792 588.216 58.728V69H585.752V59.336C585.752 56.264 584.12 54.344 581.176 54.344C578.328 54.344 576.216 56.424 576.216 59.528V69H573.752ZM599.007 69.288C596.319 69.288 594.335 67.976 594.335 64.616V54.632H592.031V52.456H594.335V47.464H596.799V52.456H602.047V54.632H596.799V64.296C596.799 66.344 597.919 67.048 599.583 67.048C600.447 67.048 601.119 66.888 601.983 66.472V68.584C601.119 69.064 600.191 69.288 599.007 69.288ZM611.336 69.352C608.264 69.352 605.16 67.624 605.16 64.2V64.136C605.16 60.68 608.04 58.792 612.232 58.792C614.376 58.792 615.816 59.08 617.32 59.496V58.92C617.32 55.944 615.496 54.408 612.392 54.408C610.44 54.408 608.904 54.888 607.368 55.624L606.632 53.608C608.456 52.744 610.216 52.232 612.648 52.232C614.984 52.232 616.776 52.84 617.992 54.056C619.112 55.176 619.688 56.808 619.688 58.888V69H617.32V66.504C616.168 68.008 614.28 69.352 611.336 69.352ZM611.816 67.4C614.888 67.4 617.352 65.544 617.352 62.92V61.32C616.104 60.968 614.536 60.616 612.488 60.616C609.384 60.616 607.656 61.96 607.656 64.04V64.104C607.656 66.184 609.608 67.4 611.816 67.4ZM632.396 69.384C627.532 69.384 623.916 65.448 623.916 60.808V60.744C623.916 56.04 627.532 52.104 632.396 52.104C635.532 52.104 637.452 53.384 639.02 55.048L637.388 56.776C636.076 55.4 634.636 54.28 632.364 54.28C629.004 54.28 626.444 57.096 626.444 60.68V60.744C626.444 64.328 629.068 67.176 632.524 67.176C634.668 67.176 636.268 66.12 637.58 64.712L639.148 66.184C637.484 68.072 635.5 69.384 632.396 69.384ZM648.757 69.288C646.069 69.288 644.085 67.976 644.085 64.616V54.632H641.781V52.456H644.085V47.464H646.549V52.456H651.797V54.632H646.549V64.296C646.549 66.344 647.669 67.048 649.333 67.048C650.197 67.048 650.869 66.888 651.733 66.472V68.584C650.869 69.064 649.941 69.288 648.757 69.288ZM666.808 73.096V43.464H668.888V73.096H666.808ZM685.033 74.12V52.456H687.497V55.784C688.873 53.832 690.761 52.104 693.833 52.104C697.801 52.104 701.737 55.24 701.737 60.68V60.744C701.737 66.12 697.833 69.352 693.833 69.352C690.761 69.352 688.777 67.72 687.497 65.832V74.12H685.033ZM693.385 67.144C696.585 67.144 699.209 64.776 699.209 60.776V60.712C699.209 56.776 696.553 54.312 693.385 54.312C690.313 54.312 687.401 56.936 687.401 60.68V60.744C687.401 64.584 690.313 67.144 693.385 67.144ZM706.283 69V45.64H708.747V55.336C709.867 53.544 711.563 52.104 714.411 52.104C718.379 52.104 720.747 54.792 720.747 58.728V69H718.283V59.336C718.283 56.264 716.651 54.344 713.707 54.344C710.859 54.344 708.747 56.424 708.747 59.528V69H706.283ZM733.554 69.384C728.594 69.384 724.978 65.48 724.978 60.808V60.744C724.978 56.04 728.594 52.104 733.618 52.104C738.61 52.104 742.226 56.008 742.226 60.68V60.744C742.226 65.448 738.546 69.384 733.554 69.384ZM733.618 67.176C737.202 67.176 739.698 64.264 739.698 60.808V60.744C739.698 57.192 737.042 54.28 733.554 54.28C729.97 54.28 727.506 57.192 727.506 60.68V60.744C727.506 64.296 730.13 67.176 733.618 67.176ZM752.226 69.288C749.538 69.288 747.554 67.976 747.554 64.616V54.632H745.25V52.456H747.554V47.464H750.018V52.456H755.266V54.632H750.018V64.296C750.018 66.344 751.138 67.048 752.802 67.048C753.666 67.048 754.338 66.888 755.202 66.472V68.584C754.338 69.064 753.41 69.288 752.226 69.288ZM766.71 69.384C761.75 69.384 758.134 65.48 758.134 60.808V60.744C758.134 56.04 761.75 52.104 766.774 52.104C771.766 52.104 775.382 56.008 775.382 60.68V60.744C775.382 65.448 771.702 69.384 766.71 69.384ZM766.774 67.176C770.358 67.176 772.854 64.264 772.854 60.808V60.744C772.854 57.192 770.198 54.28 766.71 54.28C763.126 54.28 760.662 57.192 760.662 60.68V60.744C760.662 64.296 763.286 67.176 766.774 67.176ZM786.086 69V48.936H778.534V46.6H796.166V48.936H788.614V69H786.086ZM796.092 69L806.3 46.44H808.668L818.876 69H816.156L813.532 63.08H801.34L798.684 69H796.092ZM802.332 60.808H812.54L807.452 49.384L802.332 60.808ZM823.293 69V46.6H825.661L839.773 64.552V46.6H842.237V69H840.221L825.757 50.632V69H823.293Z" fill="#638092"/>
</g>
<path d="M172.248 297L182.456 274.44H184.824L195.032 297H192.312L189.688 291.08H177.496L174.84 297H172.248ZM178.488 288.808H188.696L183.608 277.384L178.488 288.808ZM205.677 297.384C200.813 297.384 197.197 293.448 197.197 288.808V288.744C197.197 284.04 200.813 280.104 205.677 280.104C208.813 280.104 210.733 281.384 212.301 283.048L210.669 284.776C209.357 283.4 207.917 282.28 205.645 282.28C202.285 282.28 199.725 285.096 199.725 288.68V288.744C199.725 292.328 202.349 295.176 205.805 295.176C207.949 295.176 209.549 294.12 210.861 292.712L212.429 294.184C210.765 296.072 208.781 297.384 205.677 297.384ZM223.489 297.384C218.625 297.384 215.009 293.448 215.009 288.808V288.744C215.009 284.04 218.625 280.104 223.489 280.104C226.625 280.104 228.545 281.384 230.113 283.048L228.481 284.776C227.169 283.4 225.729 282.28 223.457 282.28C220.097 282.28 217.537 285.096 217.537 288.68V288.744C217.537 292.328 220.161 295.176 223.617 295.176C225.761 295.176 227.361 294.12 228.673 292.712L230.241 294.184C228.577 296.072 226.593 297.384 223.489 297.384ZM241.398 297.384C236.438 297.384 232.822 293.48 232.822 288.808V288.744C232.822 284.04 236.438 280.104 241.462 280.104C246.454 280.104 250.07 284.008 250.07 288.68V288.744C250.07 293.448 246.39 297.384 241.398 297.384ZM241.462 295.176C245.046 295.176 247.542 292.264 247.542 288.808V288.744C247.542 285.192 244.886 282.28 241.398 282.28C237.814 282.28 235.35 285.192 235.35 288.68V288.744C235.35 292.296 237.974 295.176 241.462 295.176ZM260.613 297.352C256.645 297.352 254.277 294.664 254.277 290.728V280.456H256.741V290.12C256.741 293.192 258.373 295.112 261.317 295.112C264.133 295.112 266.277 293.032 266.277 289.928V280.456H268.709V297H266.277V294.12C265.157 295.912 263.461 297.352 260.613 297.352ZM274.252 297V280.456H276.716V283.336C277.836 281.544 279.532 280.104 282.38 280.104C286.348 280.104 288.716 282.792 288.716 286.728V297H286.252V287.336C286.252 284.264 284.62 282.344 281.676 282.344C278.828 282.344 276.716 284.424 276.716 287.528V297H274.252ZM299.507 297.288C296.819 297.288 294.835 295.976 294.835 292.616V282.632H292.531V280.456H294.835V275.464H297.299V280.456H302.547V282.632H297.299V292.296C297.299 294.344 298.419 295.048 300.083 295.048C300.947 295.048 301.619 294.888 302.483 294.472V296.584C301.619 297.064 300.691 297.288 299.507 297.288ZM333.078 297.448L329.558 293.832C327.51 296.04 325.174 297.32 322.23 297.32C318.198 297.32 315.19 294.792 315.19 291.048V290.984C315.19 288.008 317.142 285.896 320.598 284.52C319.062 282.728 318.358 281.384 318.358 279.592V279.528C318.358 276.584 320.726 274.216 324.278 274.216C327.414 274.216 329.718 276.488 329.718 279.272V279.336C329.718 282.184 327.734 284.008 324.438 285.16L329.558 290.376C330.55 288.936 331.446 287.272 332.246 285.384L334.326 286.344C333.334 288.488 332.342 290.344 331.094 291.976L334.998 295.976L333.078 297.448ZM323.03 283.72C325.878 282.728 327.35 281.384 327.35 279.464V279.4C327.35 277.608 326.006 276.296 324.182 276.296C322.134 276.296 320.79 277.704 320.79 279.528V279.592C320.79 280.904 321.334 281.928 323.03 283.72ZM322.422 295.176C324.566 295.176 326.39 294.056 328.022 292.264L322.038 286.088C319.062 287.208 317.75 288.968 317.75 290.888V290.952C317.75 293.352 319.67 295.176 322.422 295.176ZM348.793 297V274.6H357.177C362.233 274.6 365.561 277.288 365.561 281.704V281.768C365.561 286.6 361.529 289.096 356.761 289.096H351.321V297H348.793ZM351.321 286.792H356.857C360.569 286.792 363.001 284.808 363.001 281.864V281.8C363.001 278.6 360.601 276.936 356.985 276.936H351.321V286.792ZM374.368 297.352C371.296 297.352 368.192 295.624 368.192 292.2V292.136C368.192 288.68 371.072 286.792 375.264 286.792C377.408 286.792 378.848 287.08 380.352 287.496V286.92C380.352 283.944 378.528 282.408 375.424 282.408C373.472 282.408 371.936 282.888 370.4 283.624L369.664 281.608C371.488 280.744 373.248 280.232 375.68 280.232C378.016 280.232 379.808 280.84 381.024 282.056C382.144 283.176 382.72 284.808 382.72 286.888V297H380.352V294.504C379.2 296.008 377.312 297.352 374.368 297.352ZM374.848 295.4C377.92 295.4 380.384 293.544 380.384 290.92V289.32C379.136 288.968 377.568 288.616 375.52 288.616C372.416 288.616 370.688 289.96 370.688 292.04V292.104C370.688 294.184 372.64 295.4 374.848 295.4ZM394.418 294.248L399.73 280.456H402.354L395.41 297.544C394.002 300.968 392.37 302.216 389.906 302.216C388.53 302.216 387.506 301.928 386.386 301.384L387.218 299.432C388.018 299.848 388.754 300.04 389.81 300.04C391.314 300.04 392.21 299.272 393.202 296.936L385.682 280.456H388.402L394.418 294.248ZM406.252 297V280.456H408.716V283.24C409.836 281.576 411.276 280.104 414.06 280.104C416.748 280.104 418.476 281.512 419.372 283.4C420.588 281.576 422.284 280.104 425.196 280.104C429.036 280.104 431.34 282.632 431.34 286.76V297H428.876V287.336C428.876 284.136 427.276 282.344 424.588 282.344C422.124 282.344 420.012 284.2 420.012 287.464V297H417.58V287.272C417.58 284.168 415.98 282.344 413.324 282.344C410.7 282.344 408.716 284.52 408.716 287.56V297H406.252ZM443.828 297.384C439.316 297.384 435.572 293.896 435.572 288.776V288.712C435.572 283.944 438.9 280.104 443.508 280.104C448.404 280.104 451.22 284.008 451.22 288.84C451.22 289.192 451.22 289.352 451.188 289.64H438.068C438.42 293.224 440.948 295.24 443.892 295.24C446.196 295.24 447.732 294.312 449.108 292.904L450.644 294.28C448.98 296.168 446.996 297.384 443.828 297.384ZM438.068 287.816H448.724C448.468 284.84 446.772 282.184 443.444 282.184C440.532 282.184 438.42 284.616 438.068 287.816ZM455.533 297V280.456H457.997V283.336C459.117 281.544 460.813 280.104 463.661 280.104C467.629 280.104 469.997 282.792 469.997 286.728V297H467.533V287.336C467.533 284.264 465.901 282.344 462.957 282.344C460.109 282.344 457.997 284.424 457.997 287.528V297H455.533ZM480.788 297.288C478.1 297.288 476.116 295.976 476.116 292.616V282.632H473.812V280.456H476.116V275.464H478.58V280.456H483.828V282.632H478.58V292.296C478.58 294.344 479.7 295.048 481.364 295.048C482.228 295.048 482.9 294.888 483.764 294.472V296.584C482.9 297.064 481.972 297.288 480.788 297.288ZM488.19 302.12V280.456H490.654V283.784C492.03 281.832 493.918 280.104 496.99 280.104C500.958 280.104 504.894 283.24 504.894 288.68V288.744C504.894 294.12 500.99 297.352 496.99 297.352C493.918 297.352 491.934 295.72 490.654 293.832V302.12H488.19ZM496.542 295.144C499.742 295.144 502.366 292.776 502.366 288.776V288.712C502.366 284.776 499.71 282.312 496.542 282.312C493.47 282.312 490.558 284.936 490.558 288.68V288.744C490.558 292.584 493.47 295.144 496.542 295.144ZM509.44 297V280.456H511.904V284.776C513.12 282.024 515.52 280.072 518.656 280.168V282.824H518.464C514.848 282.824 511.904 285.416 511.904 290.408V297H509.44ZM529.242 297.384C524.282 297.384 520.666 293.48 520.666 288.808V288.744C520.666 284.04 524.282 280.104 529.306 280.104C534.298 280.104 537.914 284.008 537.914 288.68V288.744C537.914 293.448 534.234 297.384 529.242 297.384ZM529.306 295.176C532.89 295.176 535.385 292.264 535.385 288.808V288.744C535.385 285.192 532.73 282.28 529.242 282.28C525.658 282.28 523.194 285.192 523.194 288.68V288.744C523.194 292.296 525.818 295.176 529.306 295.176ZM549.833 297.384C544.969 297.384 541.353 293.448 541.353 288.808V288.744C541.353 284.04 544.969 280.104 549.833 280.104C552.969 280.104 554.889 281.384 556.457 283.048L554.825 284.776C553.513 283.4 552.073 282.28 549.801 282.28C546.441 282.28 543.881 285.096 543.881 288.68V288.744C543.881 292.328 546.505 295.176 549.961 295.176C552.105 295.176 553.705 294.12 555.017 292.712L556.585 294.184C554.921 296.072 552.937 297.384 549.833 297.384ZM567.422 297.384C562.91 297.384 559.166 293.896 559.166 288.776V288.712C559.166 283.944 562.494 280.104 567.102 280.104C571.998 280.104 574.814 284.008 574.814 288.84C574.814 289.192 574.814 289.352 574.782 289.64H561.661C562.014 293.224 564.542 295.24 567.486 295.24C569.79 295.24 571.326 294.312 572.702 292.904L574.238 294.28C572.574 296.168 570.59 297.384 567.422 297.384ZM561.661 287.816H572.318C572.062 284.84 570.366 282.184 567.038 282.184C564.126 282.184 562.014 284.616 561.661 287.816ZM584.599 297.32C582.199 297.32 579.639 296.392 577.751 294.888L578.999 293.128C580.791 294.504 582.775 295.24 584.727 295.24C586.743 295.24 588.151 294.248 588.151 292.616V292.552C588.151 290.92 586.199 290.248 584.023 289.64C581.463 288.872 578.551 288.04 578.551 284.968V284.904C578.551 282.056 580.919 280.168 584.183 280.168C586.231 280.168 588.439 280.872 590.135 281.992L589.015 283.848C587.479 282.856 585.751 282.248 584.119 282.248C582.167 282.248 580.919 283.272 580.919 284.648V284.712C580.919 286.28 582.967 286.888 585.175 287.56C587.735 288.328 590.487 289.32 590.487 292.296V292.36C590.487 295.496 587.895 297.32 584.599 297.32ZM600.224 297.32C597.824 297.32 595.264 296.392 593.376 294.888L594.624 293.128C596.416 294.504 598.4 295.24 600.352 295.24C602.368 295.24 603.776 294.248 603.776 292.616V292.552C603.776 290.92 601.824 290.248 599.648 289.64C597.088 288.872 594.176 288.04 594.176 284.968V284.904C594.176 282.056 596.544 280.168 599.808 280.168C601.856 280.168 604.064 280.872 605.76 281.992L604.64 283.848C603.104 282.856 601.376 282.248 599.744 282.248C597.792 282.248 596.544 283.272 596.544 284.648V284.712C596.544 286.28 598.592 286.888 600.8 287.56C603.36 288.328 606.112 289.32 606.112 292.296V292.36C606.112 295.496 603.52 297.32 600.224 297.32ZM610.754 276.84V274.12H613.57V276.84H610.754ZM610.914 297V280.456H613.378V297H610.914ZM619.096 297V280.456H621.56V283.336C622.68 281.544 624.376 280.104 627.224 280.104C631.192 280.104 633.56 282.792 633.56 286.728V297H631.096V287.336C631.096 284.264 629.464 282.344 626.52 282.344C623.672 282.344 621.56 284.424 621.56 287.528V297H619.096ZM646.143 302.184C643.359 302.184 640.831 301.416 638.623 299.88L639.743 297.96C641.663 299.336 643.711 300.072 646.111 300.072C649.791 300.072 652.127 298.056 652.127 294.184V292.232C650.687 294.152 648.671 295.72 645.631 295.72C641.663 295.72 637.855 292.712 637.855 287.976V287.912C637.855 283.08 641.663 280.104 645.631 280.104C648.735 280.104 650.719 281.64 652.095 283.432V280.456H654.559V294.12C654.559 296.68 653.823 298.6 652.447 299.976C650.943 301.48 648.799 302.184 646.143 302.184ZM646.111 293.544C649.247 293.544 652.191 291.272 652.191 287.944V287.88C652.191 284.488 649.247 282.28 646.111 282.28C642.943 282.28 640.383 284.456 640.383 287.848V287.912C640.383 291.24 643.039 293.544 646.111 293.544Z" fill="#BFDCED"/>
<path d="M739.168 297V274.6H755.264V276.936H741.696V284.936H753.824V287.24H741.696V297H739.168ZM759.816 276.84V274.12H762.632V276.84H759.816ZM759.976 297V280.456H762.44V297H759.976ZM768.158 297V280.456H770.622V283.336C771.742 281.544 773.438 280.104 776.286 280.104C780.254 280.104 782.622 282.792 782.622 286.728V297H780.158V287.336C780.158 284.264 778.526 282.344 775.582 282.344C772.734 282.344 770.622 284.424 770.622 287.528V297H768.158ZM792.805 297.352C789.733 297.352 786.629 295.624 786.629 292.2V292.136C786.629 288.68 789.509 286.792 793.701 286.792C795.845 286.792 797.285 287.08 798.789 287.496V286.92C798.789 283.944 796.965 282.408 793.861 282.408C791.909 282.408 790.373 282.888 788.837 283.624L788.101 281.608C789.925 280.744 791.685 280.232 794.117 280.232C796.453 280.232 798.245 280.84 799.461 282.056C800.581 283.176 801.157 284.808 801.157 286.888V297H798.789V294.504C797.637 296.008 795.749 297.352 792.805 297.352ZM793.285 295.4C796.357 295.4 798.821 293.544 798.821 290.92V289.32C797.573 288.968 796.005 288.616 793.957 288.616C790.853 288.616 789.125 289.96 789.125 292.04V292.104C789.125 294.184 791.077 295.4 793.285 295.4ZM806.408 297V280.456H808.872V283.336C809.992 281.544 811.688 280.104 814.536 280.104C818.504 280.104 820.872 282.792 820.872 286.728V297H818.408V287.336C818.408 284.264 816.776 282.344 813.832 282.344C810.984 282.344 808.872 284.424 808.872 287.528V297H806.408ZM833.583 297.384C828.719 297.384 825.103 293.448 825.103 288.808V288.744C825.103 284.04 828.719 280.104 833.583 280.104C836.719 280.104 838.639 281.384 840.207 283.048L838.575 284.776C837.263 283.4 835.823 282.28 833.551 282.28C830.191 282.28 827.631 285.096 827.631 288.68V288.744C827.631 292.328 830.255 295.176 833.711 295.176C835.855 295.176 837.455 294.12 838.767 292.712L840.335 294.184C838.671 296.072 836.687 297.384 833.583 297.384ZM844.472 276.84V274.12H847.288V276.84H844.472ZM844.632 297V280.456H847.096V297H844.632ZM852.815 297V280.456H855.279V283.336C856.399 281.544 858.095 280.104 860.943 280.104C864.911 280.104 867.279 282.792 867.279 286.728V297H864.815V287.336C864.815 284.264 863.183 282.344 860.239 282.344C857.391 282.344 855.279 284.424 855.279 287.528V297H852.815ZM879.861 302.184C877.077 302.184 874.549 301.416 872.341 299.88L873.461 297.96C875.381 299.336 877.429 300.072 879.829 300.072C883.509 300.072 885.845 298.056 885.845 294.184V292.232C884.405 294.152 882.389 295.72 879.349 295.72C875.381 295.72 871.573 292.712 871.573 287.976V287.912C871.573 283.08 875.381 280.104 879.349 280.104C882.453 280.104 884.437 281.64 885.813 283.432V280.456H888.277V294.12C888.277 296.68 887.541 298.6 886.165 299.976C884.661 301.48 882.517 302.184 879.861 302.184ZM879.829 293.544C882.965 293.544 885.909 291.272 885.909 287.944V287.88C885.909 284.488 882.965 282.28 879.829 282.28C876.661 282.28 874.101 284.456 874.101 287.848V287.912C874.101 291.24 876.757 293.544 879.829 293.544ZM919.953 297.448L916.433 293.832C914.385 296.04 912.049 297.32 909.105 297.32C905.073 297.32 902.065 294.792 902.065 291.048V290.984C902.065 288.008 904.017 285.896 907.473 284.52C905.937 282.728 905.233 281.384 905.233 279.592V279.528C905.233 276.584 907.601 274.216 911.153 274.216C914.289 274.216 916.593 276.488 916.593 279.272V279.336C916.593 282.184 914.609 284.008 911.313 285.16L916.433 290.376C917.425 288.936 918.321 287.272 919.121 285.384L921.201 286.344C920.209 288.488 919.217 290.344 917.969 291.976L921.873 295.976L919.953 297.448ZM909.905 283.72C912.753 282.728 914.225 281.384 914.225 279.464V279.4C914.225 277.608 912.881 276.296 911.057 276.296C909.009 276.296 907.665 277.704 907.665 279.528V279.592C907.665 280.904 908.209 281.928 909.905 283.72ZM909.297 295.176C911.441 295.176 913.265 294.056 914.897 292.264L908.913 286.088C905.937 287.208 904.625 288.968 904.625 290.888V290.952C904.625 293.352 906.545 295.176 909.297 295.176ZM936.18 297V282.632H933.908V280.488H936.18V279.048C936.18 277.16 936.66 275.752 937.62 274.792C938.484 273.928 939.668 273.512 941.172 273.512C942.324 273.512 943.092 273.64 943.892 273.928V276.072C942.996 275.816 942.356 275.656 941.492 275.656C939.572 275.656 938.612 276.84 938.612 279.176V280.52H943.86V282.632H938.644V297H936.18ZM954.242 297.384C949.282 297.384 945.666 293.48 945.666 288.808V288.744C945.666 284.04 949.282 280.104 954.306 280.104C959.298 280.104 962.914 284.008 962.914 288.68V288.744C962.914 293.448 959.234 297.384 954.242 297.384ZM954.306 295.176C957.89 295.176 960.385 292.264 960.385 288.808V288.744C960.385 285.192 957.73 282.28 954.242 282.28C950.658 282.28 948.194 285.192 948.194 288.68V288.744C948.194 292.296 950.818 295.176 954.306 295.176ZM967.377 297V280.456H969.841V284.776C971.057 282.024 973.457 280.072 976.593 280.168V282.824H976.401C972.785 282.824 969.841 285.416 969.841 290.408V297H967.377ZM986.859 297.384C982.347 297.384 978.603 293.896 978.603 288.776V288.712C978.603 283.944 981.931 280.104 986.539 280.104C991.435 280.104 994.251 284.008 994.251 288.84C994.251 289.192 994.251 289.352 994.219 289.64H981.099C981.451 293.224 983.979 295.24 986.923 295.24C989.227 295.24 990.763 294.312 992.139 292.904L993.675 294.28C992.011 296.168 990.027 297.384 986.859 297.384ZM981.099 287.816H991.755C991.499 284.84 989.803 282.184 986.475 282.184C983.563 282.184 981.451 284.616 981.099 287.816ZM998.629 276.84V274.12H1001.44V276.84H998.629ZM998.789 297V280.456H1001.25V297H998.789ZM1014.3 302.184C1011.51 302.184 1008.99 301.416 1006.78 299.88L1007.9 297.96C1009.82 299.336 1011.87 300.072 1014.27 300.072C1017.95 300.072 1020.28 298.056 1020.28 294.184V292.232C1018.84 294.152 1016.83 295.72 1013.79 295.72C1009.82 295.72 1006.01 292.712 1006.01 287.976V287.912C1006.01 283.08 1009.82 280.104 1013.79 280.104C1016.89 280.104 1018.87 281.64 1020.25 283.432V280.456H1022.71V294.12C1022.71 296.68 1021.98 298.6 1020.6 299.976C1019.1 301.48 1016.95 302.184 1014.3 302.184ZM1014.27 293.544C1017.4 293.544 1020.35 291.272 1020.35 287.944V287.88C1020.35 284.488 1017.4 282.28 1014.27 282.28C1011.1 282.28 1008.54 284.456 1008.54 287.848V287.912C1008.54 291.24 1011.19 293.544 1014.27 293.544ZM1028.22 297V280.456H1030.68V283.336C1031.8 281.544 1033.5 280.104 1036.35 280.104C1040.32 280.104 1042.68 282.792 1042.68 286.728V297H1040.22V287.336C1040.22 284.264 1038.59 282.344 1035.64 282.344C1032.8 282.344 1030.68 284.424 1030.68 287.528V297H1028.22ZM1063.07 297.288C1060.38 297.288 1058.4 295.976 1058.4 292.616V282.632H1056.09V280.456H1058.4V275.464H1060.86V280.456H1066.11V282.632H1060.86V292.296C1060.86 294.344 1061.98 295.048 1063.65 295.048C1064.51 295.048 1065.18 294.888 1066.05 294.472V296.584C1065.18 297.064 1064.25 297.288 1063.07 297.288ZM1070.47 297V280.456H1072.93V284.776C1074.15 282.024 1076.55 280.072 1079.69 280.168V282.824H1079.49C1075.88 282.824 1072.93 285.416 1072.93 290.408V297H1070.47ZM1087.56 297.352C1084.48 297.352 1081.38 295.624 1081.38 292.2V292.136C1081.38 288.68 1084.26 286.792 1088.45 286.792C1090.6 286.792 1092.04 287.08 1093.54 287.496V286.92C1093.54 283.944 1091.72 282.408 1088.61 282.408C1086.66 282.408 1085.12 282.888 1083.59 283.624L1082.85 281.608C1084.68 280.744 1086.44 280.232 1088.87 280.232C1091.2 280.232 1093 280.84 1094.21 282.056C1095.33 283.176 1095.91 284.808 1095.91 286.888V297H1093.54V294.504C1092.39 296.008 1090.5 297.352 1087.56 297.352ZM1088.04 295.4C1091.11 295.4 1093.57 293.544 1093.57 290.92V289.32C1092.32 288.968 1090.76 288.616 1088.71 288.616C1085.6 288.616 1083.88 289.96 1083.88 292.04V292.104C1083.88 294.184 1085.83 295.4 1088.04 295.4ZM1108.1 297.352C1104.13 297.352 1100.2 294.216 1100.2 288.776V288.712C1100.2 283.336 1104.13 280.104 1108.1 280.104C1111.17 280.104 1113.16 281.736 1114.44 283.624V273.64H1116.9V297H1114.44V293.672C1113.06 295.656 1111.17 297.352 1108.1 297.352ZM1108.55 295.144C1111.62 295.144 1114.53 292.552 1114.53 288.744V288.68C1114.53 284.872 1111.62 282.312 1108.55 282.312C1105.35 282.312 1102.73 284.68 1102.73 288.68V288.744C1102.73 292.68 1105.38 295.144 1108.55 295.144ZM1129.64 297.384C1125.13 297.384 1121.38 293.896 1121.38 288.776V288.712C1121.38 283.944 1124.71 280.104 1129.32 280.104C1134.22 280.104 1137.03 284.008 1137.03 288.84C1137.03 289.192 1137.03 289.352 1137 289.64H1123.88C1124.23 293.224 1126.76 295.24 1129.7 295.24C1132.01 295.24 1133.54 294.312 1134.92 292.904L1136.46 294.28C1134.79 296.168 1132.81 297.384 1129.64 297.384ZM1123.88 287.816H1134.54C1134.28 284.84 1132.58 282.184 1129.26 282.184C1126.34 282.184 1124.23 284.616 1123.88 287.816ZM1146.82 297.32C1144.42 297.32 1141.86 296.392 1139.97 294.888L1141.22 293.128C1143.01 294.504 1144.99 295.24 1146.95 295.24C1148.96 295.24 1150.37 294.248 1150.37 292.616V292.552C1150.37 290.92 1148.42 290.248 1146.24 289.64C1143.68 288.872 1140.77 288.04 1140.77 284.968V284.904C1140.77 282.056 1143.14 280.168 1146.4 280.168C1148.45 280.168 1150.66 280.872 1152.35 281.992L1151.23 283.848C1149.7 282.856 1147.97 282.248 1146.34 282.248C1144.39 282.248 1143.14 283.272 1143.14 284.648V284.712C1143.14 286.28 1145.19 286.888 1147.39 287.56C1149.95 288.328 1152.71 289.32 1152.71 292.296V292.36C1152.71 295.496 1150.11 297.32 1146.82 297.32Z" fill="#BFDCED"/>
<path d="M1236.17 297V274.6H1245.8C1248.58 274.6 1250.76 275.432 1252.17 276.84C1253.29 277.96 1253.9 279.464 1253.9 281.256V281.32C1253.9 285.032 1251.34 287.24 1247.82 287.848L1254.7 297H1251.59L1245.1 288.296H1238.7V297H1236.17ZM1238.7 286.024H1245.58C1248.9 286.024 1251.34 284.296 1251.34 281.416V281.352C1251.34 278.568 1249.22 276.936 1245.61 276.936H1238.7V286.024ZM1258.94 276.84V274.12H1261.76V276.84H1258.94ZM1259.1 297V280.456H1261.57V297H1259.1ZM1272.76 297.32C1270.36 297.32 1267.8 296.392 1265.91 294.888L1267.16 293.128C1268.95 294.504 1270.93 295.24 1272.88 295.24C1274.9 295.24 1276.31 294.248 1276.31 292.616V292.552C1276.31 290.92 1274.36 290.248 1272.18 289.64C1269.62 288.872 1266.71 288.04 1266.71 284.968V284.904C1266.71 282.056 1269.08 280.168 1272.34 280.168C1274.39 280.168 1276.6 280.872 1278.29 281.992L1277.17 283.848C1275.64 282.856 1273.91 282.248 1272.28 282.248C1270.32 282.248 1269.08 283.272 1269.08 284.648V284.712C1269.08 286.28 1271.12 286.888 1273.33 287.56C1275.89 288.328 1278.64 289.32 1278.64 292.296V292.36C1278.64 295.496 1276.05 297.32 1272.76 297.32ZM1283.22 297V273.64H1285.68V289.768L1294.61 280.456H1297.68L1290.74 287.56L1297.91 297H1294.96L1289.04 289.288L1285.68 292.68V297H1283.22ZM1311.03 297V280.456H1313.5V283.24C1314.62 281.576 1316.06 280.104 1318.84 280.104C1321.53 280.104 1323.26 281.512 1324.15 283.4C1325.37 281.576 1327.07 280.104 1329.98 280.104C1333.82 280.104 1336.12 282.632 1336.12 286.76V297H1333.66V287.336C1333.66 284.136 1332.06 282.344 1329.37 282.344C1326.91 282.344 1324.79 284.2 1324.79 287.464V297H1322.36V287.272C1322.36 284.168 1320.76 282.344 1318.11 282.344C1315.48 282.344 1313.5 284.52 1313.5 287.56V297H1311.03ZM1346.31 297.352C1343.23 297.352 1340.13 295.624 1340.13 292.2V292.136C1340.13 288.68 1343.01 286.792 1347.2 286.792C1349.35 286.792 1350.79 287.08 1352.29 287.496V286.92C1352.29 283.944 1350.47 282.408 1347.36 282.408C1345.41 282.408 1343.87 282.888 1342.34 283.624L1341.6 281.608C1343.43 280.744 1345.19 280.232 1347.62 280.232C1349.95 280.232 1351.75 280.84 1352.96 282.056C1354.08 283.176 1354.66 284.808 1354.66 286.888V297H1352.29V294.504C1351.14 296.008 1349.25 297.352 1346.31 297.352ZM1346.79 295.4C1349.86 295.4 1352.32 293.544 1352.32 290.92V289.32C1351.07 288.968 1349.51 288.616 1347.46 288.616C1344.35 288.616 1342.62 289.96 1342.62 292.04V292.104C1342.62 294.184 1344.58 295.4 1346.79 295.4ZM1359.91 297V280.456H1362.37V283.336C1363.49 281.544 1365.19 280.104 1368.04 280.104C1372 280.104 1374.37 282.792 1374.37 286.728V297H1371.91V287.336C1371.91 284.264 1370.28 282.344 1367.33 282.344C1364.48 282.344 1362.37 284.424 1362.37 287.528V297H1359.91ZM1384.56 297.352C1381.48 297.352 1378.38 295.624 1378.38 292.2V292.136C1378.38 288.68 1381.26 286.792 1385.45 286.792C1387.6 286.792 1389.04 287.08 1390.54 287.496V286.92C1390.54 283.944 1388.72 282.408 1385.61 282.408C1383.66 282.408 1382.12 282.888 1380.59 283.624L1379.85 281.608C1381.68 280.744 1383.44 280.232 1385.87 280.232C1388.2 280.232 1390 280.84 1391.21 282.056C1392.33 283.176 1392.91 284.808 1392.91 286.888V297H1390.54V294.504C1389.39 296.008 1387.5 297.352 1384.56 297.352ZM1385.04 295.4C1388.11 295.4 1390.57 293.544 1390.57 290.92V289.32C1389.32 288.968 1387.76 288.616 1385.71 288.616C1382.6 288.616 1380.88 289.96 1380.88 292.04V292.104C1380.88 294.184 1382.83 295.4 1385.04 295.4ZM1405.49 302.184C1402.7 302.184 1400.17 301.416 1397.97 299.88L1399.09 297.96C1401.01 299.336 1403.05 300.072 1405.45 300.072C1409.13 300.072 1411.47 298.056 1411.47 294.184V292.232C1410.03 294.152 1408.01 295.72 1404.97 295.72C1401.01 295.72 1397.2 292.712 1397.2 287.976V287.912C1397.2 283.08 1401.01 280.104 1404.97 280.104C1408.08 280.104 1410.06 281.64 1411.44 283.432V280.456H1413.9V294.12C1413.9 296.68 1413.17 298.6 1411.79 299.976C1410.29 301.48 1408.14 302.184 1405.49 302.184ZM1405.45 293.544C1408.59 293.544 1411.53 291.272 1411.53 287.944V287.88C1411.53 284.488 1408.59 282.28 1405.45 282.28C1402.29 282.28 1399.73 284.456 1399.73 287.848V287.912C1399.73 291.24 1402.38 293.544 1405.45 293.544ZM1426.64 297.384C1422.13 297.384 1418.38 293.896 1418.38 288.776V288.712C1418.38 283.944 1421.71 280.104 1426.32 280.104C1431.22 280.104 1434.03 284.008 1434.03 288.84C1434.03 289.192 1434.03 289.352 1434 289.64H1420.88C1421.23 293.224 1423.76 295.24 1426.7 295.24C1429.01 295.24 1430.54 294.312 1431.92 292.904L1433.46 294.28C1431.79 296.168 1429.81 297.384 1426.64 297.384ZM1420.88 287.816H1431.54C1431.28 284.84 1429.58 282.184 1426.26 282.184C1423.34 282.184 1421.23 284.616 1420.88 287.816ZM1438.35 297V280.456H1440.81V283.24C1441.93 281.576 1443.37 280.104 1446.15 280.104C1448.84 280.104 1450.57 281.512 1451.47 283.4C1452.68 281.576 1454.38 280.104 1457.29 280.104C1461.13 280.104 1463.43 282.632 1463.43 286.76V297H1460.97V287.336C1460.97 284.136 1459.37 282.344 1456.68 282.344C1454.22 282.344 1452.11 284.2 1452.11 287.464V297H1449.67V287.272C1449.67 284.168 1448.07 282.344 1445.42 282.344C1442.79 282.344 1440.81 284.52 1440.81 287.56V297H1438.35ZM1475.92 297.384C1471.41 297.384 1467.67 293.896 1467.67 288.776V288.712C1467.67 283.944 1470.99 280.104 1475.6 280.104C1480.5 280.104 1483.31 284.008 1483.31 288.84C1483.31 289.192 1483.31 289.352 1483.28 289.64H1470.16C1470.51 293.224 1473.04 295.24 1475.99 295.24C1478.29 295.24 1479.83 294.312 1481.2 292.904L1482.74 294.28C1481.07 296.168 1479.09 297.384 1475.92 297.384ZM1470.16 287.816H1480.82C1480.56 284.84 1478.87 282.184 1475.54 282.184C1472.63 282.184 1470.51 284.616 1470.16 287.816ZM1487.63 297V280.456H1490.09V283.336C1491.21 281.544 1492.91 280.104 1495.76 280.104C1499.72 280.104 1502.09 282.792 1502.09 286.728V297H1499.63V287.336C1499.63 284.264 1498 282.344 1495.05 282.344C1492.2 282.344 1490.09 284.424 1490.09 287.528V297H1487.63ZM1512.88 297.288C1510.19 297.288 1508.21 295.976 1508.21 292.616V282.632H1505.91V280.456H1508.21V275.464H1510.67V280.456H1515.92V282.632H1510.67V292.296C1510.67 294.344 1511.79 295.048 1513.46 295.048C1514.32 295.048 1514.99 294.888 1515.86 294.472V296.584C1514.99 297.064 1514.07 297.288 1512.88 297.288Z" fill="#BFDCED"/>
<path d="M1606.85 297.32C1603.26 297.32 1600.38 296.168 1597.7 293.736L1599.26 291.88C1601.6 294.024 1603.84 295.048 1606.94 295.048C1609.98 295.048 1611.94 293.448 1611.94 291.24V291.176C1611.94 289.096 1610.82 287.944 1606.11 286.92C1600.96 285.8 1598.59 284.136 1598.59 280.456V280.392C1598.59 276.904 1601.7 274.28 1605.95 274.28C1609.25 274.28 1611.52 275.208 1613.82 277.032L1612.35 278.984C1610.27 277.288 1608.19 276.552 1605.89 276.552C1602.94 276.552 1601.12 278.12 1601.12 280.168V280.232C1601.12 282.344 1602.24 283.56 1607.2 284.584C1612.19 285.704 1614.5 287.496 1614.5 290.92V290.984C1614.5 294.824 1611.3 297.32 1606.85 297.32ZM1626.45 297.384C1621.94 297.384 1618.2 293.896 1618.2 288.776V288.712C1618.2 283.944 1621.52 280.104 1626.13 280.104C1631.03 280.104 1633.84 284.008 1633.84 288.84C1633.84 289.192 1633.84 289.352 1633.81 289.64H1620.69C1621.04 293.224 1623.57 295.24 1626.52 295.24C1628.82 295.24 1630.36 294.312 1631.73 292.904L1633.27 294.28C1631.6 296.168 1629.62 297.384 1626.45 297.384ZM1620.69 287.816H1631.35C1631.09 284.84 1629.4 282.184 1626.07 282.184C1623.16 282.184 1621.04 284.616 1620.69 287.816ZM1638.16 297V280.456H1640.62V284.776C1641.84 282.024 1644.24 280.072 1647.37 280.168V282.824H1647.18C1643.57 282.824 1640.62 285.416 1640.62 290.408V297H1638.16ZM1656.66 297.128L1649.5 280.456H1652.22L1657.78 294.184L1663.38 280.456H1666.04L1658.84 297.128H1656.66ZM1669.97 276.84V274.12H1672.79V276.84H1669.97ZM1670.13 297V280.456H1672.6V297H1670.13ZM1685.77 297.384C1680.91 297.384 1677.29 293.448 1677.29 288.808V288.744C1677.29 284.04 1680.91 280.104 1685.77 280.104C1688.91 280.104 1690.83 281.384 1692.39 283.048L1690.76 284.776C1689.45 283.4 1688.01 282.28 1685.74 282.28C1682.38 282.28 1679.82 285.096 1679.82 288.68V288.744C1679.82 292.328 1682.44 295.176 1685.9 295.176C1688.04 295.176 1689.64 294.12 1690.95 292.712L1692.52 294.184C1690.86 296.072 1688.87 297.384 1685.77 297.384ZM1703.36 297.384C1698.85 297.384 1695.1 293.896 1695.1 288.776V288.712C1695.1 283.944 1698.43 280.104 1703.04 280.104C1707.94 280.104 1710.75 284.008 1710.75 288.84C1710.75 289.192 1710.75 289.352 1710.72 289.64H1697.6C1697.95 293.224 1700.48 295.24 1703.42 295.24C1705.73 295.24 1707.26 294.312 1708.64 292.904L1710.18 294.28C1708.51 296.168 1706.53 297.384 1703.36 297.384ZM1697.6 287.816H1708.26C1708 284.84 1706.3 282.184 1702.98 282.184C1700.06 282.184 1697.95 284.616 1697.6 287.816ZM1720.54 297.32C1718.14 297.32 1715.58 296.392 1713.69 294.888L1714.94 293.128C1716.73 294.504 1718.71 295.24 1720.66 295.24C1722.68 295.24 1724.09 294.248 1724.09 292.616V292.552C1724.09 290.92 1722.14 290.248 1719.96 289.64C1717.4 288.872 1714.49 288.04 1714.49 284.968V284.904C1714.49 282.056 1716.86 280.168 1720.12 280.168C1722.17 280.168 1724.38 280.872 1726.07 281.992L1724.95 283.848C1723.42 282.856 1721.69 282.248 1720.06 282.248C1718.1 282.248 1716.86 283.272 1716.86 284.648V284.712C1716.86 286.28 1718.9 286.888 1721.11 287.56C1723.67 288.328 1726.42 289.32 1726.42 292.296V292.36C1726.42 295.496 1723.83 297.32 1720.54 297.32Z" fill="#BFDCED"/>
<path d="M1810.17 297V274.6H1812.73L1820.89 286.824L1829.05 274.6H1831.61V297H1829.08V278.856L1820.92 290.856H1820.79L1812.63 278.888V297H1810.17ZM1844.61 294.248L1849.92 280.456H1852.54L1845.6 297.544C1844.19 300.968 1842.56 302.216 1840.09 302.216C1838.72 302.216 1837.69 301.928 1836.57 301.384L1837.41 299.432C1838.21 299.848 1838.94 300.04 1840 300.04C1841.5 300.04 1842.4 299.272 1843.39 296.936L1835.87 280.456H1838.59L1844.61 294.248ZM1872.98 297.352C1869.01 297.352 1865.07 294.216 1865.07 288.776V288.712C1865.07 283.336 1869.01 280.104 1872.98 280.104C1876.05 280.104 1878.03 281.736 1879.31 283.624V273.64H1881.78V297H1879.31V293.672C1877.94 295.656 1876.05 297.352 1872.98 297.352ZM1873.43 295.144C1876.5 295.144 1879.41 292.552 1879.41 288.744V288.68C1879.41 284.872 1876.5 282.312 1873.43 282.312C1870.23 282.312 1867.6 284.68 1867.6 288.68V288.744C1867.6 292.68 1870.26 295.144 1873.43 295.144ZM1892.21 297.352C1889.14 297.352 1886.04 295.624 1886.04 292.2V292.136C1886.04 288.68 1888.92 286.792 1893.11 286.792C1895.25 286.792 1896.69 287.08 1898.2 287.496V286.92C1898.2 283.944 1896.37 282.408 1893.27 282.408C1891.32 282.408 1889.78 282.888 1888.24 283.624L1887.51 281.608C1889.33 280.744 1891.09 280.232 1893.52 280.232C1895.86 280.232 1897.65 280.84 1898.87 282.056C1899.99 283.176 1900.56 284.808 1900.56 286.888V297H1898.2V294.504C1897.04 296.008 1895.16 297.352 1892.21 297.352ZM1892.69 295.4C1895.76 295.4 1898.23 293.544 1898.23 290.92V289.32C1896.98 288.968 1895.41 288.616 1893.36 288.616C1890.26 288.616 1888.53 289.96 1888.53 292.04V292.104C1888.53 294.184 1890.48 295.4 1892.69 295.4ZM1911.19 297.288C1908.51 297.288 1906.52 295.976 1906.52 292.616V282.632H1904.22V280.456H1906.52V275.464H1908.99V280.456H1914.23V282.632H1908.99V292.296C1908.99 294.344 1910.11 295.048 1911.77 295.048C1912.63 295.048 1913.31 294.888 1914.17 294.472V296.584C1913.31 297.064 1912.38 297.288 1911.19 297.288ZM1923.52 297.352C1920.45 297.352 1917.35 295.624 1917.35 292.2V292.136C1917.35 288.68 1920.23 286.792 1924.42 286.792C1926.56 286.792 1928 287.08 1929.51 287.496V286.92C1929.51 283.944 1927.68 282.408 1924.58 282.408C1922.63 282.408 1921.09 282.888 1919.56 283.624L1918.82 281.608C1920.64 280.744 1922.4 280.232 1924.84 280.232C1927.17 280.232 1928.96 280.84 1930.18 282.056C1931.3 283.176 1931.88 284.808 1931.88 286.888V297H1929.51V294.504C1928.36 296.008 1926.47 297.352 1923.52 297.352ZM1924 295.4C1927.08 295.4 1929.54 293.544 1929.54 290.92V289.32C1928.29 288.968 1926.72 288.616 1924.68 288.616C1921.57 288.616 1919.84 289.96 1919.84 292.04V292.104C1919.84 294.184 1921.8 295.4 1924 295.4Z" fill="#BFDCED"/>
<path d="M2023.85 297.32C2020.26 297.32 2017.38 296.168 2014.7 293.736L2016.26 291.88C2018.6 294.024 2020.84 295.048 2023.94 295.048C2026.98 295.048 2028.94 293.448 2028.94 291.24V291.176C2028.94 289.096 2027.82 287.944 2023.11 286.92C2017.96 285.8 2015.59 284.136 2015.59 280.456V280.392C2015.59 276.904 2018.7 274.28 2022.95 274.28C2026.25 274.28 2028.52 275.208 2030.82 277.032L2029.35 278.984C2027.27 277.288 2025.19 276.552 2022.89 276.552C2019.94 276.552 2018.12 278.12 2018.12 280.168V280.232C2018.12 282.344 2019.24 283.56 2024.2 284.584C2029.19 285.704 2031.5 287.496 2031.5 290.92V290.984C2031.5 294.824 2028.3 297.32 2023.85 297.32ZM2042.3 297.352C2038.33 297.352 2035.96 294.664 2035.96 290.728V280.456H2038.43V290.12C2038.43 293.192 2040.06 295.112 2043 295.112C2045.82 295.112 2047.96 293.032 2047.96 289.928V280.456H2050.4V297H2047.96V294.12C2046.84 295.912 2045.15 297.352 2042.3 297.352ZM2055.94 302.12V280.456H2058.4V283.784C2059.78 281.832 2061.67 280.104 2064.74 280.104C2068.71 280.104 2072.64 283.24 2072.64 288.68V288.744C2072.64 294.12 2068.74 297.352 2064.74 297.352C2061.67 297.352 2059.68 295.72 2058.4 293.832V302.12H2055.94ZM2064.29 295.144C2067.49 295.144 2070.12 292.776 2070.12 288.776V288.712C2070.12 284.776 2067.46 282.312 2064.29 282.312C2061.22 282.312 2058.31 284.936 2058.31 288.68V288.744C2058.31 292.584 2061.22 295.144 2064.29 295.144ZM2077.19 302.12V280.456H2079.65V283.784C2081.03 281.832 2082.92 280.104 2085.99 280.104C2089.96 280.104 2093.89 283.24 2093.89 288.68V288.744C2093.89 294.12 2089.99 297.352 2085.99 297.352C2082.92 297.352 2080.93 295.72 2079.65 293.832V302.12H2077.19ZM2085.54 295.144C2088.74 295.144 2091.37 292.776 2091.37 288.776V288.712C2091.37 284.776 2088.71 282.312 2085.54 282.312C2082.47 282.312 2079.56 284.936 2079.56 288.68V288.744C2079.56 292.584 2082.47 295.144 2085.54 295.144ZM2105.99 297.384C2101.03 297.384 2097.42 293.48 2097.42 288.808V288.744C2097.42 284.04 2101.03 280.104 2106.06 280.104C2111.05 280.104 2114.66 284.008 2114.66 288.68V288.744C2114.66 293.448 2110.98 297.384 2105.99 297.384ZM2106.06 295.176C2109.64 295.176 2112.14 292.264 2112.14 288.808V288.744C2112.14 285.192 2109.48 282.28 2105.99 282.28C2102.41 282.28 2099.94 285.192 2099.94 288.68V288.744C2099.94 292.296 2102.57 295.176 2106.06 295.176ZM2119.13 297V280.456H2121.59V284.776C2122.81 282.024 2125.21 280.072 2128.34 280.168V282.824H2128.15C2124.54 282.824 2121.59 285.416 2121.59 290.408V297H2119.13ZM2137.63 297.288C2134.94 297.288 2132.96 295.976 2132.96 292.616V282.632H2130.66V280.456H2132.96V275.464H2135.42V280.456H2140.67V282.632H2135.42V292.296C2135.42 294.344 2136.54 295.048 2138.21 295.048C2139.07 295.048 2139.74 294.888 2140.61 294.472V296.584C2139.74 297.064 2138.82 297.288 2137.63 297.288Z" fill="#BFDCED"/>
<path d="M2379.96 166V138H2390.44C2396.76 138 2400.92 141.36 2400.92 146.88V146.96C2400.92 153 2395.88 156.12 2389.92 156.12H2383.12V166H2379.96ZM2383.12 153.24H2390.04C2394.68 153.24 2397.72 150.76 2397.72 147.08V147C2397.72 143 2394.72 140.92 2390.2 140.92H2383.12V153.24ZM2406.16 166V145.32H2409.24V150.72C2410.76 147.28 2413.76 144.84 2417.68 144.96V148.28H2417.44C2412.92 148.28 2409.24 151.52 2409.24 157.76V166H2406.16ZM2422.45 140.8V137.4H2425.97V140.8H2422.45ZM2422.65 166V145.32H2425.73V166H2422.65ZM2439.8 166.16L2430.84 145.32H2434.24L2441.2 162.48L2448.2 145.32H2451.52L2442.52 166.16H2439.8ZM2461.5 166.44C2457.66 166.44 2453.78 164.28 2453.78 160V159.92C2453.78 155.6 2457.38 153.24 2462.62 153.24C2465.3 153.24 2467.1 153.6 2468.98 154.12V153.4C2468.98 149.68 2466.7 147.76 2462.82 147.76C2460.38 147.76 2458.46 148.36 2456.54 149.28L2455.62 146.76C2457.9 145.68 2460.1 145.04 2463.14 145.04C2466.06 145.04 2468.3 145.8 2469.82 147.32C2471.22 148.72 2471.94 150.76 2471.94 153.36V166H2468.98V162.88C2467.54 164.76 2465.18 166.44 2461.5 166.44ZM2462.1 164C2465.94 164 2469.02 161.68 2469.02 158.4V156.4C2467.46 155.96 2465.5 155.52 2462.94 155.52C2459.06 155.52 2456.9 157.2 2456.9 159.8V159.88C2456.9 162.48 2459.34 164 2462.1 164ZM2485.23 166.36C2481.87 166.36 2479.39 164.72 2479.39 160.52V148.04H2476.51V145.32H2479.39V139.08H2482.47V145.32H2489.03V148.04H2482.47V160.12C2482.47 162.68 2483.87 163.56 2485.95 163.56C2487.03 163.56 2487.87 163.36 2488.95 162.84V165.48C2487.87 166.08 2486.71 166.36 2485.23 166.36ZM2502.93 166.48C2497.29 166.48 2492.61 162.12 2492.61 155.72V155.64C2492.61 149.68 2496.77 144.88 2502.53 144.88C2508.65 144.88 2512.17 149.76 2512.17 155.8C2512.17 156.24 2512.17 156.44 2512.13 156.8H2495.73C2496.17 161.28 2499.33 163.8 2503.01 163.8C2505.89 163.8 2507.81 162.64 2509.53 160.88L2511.45 162.6C2509.37 164.96 2506.89 166.48 2502.93 166.48ZM2495.73 154.52H2509.05C2508.73 150.8 2506.61 147.48 2502.45 147.48C2498.81 147.48 2496.17 150.52 2495.73 154.52ZM2538.88 166.48C2532.8 166.48 2528.28 161.56 2528.28 155.76V155.68C2528.28 149.8 2532.8 144.88 2538.88 144.88C2542.8 144.88 2545.2 146.48 2547.16 148.56L2545.12 150.72C2543.48 149 2541.68 147.6 2538.84 147.6C2534.64 147.6 2531.44 151.12 2531.44 155.6V155.68C2531.44 160.16 2534.72 163.72 2539.04 163.72C2541.72 163.72 2543.72 162.4 2545.36 160.64L2547.32 162.48C2545.24 164.84 2542.76 166.48 2538.88 166.48ZM2559.85 166.44C2554.89 166.44 2551.93 163.08 2551.93 158.16V145.32H2555.01V157.4C2555.01 161.24 2557.05 163.64 2560.73 163.64C2564.25 163.64 2566.93 161.04 2566.93 157.16V145.32H2569.97V166H2566.93V162.4C2565.53 164.64 2563.41 166.44 2559.85 166.44ZM2583.74 166.4C2580.74 166.4 2577.54 165.24 2575.18 163.36L2576.74 161.16C2578.98 162.88 2581.46 163.8 2583.9 163.8C2586.42 163.8 2588.18 162.56 2588.18 160.52V160.44C2588.18 158.4 2585.74 157.56 2583.02 156.8C2579.82 155.84 2576.18 154.8 2576.18 150.96V150.88C2576.18 147.32 2579.14 144.96 2583.22 144.96C2585.78 144.96 2588.54 145.84 2590.66 147.24L2589.26 149.56C2587.34 148.32 2585.18 147.56 2583.14 147.56C2580.7 147.56 2579.14 148.84 2579.14 150.56V150.64C2579.14 152.6 2581.7 153.36 2584.46 154.2C2587.66 155.16 2591.1 156.4 2591.1 160.12V160.2C2591.1 164.12 2587.86 166.4 2583.74 166.4ZM2603.35 166.36C2599.99 166.36 2597.51 164.72 2597.51 160.52V148.04H2594.63V145.32H2597.51V139.08H2600.59V145.32H2607.15V148.04H2600.59V160.12C2600.59 162.68 2601.99 163.56 2604.07 163.56C2605.15 163.56 2605.99 163.36 2607.07 162.84V165.48C2605.99 166.08 2604.83 166.36 2603.35 166.36ZM2621.46 166.48C2615.26 166.48 2610.74 161.6 2610.74 155.76V155.68C2610.74 149.8 2615.26 144.88 2621.54 144.88C2627.78 144.88 2632.3 149.76 2632.3 155.6V155.68C2632.3 161.56 2627.7 166.48 2621.46 166.48ZM2621.54 163.72C2626.02 163.72 2629.14 160.08 2629.14 155.76V155.68C2629.14 151.24 2625.82 147.6 2621.46 147.6C2616.98 147.6 2613.9 151.24 2613.9 155.6V155.68C2613.9 160.12 2617.18 163.72 2621.54 163.72ZM2637.88 166V145.32H2640.96V148.8C2642.36 146.72 2644.16 144.88 2647.64 144.88C2651 144.88 2653.16 146.64 2654.28 149C2655.8 146.72 2657.92 144.88 2661.56 144.88C2666.36 144.88 2669.24 148.04 2669.24 153.2V166H2666.16V153.92C2666.16 149.92 2664.16 147.68 2660.8 147.68C2657.72 147.68 2655.08 150 2655.08 154.08V166H2652.04V153.84C2652.04 149.96 2650.04 147.68 2646.72 147.68C2643.44 147.68 2640.96 150.4 2640.96 154.2V166H2637.88ZM2684.85 166.48C2679.21 166.48 2674.53 162.12 2674.53 155.72V155.64C2674.53 149.68 2678.69 144.88 2684.45 144.88C2690.57 144.88 2694.09 149.76 2694.09 155.8C2694.09 156.24 2694.09 156.44 2694.05 156.8H2677.65C2678.09 161.28 2681.25 163.8 2684.93 163.8C2687.81 163.8 2689.73 162.64 2691.45 160.88L2693.37 162.6C2691.29 164.96 2688.81 166.48 2684.85 166.48ZM2677.65 154.52H2690.97C2690.65 150.8 2688.53 147.48 2684.37 147.48C2680.73 147.48 2678.09 150.52 2677.65 154.52ZM2699.48 166V145.32H2702.56V150.72C2704.08 147.28 2707.08 144.84 2711 144.96V148.28H2710.76C2706.24 148.28 2702.56 151.52 2702.56 157.76V166H2699.48Z" fill="#BFDCED"/>
<path d="M2807.76 168.48C2799.68 168.48 2793.72 162.12 2793.72 154.08V154C2793.72 146.08 2799.68 139.52 2807.88 139.52C2812.96 139.52 2816.04 141.28 2818.8 143.96L2816.64 146.28C2814.24 144.04 2811.68 142.44 2807.84 142.44C2801.64 142.44 2797 147.48 2797 153.92V154C2797 160.48 2801.64 165.56 2807.84 165.56C2811.68 165.56 2814.2 164.08 2816.88 161.52L2818.96 163.56C2816.08 166.52 2812.8 168.48 2807.76 168.48ZM2833.18 168.48C2826.98 168.48 2822.46 163.6 2822.46 157.76V157.68C2822.46 151.8 2826.98 146.88 2833.26 146.88C2839.5 146.88 2844.02 151.76 2844.02 157.6V157.68C2844.02 163.56 2839.42 168.48 2833.18 168.48ZM2833.26 165.72C2837.74 165.72 2840.86 162.08 2840.86 157.76V157.68C2840.86 153.24 2837.54 149.6 2833.18 149.6C2828.7 149.6 2825.62 153.24 2825.62 157.6V157.68C2825.62 162.12 2828.9 165.72 2833.26 165.72ZM2849.6 168V147.32H2852.68V152.72C2854.2 149.28 2857.2 146.84 2861.12 146.96V150.28H2860.88C2856.36 150.28 2852.68 153.52 2852.68 159.76V168H2849.6ZM2865.81 174.4V147.32H2868.89V151.48C2870.61 149.04 2872.97 146.88 2876.81 146.88C2881.77 146.88 2886.69 150.8 2886.69 157.6V157.68C2886.69 164.4 2881.81 168.44 2876.81 168.44C2872.97 168.44 2870.49 166.4 2868.89 164.04V174.4H2865.81ZM2876.25 165.68C2880.25 165.68 2883.53 162.72 2883.53 157.72V157.64C2883.53 152.72 2880.21 149.64 2876.25 149.64C2872.41 149.64 2868.77 152.92 2868.77 157.6V157.68C2868.77 162.48 2872.41 165.68 2876.25 165.68ZM2901.81 168.48C2895.61 168.48 2891.09 163.6 2891.09 157.76V157.68C2891.09 151.8 2895.61 146.88 2901.89 146.88C2908.13 146.88 2912.65 151.76 2912.65 157.6V157.68C2912.65 163.56 2908.05 168.48 2901.81 168.48ZM2901.89 165.72C2906.37 165.72 2909.49 162.08 2909.49 157.76V157.68C2909.49 153.24 2906.17 149.6 2901.81 149.6C2897.33 149.6 2894.25 153.24 2894.25 157.6V157.68C2894.25 162.12 2897.53 165.72 2901.89 165.72ZM2918.23 168V147.32H2921.31V152.72C2922.83 149.28 2925.83 146.84 2929.75 146.96V150.28H2929.51C2924.99 150.28 2921.31 153.52 2921.31 159.76V168H2918.23ZM2939.58 168.44C2935.74 168.44 2931.86 166.28 2931.86 162V161.92C2931.86 157.6 2935.46 155.24 2940.7 155.24C2943.38 155.24 2945.18 155.6 2947.06 156.12V155.4C2947.06 151.68 2944.78 149.76 2940.9 149.76C2938.46 149.76 2936.54 150.36 2934.62 151.28L2933.7 148.76C2935.98 147.68 2938.18 147.04 2941.22 147.04C2944.14 147.04 2946.38 147.8 2947.9 149.32C2949.3 150.72 2950.02 152.76 2950.02 155.36V168H2947.06V164.88C2945.62 166.76 2943.26 168.44 2939.58 168.44ZM2940.18 166C2944.02 166 2947.1 163.68 2947.1 160.4V158.4C2945.54 157.96 2943.58 157.52 2941.02 157.52C2937.14 157.52 2934.98 159.2 2934.98 161.8V161.88C2934.98 164.48 2937.42 166 2940.18 166ZM2963.31 168.36C2959.95 168.36 2957.47 166.72 2957.47 162.52V150.04H2954.59V147.32H2957.47V141.08H2960.55V147.32H2967.11V150.04H2960.55V162.12C2960.55 164.68 2961.95 165.56 2964.03 165.56C2965.11 165.56 2965.95 165.36 2967.03 164.84V167.48C2965.95 168.08 2964.79 168.36 2963.31 168.36ZM2981.02 168.48C2975.38 168.48 2970.7 164.12 2970.7 157.72V157.64C2970.7 151.68 2974.86 146.88 2980.62 146.88C2986.74 146.88 2990.26 151.76 2990.26 157.8C2990.26 158.24 2990.26 158.44 2990.22 158.8H2973.82C2974.26 163.28 2977.42 165.8 2981.1 165.8C2983.98 165.8 2985.9 164.64 2987.62 162.88L2989.54 164.6C2987.46 166.96 2984.98 168.48 2981.02 168.48ZM2973.82 156.52H2987.14C2986.82 152.8 2984.7 149.48 2980.54 149.48C2976.9 149.48 2974.26 152.52 2973.82 156.52ZM3016.96 168.48C3010.88 168.48 3006.36 163.56 3006.36 157.76V157.68C3006.36 151.8 3010.88 146.88 3016.96 146.88C3020.88 146.88 3023.28 148.48 3025.24 150.56L3023.2 152.72C3021.56 151 3019.76 149.6 3016.92 149.6C3012.72 149.6 3009.52 153.12 3009.52 157.6V157.68C3009.52 162.16 3012.8 165.72 3017.12 165.72C3019.8 165.72 3021.8 164.4 3023.44 162.64L3025.4 164.48C3023.32 166.84 3020.84 168.48 3016.96 168.48ZM3037.94 168.44C3032.98 168.44 3030.02 165.08 3030.02 160.16V147.32H3033.1V159.4C3033.1 163.24 3035.14 165.64 3038.82 165.64C3042.34 165.64 3045.02 163.04 3045.02 159.16V147.32H3048.06V168H3045.02V164.4C3043.62 166.64 3041.5 168.44 3037.94 168.44ZM3061.83 168.4C3058.83 168.4 3055.63 167.24 3053.27 165.36L3054.83 163.16C3057.07 164.88 3059.55 165.8 3061.99 165.8C3064.51 165.8 3066.27 164.56 3066.27 162.52V162.44C3066.27 160.4 3063.83 159.56 3061.11 158.8C3057.91 157.84 3054.27 156.8 3054.27 152.96V152.88C3054.27 149.32 3057.23 146.96 3061.31 146.96C3063.87 146.96 3066.63 147.84 3068.75 149.24L3067.35 151.56C3065.43 150.32 3063.27 149.56 3061.23 149.56C3058.79 149.56 3057.23 150.84 3057.23 152.56V152.64C3057.23 154.6 3059.79 155.36 3062.55 156.2C3065.75 157.16 3069.19 158.4 3069.19 162.12V162.2C3069.19 166.12 3065.95 168.4 3061.83 168.4ZM3081.44 168.36C3078.08 168.36 3075.6 166.72 3075.6 162.52V150.04H3072.72V147.32H3075.6V141.08H3078.68V147.32H3085.24V150.04H3078.68V162.12C3078.68 164.68 3080.08 165.56 3082.16 165.56C3083.24 165.56 3084.08 165.36 3085.16 164.84V167.48C3084.08 168.08 3082.92 168.36 3081.44 168.36ZM3099.54 168.48C3093.34 168.48 3088.82 163.6 3088.82 157.76V157.68C3088.82 151.8 3093.34 146.88 3099.62 146.88C3105.86 146.88 3110.38 151.76 3110.38 157.6V157.68C3110.38 163.56 3105.78 168.48 3099.54 168.48ZM3099.62 165.72C3104.1 165.72 3107.22 162.08 3107.22 157.76V157.68C3107.22 153.24 3103.9 149.6 3099.54 149.6C3095.06 149.6 3091.98 153.24 3091.98 157.6V157.68C3091.98 162.12 3095.26 165.72 3099.62 165.72ZM3115.96 168V147.32H3119.04V150.8C3120.44 148.72 3122.24 146.88 3125.72 146.88C3129.08 146.88 3131.24 148.64 3132.36 151C3133.88 148.72 3136 146.88 3139.64 146.88C3144.44 146.88 3147.32 150.04 3147.32 155.2V168H3144.24V155.92C3144.24 151.92 3142.24 149.68 3138.88 149.68C3135.8 149.68 3133.16 152 3133.16 156.08V168H3130.12V155.84C3130.12 151.96 3128.12 149.68 3124.8 149.68C3121.52 149.68 3119.04 152.4 3119.04 156.2V168H3115.96ZM3162.93 168.48C3157.29 168.48 3152.61 164.12 3152.61 157.72V157.64C3152.61 151.68 3156.77 146.88 3162.53 146.88C3168.65 146.88 3172.17 151.76 3172.17 157.8C3172.17 158.24 3172.17 158.44 3172.13 158.8H3155.73C3156.17 163.28 3159.33 165.8 3163.01 165.8C3165.89 165.8 3167.81 164.64 3169.53 162.88L3171.45 164.6C3169.37 166.96 3166.89 168.48 3162.93 168.48ZM3155.73 156.52H3169.05C3168.73 152.8 3166.61 149.48 3162.45 149.48C3158.81 149.48 3156.17 152.52 3155.73 156.52ZM3177.57 168V147.32H3180.65V152.72C3182.17 149.28 3185.17 146.84 3189.09 146.96V150.28H3188.85C3184.33 150.28 3180.65 153.52 3180.65 159.76V168H3177.57Z" fill="#BFDCED"/>
<path d="M3285.76 168.48C3277.68 168.48 3271.72 162.12 3271.72 154.08V154C3271.72 146.08 3277.68 139.52 3285.88 139.52C3290.96 139.52 3294.04 141.28 3296.8 143.96L3294.64 146.28C3292.24 144.04 3289.68 142.44 3285.84 142.44C3279.64 142.44 3275 147.48 3275 153.92V154C3275 160.48 3279.64 165.56 3285.84 165.56C3289.68 165.56 3292.2 164.08 3294.88 161.52L3296.96 163.56C3294.08 166.52 3290.8 168.48 3285.76 168.48ZM3311.18 168.48C3304.98 168.48 3300.46 163.6 3300.46 157.76V157.68C3300.46 151.8 3304.98 146.88 3311.26 146.88C3317.5 146.88 3322.02 151.76 3322.02 157.6V157.68C3322.02 163.56 3317.42 168.48 3311.18 168.48ZM3311.26 165.72C3315.74 165.72 3318.86 162.08 3318.86 157.76V157.68C3318.86 153.24 3315.54 149.6 3311.18 149.6C3306.7 149.6 3303.62 153.24 3303.62 157.6V157.68C3303.62 162.12 3306.9 165.72 3311.26 165.72ZM3327.6 168V147.32H3330.68V152.72C3332.2 149.28 3335.2 146.84 3339.12 146.96V150.28H3338.88C3334.36 150.28 3330.68 153.52 3330.68 159.76V168H3327.6ZM3343.81 174.4V147.32H3346.89V151.48C3348.61 149.04 3350.97 146.88 3354.81 146.88C3359.77 146.88 3364.69 150.8 3364.69 157.6V157.68C3364.69 164.4 3359.81 168.44 3354.81 168.44C3350.97 168.44 3348.49 166.4 3346.89 164.04V174.4H3343.81ZM3354.25 165.68C3358.25 165.68 3361.53 162.72 3361.53 157.72V157.64C3361.53 152.72 3358.21 149.64 3354.25 149.64C3350.41 149.64 3346.77 152.92 3346.77 157.6V157.68C3346.77 162.48 3350.41 165.68 3354.25 165.68ZM3379.81 168.48C3373.61 168.48 3369.09 163.6 3369.09 157.76V157.68C3369.09 151.8 3373.61 146.88 3379.89 146.88C3386.13 146.88 3390.65 151.76 3390.65 157.6V157.68C3390.65 163.56 3386.05 168.48 3379.81 168.48ZM3379.89 165.72C3384.37 165.72 3387.49 162.08 3387.49 157.76V157.68C3387.49 153.24 3384.17 149.6 3379.81 149.6C3375.33 149.6 3372.25 153.24 3372.25 157.6V157.68C3372.25 162.12 3375.53 165.72 3379.89 165.72ZM3396.23 168V147.32H3399.31V152.72C3400.83 149.28 3403.83 146.84 3407.75 146.96V150.28H3407.51C3402.99 150.28 3399.31 153.52 3399.31 159.76V168H3396.23ZM3417.58 168.44C3413.74 168.44 3409.86 166.28 3409.86 162V161.92C3409.86 157.6 3413.46 155.24 3418.7 155.24C3421.38 155.24 3423.18 155.6 3425.06 156.12V155.4C3425.06 151.68 3422.78 149.76 3418.9 149.76C3416.46 149.76 3414.54 150.36 3412.62 151.28L3411.7 148.76C3413.98 147.68 3416.18 147.04 3419.22 147.04C3422.14 147.04 3424.38 147.8 3425.9 149.32C3427.3 150.72 3428.02 152.76 3428.02 155.36V168H3425.06V164.88C3423.62 166.76 3421.26 168.44 3417.58 168.44ZM3418.18 166C3422.02 166 3425.1 163.68 3425.1 160.4V158.4C3423.54 157.96 3421.58 157.52 3419.02 157.52C3415.14 157.52 3412.98 159.2 3412.98 161.8V161.88C3412.98 164.48 3415.42 166 3418.18 166ZM3441.31 168.36C3437.95 168.36 3435.47 166.72 3435.47 162.52V150.04H3432.59V147.32H3435.47V141.08H3438.55V147.32H3445.11V150.04H3438.55V162.12C3438.55 164.68 3439.95 165.56 3442.03 165.56C3443.11 165.56 3443.95 165.36 3445.03 164.84V167.48C3443.95 168.08 3442.79 168.36 3441.31 168.36ZM3459.02 168.48C3453.38 168.48 3448.7 164.12 3448.7 157.72V157.64C3448.7 151.68 3452.86 146.88 3458.62 146.88C3464.74 146.88 3468.26 151.76 3468.26 157.8C3468.26 158.24 3468.26 158.44 3468.22 158.8H3451.82C3452.26 163.28 3455.42 165.8 3459.1 165.8C3461.98 165.8 3463.9 164.64 3465.62 162.88L3467.54 164.6C3465.46 166.96 3462.98 168.48 3459.02 168.48ZM3451.82 156.52H3465.14C3464.82 152.8 3462.7 149.48 3458.54 149.48C3454.9 149.48 3452.26 152.52 3451.82 156.52ZM3494.96 168.48C3488.88 168.48 3484.36 163.56 3484.36 157.76V157.68C3484.36 151.8 3488.88 146.88 3494.96 146.88C3498.88 146.88 3501.28 148.48 3503.24 150.56L3501.2 152.72C3499.56 151 3497.76 149.6 3494.92 149.6C3490.72 149.6 3487.52 153.12 3487.52 157.6V157.68C3487.52 162.16 3490.8 165.72 3495.12 165.72C3497.8 165.72 3499.8 164.4 3501.44 162.64L3503.4 164.48C3501.32 166.84 3498.84 168.48 3494.96 168.48ZM3515.94 168.44C3510.98 168.44 3508.02 165.08 3508.02 160.16V147.32H3511.1V159.4C3511.1 163.24 3513.14 165.64 3516.82 165.64C3520.34 165.64 3523.02 163.04 3523.02 159.16V147.32H3526.06V168H3523.02V164.4C3521.62 166.64 3519.5 168.44 3515.94 168.44ZM3539.83 168.4C3536.83 168.4 3533.63 167.24 3531.27 165.36L3532.83 163.16C3535.07 164.88 3537.55 165.8 3539.99 165.8C3542.51 165.8 3544.27 164.56 3544.27 162.52V162.44C3544.27 160.4 3541.83 159.56 3539.11 158.8C3535.91 157.84 3532.27 156.8 3532.27 152.96V152.88C3532.27 149.32 3535.23 146.96 3539.31 146.96C3541.87 146.96 3544.63 147.84 3546.75 149.24L3545.35 151.56C3543.43 150.32 3541.27 149.56 3539.23 149.56C3536.79 149.56 3535.23 150.84 3535.23 152.56V152.64C3535.23 154.6 3537.79 155.36 3540.55 156.2C3543.75 157.16 3547.19 158.4 3547.19 162.12V162.2C3547.19 166.12 3543.95 168.4 3539.83 168.4ZM3559.44 168.36C3556.08 168.36 3553.6 166.72 3553.6 162.52V150.04H3550.72V147.32H3553.6V141.08H3556.68V147.32H3563.24V150.04H3556.68V162.12C3556.68 164.68 3558.08 165.56 3560.16 165.56C3561.24 165.56 3562.08 165.36 3563.16 164.84V167.48C3562.08 168.08 3560.92 168.36 3559.44 168.36ZM3577.54 168.48C3571.34 168.48 3566.82 163.6 3566.82 157.76V157.68C3566.82 151.8 3571.34 146.88 3577.62 146.88C3583.86 146.88 3588.38 151.76 3588.38 157.6V157.68C3588.38 163.56 3583.78 168.48 3577.54 168.48ZM3577.62 165.72C3582.1 165.72 3585.22 162.08 3585.22 157.76V157.68C3585.22 153.24 3581.9 149.6 3577.54 149.6C3573.06 149.6 3569.98 153.24 3569.98 157.6V157.68C3569.98 162.12 3573.26 165.72 3577.62 165.72ZM3593.96 168V147.32H3597.04V150.8C3598.44 148.72 3600.24 146.88 3603.72 146.88C3607.08 146.88 3609.24 148.64 3610.36 151C3611.88 148.72 3614 146.88 3617.64 146.88C3622.44 146.88 3625.32 150.04 3625.32 155.2V168H3622.24V155.92C3622.24 151.92 3620.24 149.68 3616.88 149.68C3613.8 149.68 3611.16 152 3611.16 156.08V168H3608.12V155.84C3608.12 151.96 3606.12 149.68 3602.8 149.68C3599.52 149.68 3597.04 152.4 3597.04 156.2V168H3593.96ZM3640.93 168.48C3635.29 168.48 3630.61 164.12 3630.61 157.72V157.64C3630.61 151.68 3634.77 146.88 3640.53 146.88C3646.65 146.88 3650.17 151.76 3650.17 157.8C3650.17 158.24 3650.17 158.44 3650.13 158.8H3633.73C3634.17 163.28 3637.33 165.8 3641.01 165.8C3643.89 165.8 3645.81 164.64 3647.53 162.88L3649.45 164.6C3647.37 166.96 3644.89 168.48 3640.93 168.48ZM3633.73 156.52H3647.05C3646.73 152.8 3644.61 149.48 3640.45 149.48C3636.81 149.48 3634.17 152.52 3633.73 156.52ZM3655.57 168V147.32H3658.65V152.72C3660.17 149.28 3663.17 146.84 3667.09 146.96V150.28H3666.85C3662.33 150.28 3658.65 153.52 3658.65 159.76V168H3655.57Z" fill="#BFDCED"/>
<rect x="1586" y="338" width="154" height="12" rx="6" fill="#F3DA2A"/>
<defs>
<filter id="filter0_d_138_34" x="141" y="3" width="790" height="114" filterUnits="userSpaceOnUse" color-interpolation-filters="sRGB">
<feFlood flood-opacity="0" result="BackgroundImageFix"/>
<feColorMatrix in="SourceAlpha" type="matrix" values="0 0 0 0 0 0 0 0 0 0 0 0 0 0 0 0 0 0 127 0" result="hardAlpha"/>
<feOffset dy="4"/>
<feGaussianBlur stdDeviation="2"/>
<feComposite in2="hardAlpha" operator="out"/>
<feColorMatrix type="matrix" values="0 0 0 0 0 0 0 0 0 0 0 0 0 0 0 0 0 0 0.25 0"/>
<feBlend mode="normal" in2="BackgroundImageFix" result="effect1_dropShadow_138_34"/>
<feBlend mode="normal" in="SourceGraphic" in2="effect1_dropShadow_138_34" result="shape"/>
</filter>
<radialGradient id="paint0_radial_138_34" cx="0" cy="0" r="1" gradientUnits="userSpaceOnUse" gradientTransform="translate(768.945 187.405) scale(71.9889 71.8746)">
<stop stop-color="#FEDF33"/>
<stop offset="0.440002" stop-color="#FBB809"/>
<stop offset="0.899994" stop-color="#EE960D"/>
<stop offset="1" stop-color="#E17A10"/>
</radialGradient>
<radialGradient id="paint1_radial_138_34" cx="0" cy="0" r="1" gradientUnits="userSpaceOnUse" gradientTransform="translate(750.146 115.998) scale(72.0423 71.9266)">
<stop stop-color="#FEDF33"/>
<stop offset="0.440002" stop-color="#FBB809"/>
<stop offset="0.899994" stop-color="#EE960D"/>
<stop offset="1" stop-color="#E17A10"/>
</radialGradient>
<radialGradient id="paint2_radial_138_34" cx="0" cy="0" r="1" gradientUnits="userSpaceOnUse" gradientTransform="translate(697.656 168.17) scale(72.0137 71.898)">
<stop stop-color="#FEDF33"/>
<stop offset="0.440002" stop-color="#FBB809"/>
<stop offset="0.899994" stop-color="#EE960D"/>
<stop offset="1" stop-color="#E17A10"/>
</radialGradient>
<radialGradient id="paint3_radial_138_34" cx="0" cy="0" r="1" gradientUnits="userSpaceOnUse" gradientTransform="translate(768.897 187.637) scale(72.2155 72.0992)">
<stop stop-color="#FEDF33"/>
<stop offset="0.440002" stop-color="#FBB809"/>
<stop offset="0.899994" stop-color="#EE960D"/>
<stop offset="1" stop-color="#D87301"/>
</radialGradient>
<clipPath id="clip0_138_34">
<rect width="614.588" height="80.6635" fill="white" transform="translate(171 116)"/>
</clipPath>
</defs>
</svg>
