<svg width="782" height="106" viewBox="0 0 782 106" fill="none" xmlns="http://www.w3.org/2000/svg">
<g filter="url(#filter0_d_4_4)">
<path d="M221 47.921C220.978 47.7235 220.935 47.5289 220.873 47.3405V47.147C220.77 46.9259 220.634 46.7227 220.469 46.545L207.719 33.645C207.543 33.4778 207.342 33.3399 207.124 33.2365H206.933L206.253 33H193.375C191.684 33 190.063 33.6796 188.867 34.8892C187.672 36.0988 187 37.7394 187 39.45V69.55C187 71.2607 187.672 72.9012 188.867 74.1108C190.063 75.3204 191.684 76 193.375 76H214.625C216.316 76 217.937 75.3204 219.133 74.1108C220.328 72.9012 221 71.2607 221 69.55V48.05C221 48.05 221 48.05 221 47.921ZM208.25 40.3315L213.754 45.9H208.25V40.3315ZM216.75 69.55C216.75 70.1202 216.526 70.6671 216.128 71.0703C215.729 71.4735 215.189 71.7 214.625 71.7H193.375C192.811 71.7 192.271 71.4735 191.872 71.0703C191.474 70.6671 191.25 70.1202 191.25 69.55V39.45C191.25 38.8798 191.474 38.3329 191.872 37.9297C192.271 37.5265 192.811 37.3 193.375 37.3H204V48.05C204 48.6202 204.224 49.1671 204.622 49.5703C205.021 49.9735 205.561 50.2 206.125 50.2H216.75V69.55Z" fill="#638092"/>
<path d="M43.3377 67.6756C46.3159 67.6783 49.2439 66.9089 51.8359 65.4422L59.0263 72.632C59.9023 73.5079 61.0903 74 62.3291 74C63.5679 74 64.756 73.5079 65.6319 72.632C66.5079 71.7562 67 70.5682 67 69.3295C67 68.0908 66.5079 66.9029 65.6319 66.027L58.4415 58.8372C60.4977 55.1869 61.162 50.9154 60.3115 46.8132C59.4609 42.7109 57.1531 39.0555 53.815 36.5235C50.477 33.9915 46.3346 32.7542 42.1546 33.0406C37.9745 33.3269 34.0397 35.1176 31.0782 38.0813C28.6535 40.5057 27.0022 43.5947 26.3332 46.9576C25.6642 50.3205 26.0075 53.8062 27.3198 56.9739C28.632 60.1417 30.8542 62.8492 33.7054 64.7541C36.5566 66.659 39.9087 67.6757 43.3377 67.6756ZM34.1296 41.1324C36.2598 39.0033 39.0624 37.6786 42.0599 37.384C45.0574 37.0894 48.0643 37.8432 50.5683 39.5168C53.0723 41.1904 54.9186 43.6803 55.7925 46.5624C56.6664 49.4445 56.5139 52.5405 55.361 55.3228C54.2081 58.105 52.1261 60.4016 49.4697 61.821C46.8133 63.2405 43.7469 63.6951 40.7929 63.1074C37.8389 62.5197 35.18 60.9261 33.2693 58.598C31.3586 56.2699 30.3143 53.3514 30.3143 50.3398C30.3091 48.6289 30.6436 46.9341 31.2986 45.3535C31.9535 43.773 32.9158 42.3382 34.1296 41.1324Z" fill="#638092"/>
<path d="M267.568 66.384C260.528 66.384 256.176 61.264 256.176 54.864V54.8C256.176 48.656 260.688 43.216 267.408 43.216C271.184 43.216 273.52 44.304 275.76 46.192L274.128 48.112C272.432 46.608 270.448 45.552 267.312 45.552C262.352 45.552 258.8 49.744 258.8 54.736V54.8C258.8 60.144 262.224 64.112 267.664 64.112C270.224 64.112 272.592 63.12 274.128 61.872V56.304H267.312V54.032H276.56V62.96C274.48 64.848 271.376 66.384 267.568 66.384ZM281.846 66V49.456H284.31V53.776C285.526 51.024 287.926 49.072 291.062 49.168V51.824H290.87C287.254 51.824 284.31 54.416 284.31 59.408V66H281.846ZM301.648 66.384C296.688 66.384 293.072 62.48 293.072 57.808V57.744C293.072 53.04 296.688 49.104 301.712 49.104C306.704 49.104 310.32 53.008 310.32 57.68V57.744C310.32 62.448 306.64 66.384 301.648 66.384ZM301.712 64.176C305.296 64.176 307.792 61.264 307.792 57.808V57.744C307.792 54.192 305.136 51.28 301.648 51.28C298.064 51.28 295.6 54.192 295.6 57.68V57.744C295.6 61.296 298.224 64.176 301.712 64.176ZM320.863 66.352C316.895 66.352 314.527 63.664 314.527 59.728V49.456H316.991V59.12C316.991 62.192 318.623 64.112 321.567 64.112C324.383 64.112 326.527 62.032 326.527 58.928V49.456H328.959V66H326.527V63.12C325.407 64.912 323.711 66.352 320.863 66.352ZM334.502 71.12V49.456H336.966V52.784C338.342 50.832 340.23 49.104 343.302 49.104C347.27 49.104 351.206 52.24 351.206 57.68V57.744C351.206 63.12 347.302 66.352 343.302 66.352C340.23 66.352 338.246 64.72 336.966 62.832V71.12H334.502ZM342.854 64.144C346.054 64.144 348.678 61.776 348.678 57.776V57.712C348.678 53.776 346.022 51.312 342.854 51.312C339.782 51.312 336.87 53.936 336.87 57.68V57.744C336.87 61.584 339.782 64.144 342.854 64.144ZM366.402 70.096V40.464H368.482V70.096H366.402ZM395.283 66.384C388.819 66.384 384.051 61.296 384.051 54.864V54.8C384.051 48.464 388.819 43.216 395.379 43.216C399.443 43.216 401.907 44.624 404.115 46.768L402.387 48.624C400.467 46.832 398.419 45.552 395.347 45.552C390.387 45.552 386.675 49.584 386.675 54.736V54.8C386.675 59.984 390.387 64.048 395.347 64.048C398.419 64.048 400.435 62.864 402.579 60.816L404.243 62.448C401.939 64.816 399.315 66.384 395.283 66.384ZM415.617 66.384C410.657 66.384 407.041 62.48 407.041 57.808V57.744C407.041 53.04 410.657 49.104 415.681 49.104C420.673 49.104 424.289 53.008 424.289 57.68V57.744C424.289 62.448 420.609 66.384 415.617 66.384ZM415.681 64.176C419.265 64.176 421.76 61.264 421.76 57.808V57.744C421.76 54.192 419.105 51.28 415.617 51.28C412.033 51.28 409.569 54.192 409.569 57.68V57.744C409.569 61.296 412.193 64.176 415.681 64.176ZM428.752 66V49.456H431.216V52.336C432.336 50.544 434.032 49.104 436.88 49.104C440.848 49.104 443.216 51.792 443.216 55.728V66H440.752V56.336C440.752 53.264 439.12 51.344 436.176 51.344C433.328 51.344 431.216 53.424 431.216 56.528V66H428.752ZM454.007 66.288C451.319 66.288 449.335 64.976 449.335 61.616V51.632H447.031V49.456H449.335V44.464H451.799V49.456H457.047V51.632H451.799V61.296C451.799 63.344 452.919 64.048 454.583 64.048C455.447 64.048 456.119 63.888 456.983 63.472V65.584C456.119 66.064 455.191 66.288 454.007 66.288ZM466.336 66.352C463.264 66.352 460.16 64.624 460.16 61.2V61.136C460.16 57.68 463.04 55.792 467.232 55.792C469.376 55.792 470.816 56.08 472.32 56.496V55.92C472.32 52.944 470.496 51.408 467.392 51.408C465.44 51.408 463.904 51.888 462.368 52.624L461.632 50.608C463.456 49.744 465.216 49.232 467.648 49.232C469.984 49.232 471.776 49.84 472.992 51.056C474.112 52.176 474.688 53.808 474.688 55.888V66H472.32V63.504C471.168 65.008 469.28 66.352 466.336 66.352ZM466.816 64.4C469.888 64.4 472.352 62.544 472.352 59.92V58.32C471.104 57.968 469.536 57.616 467.488 57.616C464.384 57.616 462.656 58.96 462.656 61.04V61.104C462.656 63.184 464.608 64.4 466.816 64.4ZM487.396 66.384C482.532 66.384 478.916 62.448 478.916 57.808V57.744C478.916 53.04 482.532 49.104 487.396 49.104C490.532 49.104 492.452 50.384 494.02 52.048L492.388 53.776C491.076 52.4 489.636 51.28 487.364 51.28C484.004 51.28 481.444 54.096 481.444 57.68V57.744C481.444 61.328 484.068 64.176 487.524 64.176C489.668 64.176 491.268 63.12 492.58 61.712L494.148 63.184C492.484 65.072 490.5 66.384 487.396 66.384ZM503.757 66.288C501.069 66.288 499.085 64.976 499.085 61.616V51.632H496.781V49.456H499.085V44.464H501.549V49.456H506.797V51.632H501.549V61.296C501.549 63.344 502.669 64.048 504.333 64.048C505.197 64.048 505.869 63.888 506.733 63.472V65.584C505.869 66.064 504.941 66.288 503.757 66.288ZM521.808 70.096V40.464H523.888V70.096H521.808ZM540.033 71.12V49.456H542.497V52.784C543.873 50.832 545.761 49.104 548.833 49.104C552.801 49.104 556.737 52.24 556.737 57.68V57.744C556.737 63.12 552.833 66.352 548.833 66.352C545.761 66.352 543.777 64.72 542.497 62.832V71.12H540.033ZM548.385 64.144C551.585 64.144 554.209 61.776 554.209 57.776V57.712C554.209 53.776 551.553 51.312 548.385 51.312C545.313 51.312 542.401 53.936 542.401 57.68V57.744C542.401 61.584 545.313 64.144 548.385 64.144ZM561.283 66V42.64H563.747V52.336C564.867 50.544 566.563 49.104 569.411 49.104C573.379 49.104 575.747 51.792 575.747 55.728V66H573.283V56.336C573.283 53.264 571.651 51.344 568.707 51.344C565.859 51.344 563.747 53.424 563.747 56.528V66H561.283ZM588.554 66.384C583.594 66.384 579.978 62.48 579.978 57.808V57.744C579.978 53.04 583.594 49.104 588.618 49.104C593.61 49.104 597.226 53.008 597.226 57.68V57.744C597.226 62.448 593.546 66.384 588.554 66.384ZM588.618 64.176C592.202 64.176 594.698 61.264 594.698 57.808V57.744C594.698 54.192 592.042 51.28 588.554 51.28C584.97 51.28 582.506 54.192 582.506 57.68V57.744C582.506 61.296 585.13 64.176 588.618 64.176ZM607.226 66.288C604.538 66.288 602.554 64.976 602.554 61.616V51.632H600.25V49.456H602.554V44.464H605.018V49.456H610.266V51.632H605.018V61.296C605.018 63.344 606.138 64.048 607.802 64.048C608.666 64.048 609.338 63.888 610.202 63.472V65.584C609.338 66.064 608.41 66.288 607.226 66.288ZM621.71 66.384C616.75 66.384 613.134 62.48 613.134 57.808V57.744C613.134 53.04 616.75 49.104 621.774 49.104C626.766 49.104 630.382 53.008 630.382 57.68V57.744C630.382 62.448 626.702 66.384 621.71 66.384ZM621.774 64.176C625.358 64.176 627.854 61.264 627.854 57.808V57.744C627.854 54.192 625.198 51.28 621.71 51.28C618.126 51.28 615.662 54.192 615.662 57.68V57.744C615.662 61.296 618.286 64.176 621.774 64.176ZM641.086 66V45.936H633.534V43.6H651.166V45.936H643.614V66H641.086ZM651.092 66L661.3 43.44H663.668L673.876 66H671.156L668.532 60.08H656.34L653.684 66H651.092ZM657.332 57.808H667.54L662.452 46.384L657.332 57.808ZM678.293 66V43.6H680.661L694.773 61.552V43.6H697.237V66H695.221L680.757 47.632V66H678.293Z" fill="#638092"/>
</g>
<defs>
<filter id="filter0_d_4_4" x="-4" y="0" width="790" height="114" filterUnits="userSpaceOnUse" color-interpolation-filters="sRGB">
<feFlood flood-opacity="0" result="BackgroundImageFix"/>
<feColorMatrix in="SourceAlpha" type="matrix" values="0 0 0 0 0 0 0 0 0 0 0 0 0 0 0 0 0 0 127 0" result="hardAlpha"/>
<feOffset dy="4"/>
<feGaussianBlur stdDeviation="2"/>
<feComposite in2="hardAlpha" operator="out"/>
<feColorMatrix type="matrix" values="0 0 0 0 0 0 0 0 0 0 0 0 0 0 0 0 0 0 0.25 0"/>
<feBlend mode="normal" in2="BackgroundImageFix" result="effect1_dropShadow_4_4"/>
<feBlend mode="normal" in="SourceGraphic" in2="effect1_dropShadow_4_4" result="shape"/>
</filter>
</defs>
</svg>
