<svg width="615" height="81" viewBox="0 0 615 81" fill="none" xmlns="http://www.w3.org/2000/svg">
<g clip-path="url(#clip0_3_2)">
<path d="M580.423 -3.33786e-06C578.732 -3.33786e-06 573.705 0.000113964 567.862 7.08308C567.937 7.17255 568.012 7.26201 568.09 7.35437C569.591 5.60239 571.473 3.81002 573.494 2.50542C575.361 1.30472 577.526 0.502264 579.319 0.305996C580.625 0.161681 584.948 0.216504 589.868 0.216504C589.894 0.216504 589.908 0.227969 589.92 0.2424L589.793 0.0288877C589.784 0.00868416 589.767 -3.33786e-06 589.746 -3.33786e-06H580.423Z" fill="url(#paint0_radial_3_2)"/>
<path d="M546.157 0.000198364C546.139 0.000198364 546.119 0.00606537 546.108 0.0262756L527.808 31.6716L522.07 41.5946L521.405 42.7462L521.318 42.8935C521.312 42.905 521.312 42.9252 521.324 42.9482L538.756 73.0928V72.9686C538.377 72.2759 538.106 71.7419 537.961 71.407C537.233 69.759 536.819 67.4789 536.926 65.2622C537.221 59.4261 540.329 53.668 541.893 50.9664C545.558 44.6281 552.644 32.37 552.644 32.37C552.644 32.37 559.733 20.1119 563.399 13.7707C564.96 11.072 568.403 5.50431 573.32 2.33228C575.185 1.12869 577.376 0.349556 579.163 0.15329C580.472 0.00608826 584.82 0.000198364 589.746 0.000198364H546.157Z" fill="url(#paint1_radial_3_2)"/>
<path d="M521.468 43.1878C521.743 43.6669 522.015 44.1403 522.283 44.6021L521.468 43.1878ZM609.156 52.0199C608.09 53.4688 606.32 54.9725 604.343 55.9827C599.13 58.6467 592.585 58.8401 589.463 58.8401H567.952H546.443C543.321 58.8401 536.767 58.6467 531.563 55.9827C529.583 54.9725 527.814 53.4688 526.747 52.0199C526.071 51.0991 524.336 48.1493 522.283 44.6021L526.657 52.1699L543.119 80.6374C543.127 80.6518 543.147 80.6635 543.165 80.6635H592.741C592.756 80.6635 592.776 80.649 592.785 80.6346L614.386 43.2831C612.004 47.4019 609.917 50.9894 609.156 52.0199Z" fill="url(#paint2_radial_3_2)"/>
<path d="M579.163 0.153313C577.376 0.349579 575.185 1.12872 573.32 2.33231C571.262 3.66 569.464 5.40623 567.952 7.18707C570.053 9.66062 571.597 12.1977 572.505 13.7707C576.171 20.1119 583.262 32.3701 583.262 32.3701C583.262 32.3701 590.348 44.6281 594.016 50.9664C595.575 53.668 598.685 59.4262 598.974 65.2623C599.084 67.4789 598.665 69.759 597.945 71.4071C597.439 72.5587 595.43 76.0598 593.097 80.0948L614.585 42.9396C614.585 42.9396 614.588 42.9338 614.588 42.928V42.9049C614.588 42.8992 614.582 42.8905 614.582 42.8905L589.793 0.0291138C589.784 0.00891113 589.767 0.000228882 589.746 0.000228882C584.82 0.000228882 580.472 0.00611115 579.163 0.153313Z" fill="url(#paint3_radial_3_2)"/>
<path d="M22.0434 21.9678C9.78006 21.9678 0 32.0467 0 44.6973C2.31275e-05 57.9194 9.61238 67.0661 21.4652 67.0661C28.2503 67.0661 33.506 64.6387 37.51 60.0668L31.5835 54.0056C29.132 56.6177 26.0474 58.0464 22.0434 58.0464C15.0965 58.0464 10.4074 52.2363 10.4074 44.4809C10.4074 36.9736 15.1977 30.9874 21.8989 30.9874C25.4172 30.9874 28.4064 32.3007 30.8608 34.6675L37.0041 28.3176C33.4048 24.4009 28.0942 21.9678 22.0434 21.9678ZM63.6007 21.9678C50.6031 21.9678 40.8346 32.1275 40.8346 44.6973C40.8346 57.4316 50.0682 67.0661 63.3116 67.0661C76.3093 67.0661 86.0778 56.9092 86.0778 44.3365C86.0778 31.6051 76.8412 21.9678 63.6007 21.9678ZM96.6297 22.6893L92.3656 66.2724H101.4L103.423 42.7491C103.831 38.1772 103.857 33.4408 103.857 33.4408H104.074C104.074 33.4408 105.08 38.2061 106.387 42.5326L113.759 66.2724H122.359L129.731 42.3161C131.038 38.1541 132.044 33.4408 132.044 33.4408H132.188C132.188 33.4408 132.287 38.157 132.694 42.8934L134.646 66.2724H144.258L139.994 22.6893H127.346L120.697 44.2644C119.636 47.7799 118.529 52.2738 118.529 52.2738C118.529 52.2738 117.364 47.7857 116.216 44.1922L109.494 22.6893H96.6297ZM157.484 22.6893L153.292 66.2724H162.326L164.278 42.7491C164.685 38.1772 164.784 33.4408 164.784 33.4408H164.928C164.928 33.4408 166.007 38.2061 167.313 42.5326L174.685 66.2724H183.286L190.585 42.3161C191.895 38.1541 192.898 33.4408 192.898 33.4408H193.043C193.043 33.4408 193.141 38.157 193.549 42.8934L195.5 66.2724H205.185L200.92 22.6893H188.273L181.623 44.2644C180.56 47.7799 179.455 52.2738 179.455 52.2738C179.455 52.2738 178.287 47.7857 177.142 44.1922L170.421 22.6893H157.484ZM215.592 22.6893V66.2724H243.996V57.9021H225.132V48.3773H241.105V40.2236H225.132V30.9874H243.706V22.6893H215.592ZM255.198 22.6893V66.2724H264.738V50.3978H267.701L277.025 66.2724H288.371L277.603 48.7381C283.243 46.6167 286.42 42.2469 286.42 36.6157C286.42 27.801 281.442 22.6893 268.279 22.6893H255.198ZM294.37 22.6893V30.9874H312.005L293.937 59.0566V66.2724H324.364V57.9021H305.862L323.93 29.8329V22.6893H294.37ZM334.193 22.6893V66.2724H350.888C358.656 66.2724 367.294 62.7742 367.294 53.717C367.294 48.0858 363.692 44.273 357.971 43.5428V43.4707C362.466 42.0795 365.271 38.6881 365.271 33.8737C365.271 24.4038 356.907 22.6893 349.298 22.6893H334.193ZM386.013 22.6893L370.474 66.2724H380.014L383.05 57.397H400.034L403.07 66.2724H413.332L397.794 22.6893H386.013ZM419.259 22.6893V66.2724H428.076V45.5632C428.076 41.6436 427.787 37.6259 427.787 37.6259C427.787 37.6259 429.837 41.127 432.124 44.553L446.94 66.2724H455.396V22.6893H446.506V42.4604C446.506 46.38 446.795 50.3256 446.795 50.3256C446.795 50.3256 444.751 46.8274 442.459 43.3985L428.293 22.6893H419.259ZM465.875 22.6893V66.2724H475.343V45.8518L489.292 66.2724H501L484.956 42.8934L499.483 22.6893H488.497L475.343 42.244V22.6893H465.875ZM63.4562 30.8431C70.9755 30.8431 75.815 36.8004 75.815 44.553C75.815 51.8986 71.1374 58.1907 63.4562 58.1907C55.9339 58.1907 51.0974 52.2363 51.0974 44.4809C51.0974 37.1352 55.7721 30.8431 63.4562 30.8431ZM264.738 30.8431H268.641C273.709 30.8431 276.663 32.3729 276.663 36.6157C276.663 40.6969 273.954 42.4604 268.641 42.4604H264.738V30.8431ZM343.661 30.8431H349.154C352.177 30.8431 355.225 31.7956 355.225 35.389C355.224 38.8959 352.617 40.2957 349.587 40.2957H343.661V30.8431ZM391.578 31.4925C391.578 31.4925 392.39 34.4423 393.457 37.6259L397.288 49.1711H385.868L389.699 37.6981C390.763 34.4337 391.578 31.4925 391.578 31.4925ZM343.661 48.3052H350.671C354.918 48.3052 357.682 49.6387 357.682 53.0676C357.682 56.4157 355.493 58.1186 350.671 58.1186H343.661V48.3052Z" fill="white"/>
</g>
<defs>
<radialGradient id="paint0_radial_3_2" cx="0" cy="0" r="1" gradientUnits="userSpaceOnUse" gradientTransform="translate(597.945 71.4054) scale(71.9889 71.8746)">
<stop stop-color="#FEDF33"/>
<stop offset="0.440002" stop-color="#FBB809"/>
<stop offset="0.899994" stop-color="#EE960D"/>
<stop offset="1" stop-color="#E17A10"/>
</radialGradient>
<radialGradient id="paint1_radial_3_2" cx="0" cy="0" r="1" gradientUnits="userSpaceOnUse" gradientTransform="translate(579.146 -0.00150793) scale(72.0423 71.9266)">
<stop stop-color="#FEDF33"/>
<stop offset="0.440002" stop-color="#FBB809"/>
<stop offset="0.899994" stop-color="#EE960D"/>
<stop offset="1" stop-color="#E17A10"/>
</radialGradient>
<radialGradient id="paint2_radial_3_2" cx="0" cy="0" r="1" gradientUnits="userSpaceOnUse" gradientTransform="translate(526.656 52.1695) scale(72.0137 71.898)">
<stop stop-color="#FEDF33"/>
<stop offset="0.440002" stop-color="#FBB809"/>
<stop offset="0.899994" stop-color="#EE960D"/>
<stop offset="1" stop-color="#E17A10"/>
</radialGradient>
<radialGradient id="paint3_radial_3_2" cx="0" cy="0" r="1" gradientUnits="userSpaceOnUse" gradientTransform="translate(597.897 71.6373) scale(72.2155 72.0992)">
<stop stop-color="#FEDF33"/>
<stop offset="0.440002" stop-color="#FBB809"/>
<stop offset="0.899994" stop-color="#EE960D"/>
<stop offset="1" stop-color="#D87301"/>
</radialGradient>
<clipPath id="clip0_3_2">
<rect width="614.588" height="80.6635" fill="white"/>
</clipPath>
</defs>
</svg>
