<svg width="3503" height="891" viewBox="0 0 3503 891" fill="none" xmlns="http://www.w3.org/2000/svg">
<path fill-rule="evenodd" clip-rule="evenodd" d="M2977.47 77C2977.47 79.7614 2975.13 82 2972.23 82C2969.34 82 2967 79.7614 2967 77C2967 74.2386 2969.34 72 2972.23 72C2975.13 72 2977.47 74.2386 2977.47 77ZM3000.73 77C3000.73 79.7614 2998.39 82 2995.5 82C2992.61 82 2990.27 79.7614 2990.27 77C2990.27 74.2386 2992.61 72 2995.5 72C2998.39 72 3000.73 74.2386 3000.73 77ZM3018.77 82C3021.66 82 3024 79.7614 3024 77C3024 74.2386 3021.66 72 3018.77 72C3015.87 72 3013.53 74.2386 3013.53 77C3013.53 79.7614 3015.87 82 3018.77 82Z" fill="#212A33"/>
<path d="M18.568 31.384C11.528 31.384 7.176 26.264 7.176 19.864V19.8C7.176 13.656 11.688 8.216 18.408 8.216C22.184 8.216 24.52 9.304 26.76 11.192L25.128 13.112C23.432 11.608 21.448 10.552 18.312 10.552C13.352 10.552 9.8 14.744 9.8 19.736V19.8C9.8 25.144 13.224 29.112 18.664 29.112C21.224 29.112 23.592 28.12 25.128 26.872V21.304H18.312V19.032H27.56V27.96C25.48 29.848 22.376 31.384 18.568 31.384ZM40.3978 31.384C35.4378 31.384 31.8218 27.48 31.8218 22.808V22.744C31.8218 18.04 35.4378 14.104 40.4618 14.104C45.4538 14.104 49.0698 18.008 49.0698 22.68V22.744C49.0698 27.448 45.3898 31.384 40.3978 31.384ZM40.4618 29.176C44.0458 29.176 46.5417 26.264 46.5417 22.808V22.744C46.5417 19.192 43.8858 16.28 40.3978 16.28C36.8138 16.28 34.3498 19.192 34.3498 22.68V22.744C34.3498 26.296 36.9738 29.176 40.4618 29.176ZM61.0853 31.384C56.1253 31.384 52.5093 27.48 52.5093 22.808V22.744C52.5093 18.04 56.1253 14.104 61.1493 14.104C66.1413 14.104 69.7573 18.008 69.7573 22.68V22.744C69.7573 27.448 66.0773 31.384 61.0853 31.384ZM61.1493 29.176C64.7333 29.176 67.2292 26.264 67.2292 22.808V22.744C67.2292 19.192 64.5733 16.28 61.0853 16.28C57.5013 16.28 55.0373 19.192 55.0373 22.68V22.744C55.0373 26.296 57.6613 29.176 61.1493 29.176ZM81.1648 31.352C77.1968 31.352 73.2608 28.216 73.2608 22.776V22.712C73.2608 17.336 77.1968 14.104 81.1648 14.104C84.2368 14.104 86.2208 15.736 87.5008 17.624V7.64H89.9648V31H87.5008V27.672C86.1248 29.656 84.2368 31.352 81.1648 31.352ZM81.6128 29.144C84.6848 29.144 87.5968 26.552 87.5968 22.744V22.68C87.5968 18.872 84.6848 16.312 81.6128 16.312C78.4128 16.312 75.7888 18.68 75.7888 22.68V22.744C75.7888 26.68 78.4448 29.144 81.6128 29.144ZM105.481 31V8.6H108.041L116.201 20.824L124.361 8.6H126.921V31H124.393V12.856L116.233 24.856H116.105L107.945 12.888V31H105.481ZM140.398 31.384C135.438 31.384 131.822 27.48 131.822 22.808V22.744C131.822 18.04 135.438 14.104 140.462 14.104C145.454 14.104 149.07 18.008 149.07 22.68V22.744C149.07 27.448 145.39 31.384 140.398 31.384ZM140.462 29.176C144.046 29.176 146.542 26.264 146.542 22.808V22.744C146.542 19.192 143.886 16.28 140.398 16.28C136.814 16.28 134.35 19.192 134.35 22.68V22.744C134.35 26.296 136.974 29.176 140.462 29.176ZM153.533 31V14.456H155.997V18.776C157.213 16.024 159.613 14.072 162.749 14.168V16.824H162.557C158.941 16.824 155.997 19.416 155.997 24.408V31H153.533ZM166.502 31V14.456H168.966V17.336C170.086 15.544 171.782 14.104 174.63 14.104C178.598 14.104 180.966 16.792 180.966 20.728V31H178.502V21.336C178.502 18.264 176.87 16.344 173.926 16.344C171.078 16.344 168.966 18.424 168.966 21.528V31H166.502ZM186.285 10.84V8.12H189.101V10.84H186.285ZM186.445 31V14.456H188.909V31H186.445ZM194.627 31V14.456H197.091V17.336C198.211 15.544 199.907 14.104 202.755 14.104C206.723 14.104 209.091 16.792 209.091 20.728V31H206.627V21.336C206.627 18.264 204.995 16.344 202.051 16.344C199.203 16.344 197.091 18.424 197.091 21.528V31H194.627ZM221.674 36.184C218.89 36.184 216.362 35.416 214.154 33.88L215.274 31.96C217.194 33.336 219.242 34.072 221.642 34.072C225.322 34.072 227.658 32.056 227.658 28.184V26.232C226.218 28.152 224.202 29.72 221.162 29.72C217.194 29.72 213.386 26.712 213.386 21.976V21.912C213.386 17.08 217.194 14.104 221.162 14.104C224.266 14.104 226.25 15.64 227.626 17.432V14.456H230.09V28.12C230.09 30.68 229.354 32.6 227.978 33.976C226.474 35.48 224.33 36.184 221.674 36.184ZM221.642 27.544C224.778 27.544 227.722 25.272 227.722 21.944V21.88C227.722 18.488 224.778 16.28 221.642 16.28C218.474 16.28 215.914 18.456 215.914 21.848V21.912C215.914 25.24 218.57 27.544 221.642 27.544ZM245.606 31V8.6H248.166L256.326 20.824L264.486 8.6H267.046V31H264.518V12.856L256.358 24.856H256.23L248.07 12.888V31H245.606ZM277.899 31.352C274.827 31.352 271.723 29.624 271.723 26.2V26.136C271.723 22.68 274.603 20.792 278.795 20.792C280.939 20.792 282.379 21.08 283.883 21.496V20.92C283.883 17.944 282.059 16.408 278.955 16.408C277.003 16.408 275.467 16.888 273.931 17.624L273.195 15.608C275.019 14.744 276.779 14.232 279.211 14.232C281.547 14.232 283.339 14.84 284.555 16.056C285.675 17.176 286.251 18.808 286.251 20.888V31H283.883V28.504C282.731 30.008 280.843 31.352 277.899 31.352ZM278.379 29.4C281.451 29.4 283.915 27.544 283.915 24.92V23.32C282.667 22.968 281.099 22.616 279.051 22.616C275.947 22.616 274.219 23.96 274.219 26.04V26.104C274.219 28.184 276.171 29.4 278.379 29.4ZM291.502 31V14.456H293.966V18.776C295.182 16.024 297.582 14.072 300.718 14.168V16.824H300.526C296.91 16.824 293.966 19.416 293.966 24.408V31H291.502ZM310.007 31.288C307.319 31.288 305.335 29.976 305.335 26.616V16.632H303.031V14.456H305.335V9.464H307.799V14.456H313.047V16.632H307.799V26.296C307.799 28.344 308.919 29.048 310.583 29.048C311.447 29.048 312.119 28.888 312.983 28.472V30.584C312.119 31.064 311.191 31.288 310.007 31.288ZM317.472 10.84V8.12H320.288V10.84H317.472ZM317.632 31V14.456H320.096V31H317.632ZM325.815 31V14.456H328.279V17.336C329.399 15.544 331.095 14.104 333.943 14.104C337.911 14.104 340.279 16.792 340.279 20.728V31H337.815V21.336C337.815 18.264 336.183 16.344 333.239 16.344C330.391 16.344 328.279 18.424 328.279 21.528V31H325.815ZM350.461 31.352C347.389 31.352 344.285 29.624 344.285 26.2V26.136C344.285 22.68 347.165 20.792 351.357 20.792C353.501 20.792 354.941 21.08 356.445 21.496V20.92C356.445 17.944 354.621 16.408 351.517 16.408C349.565 16.408 348.029 16.888 346.493 17.624L345.757 15.608C347.581 14.744 349.341 14.232 351.773 14.232C354.109 14.232 355.901 14.84 357.117 16.056C358.237 17.176 358.813 18.808 358.813 20.888V31H356.445V28.504C355.293 30.008 353.405 31.352 350.461 31.352ZM350.941 29.4C354.013 29.4 356.477 27.544 356.477 24.92V23.32C355.229 22.968 353.661 22.616 351.613 22.616C348.509 22.616 346.781 23.96 346.781 26.04V26.104C346.781 28.184 348.733 29.4 350.941 29.4ZM374.074 31V8.6H376.634L384.794 20.824L392.954 8.6H395.514V31H392.986V12.856L384.826 24.856H384.698L376.538 12.888V31H374.074ZM407.52 31.352C403.552 31.352 401.184 28.664 401.184 24.728V14.456H403.648V24.12C403.648 27.192 405.28 29.112 408.224 29.112C411.04 29.112 413.184 27.032 413.184 23.928V14.456H415.616V31H413.184V28.12C412.064 29.912 410.368 31.352 407.52 31.352ZM426.63 31.32C424.23 31.32 421.67 30.392 419.782 28.888L421.03 27.128C422.822 28.504 424.806 29.24 426.758 29.24C428.774 29.24 430.182 28.248 430.182 26.616V26.552C430.182 24.92 428.23 24.248 426.054 23.64C423.494 22.872 420.582 22.04 420.582 18.968V18.904C420.582 16.056 422.95 14.168 426.214 14.168C428.262 14.168 430.47 14.872 432.166 15.992L431.046 17.848C429.51 16.856 427.782 16.248 426.15 16.248C424.198 16.248 422.95 17.272 422.95 18.648V18.712C422.95 20.28 424.998 20.888 427.206 21.56C429.766 22.328 432.518 23.32 432.518 26.296V26.36C432.518 29.496 429.926 31.32 426.63 31.32ZM442.319 31.288C439.631 31.288 437.647 29.976 437.647 26.616V16.632H435.343V14.456H437.647V9.464H440.111V14.456H445.359V16.632H440.111V26.296C440.111 28.344 441.231 29.048 442.895 29.048C443.759 29.048 444.431 28.888 445.295 28.472V30.584C444.431 31.064 443.503 31.288 442.319 31.288ZM456.484 31.384C451.972 31.384 448.228 27.896 448.228 22.776V22.712C448.228 17.944 451.556 14.104 456.164 14.104C461.06 14.104 463.876 18.008 463.876 22.84C463.876 23.192 463.876 23.352 463.844 23.64H450.724C451.076 27.224 453.604 29.24 456.548 29.24C458.852 29.24 460.388 28.312 461.764 26.904L463.3 28.28C461.636 30.168 459.652 31.384 456.484 31.384ZM450.724 21.816H461.38C461.124 18.84 459.428 16.184 456.1 16.184C453.188 16.184 451.076 18.616 450.724 21.816ZM468.19 31V14.456H470.654V18.776C471.87 16.024 474.27 14.072 477.406 14.168V16.824H477.214C473.598 16.824 470.654 19.416 470.654 24.408V31H468.19ZM481.158 31V14.456H483.622V17.24C484.742 15.576 486.182 14.104 488.966 14.104C491.654 14.104 493.382 15.512 494.278 17.4C495.494 15.576 497.19 14.104 500.102 14.104C503.942 14.104 506.246 16.632 506.246 20.76V31H503.782V21.336C503.782 18.136 502.182 16.344 499.494 16.344C497.03 16.344 494.918 18.2 494.918 21.464V31H492.486V21.272C492.486 18.168 490.886 16.344 488.23 16.344C485.606 16.344 483.622 18.52 483.622 21.56V31H481.158ZM516.43 31.352C513.358 31.352 510.254 29.624 510.254 26.2V26.136C510.254 22.68 513.134 20.792 517.326 20.792C519.47 20.792 520.91 21.08 522.414 21.496V20.92C522.414 17.944 520.59 16.408 517.486 16.408C515.534 16.408 513.998 16.888 512.462 17.624L511.726 15.608C513.55 14.744 515.31 14.232 517.742 14.232C520.078 14.232 521.87 14.84 523.086 16.056C524.206 17.176 524.782 18.808 524.782 20.888V31H522.414V28.504C521.262 30.008 519.374 31.352 516.43 31.352ZM516.91 29.4C519.982 29.4 522.446 27.544 522.446 24.92V23.32C521.198 22.968 519.63 22.616 517.582 22.616C514.478 22.616 512.75 23.96 512.75 26.04V26.104C512.75 28.184 514.702 29.4 516.91 29.4ZM530.097 10.84V8.12H532.913V10.84H530.097ZM530.257 31V14.456H532.721V31H530.257ZM545.672 31.384C541.16 31.384 537.416 27.896 537.416 22.776V22.712C537.416 17.944 540.744 14.104 545.352 14.104C550.248 14.104 553.064 18.008 553.064 22.84C553.064 23.192 553.064 23.352 553.032 23.64H539.911C540.264 27.224 542.792 29.24 545.736 29.24C548.04 29.24 549.576 28.312 550.952 26.904L552.488 28.28C550.824 30.168 548.84 31.384 545.672 31.384ZM539.911 21.816H550.568C550.312 18.84 548.616 16.184 545.288 16.184C542.376 16.184 540.264 18.616 539.911 21.816ZM557.377 31V14.456H559.841V18.776C561.057 16.024 563.457 14.072 566.593 14.168V16.824H566.401C562.785 16.824 559.841 19.416 559.841 24.408V31H557.377Z" fill="#7D8A88"/>
<path d="M20.808 119V83.288H7.176V74.2H44.296V83.288H30.664V119H20.808ZM50.5395 119V72.28H60.2675V89.56C62.5075 86.68 65.4515 84.056 70.3155 84.056C77.7395 84.056 81.9635 88.856 81.9635 96.792V119H72.2355V99.864C72.2355 95.256 70.1235 92.888 66.3475 92.888C62.5715 92.888 60.2675 95.256 60.2675 99.864V119H50.5395ZM106.671 119.768C96.3665 119.768 88.7505 112.536 88.7505 102.04V101.912C88.7505 92.12 95.7265 84.056 105.711 84.056C117.167 84.056 122.415 92.952 122.415 102.68C122.415 103.448 122.351 104.28 122.287 105.24H98.4145C99.3745 109.656 102.447 111.96 106.799 111.96C110.063 111.96 112.367 110.936 115.119 108.44L120.687 113.368C117.423 117.4 112.879 119.768 106.671 119.768ZM98.2865 99.16H112.943C112.367 94.808 109.807 91.864 105.711 91.864C101.615 91.864 99.0545 94.744 98.2865 99.16ZM148.852 119V84.696H158.58V89.56C160.82 86.68 163.764 84.056 168.692 84.056C173.236 84.056 176.564 85.976 178.356 89.496C181.364 85.912 184.948 84.056 189.62 84.056C196.852 84.056 201.204 88.408 201.204 96.664V119H191.476V99.864C191.476 95.256 189.428 92.888 185.78 92.888C182.132 92.888 179.892 95.256 179.892 99.864V119H170.164V99.864C170.164 95.256 168.116 92.888 164.468 92.888C160.82 92.888 158.58 95.256 158.58 99.864V119H148.852ZM226.497 119.768C215.937 119.768 208.001 111.96 208.001 102.04V101.912C208.001 92.056 215.937 84.056 226.625 84.056C237.185 84.056 245.121 91.864 245.121 101.784V101.912C245.121 111.768 237.185 119.768 226.497 119.768ZM226.625 111.384C232.193 111.384 235.521 107.16 235.521 102.04V101.912C235.521 96.856 231.873 92.44 226.497 92.44C220.929 92.44 217.601 96.664 217.601 101.784V101.912C217.601 106.968 221.249 111.384 226.625 111.384ZM264.197 119.64C259.333 119.64 254.085 118.04 249.477 114.456L253.637 108.056C257.413 110.808 261.189 112.152 264.453 112.152C267.269 112.152 268.549 111.128 268.549 109.592V109.464C268.549 107.352 265.221 106.712 261.445 105.496C256.645 104.152 251.205 101.848 251.205 95.192V95.064C251.205 88.088 256.837 84.184 263.749 84.184C268.101 84.184 272.773 85.656 276.549 88.152L272.837 94.872C269.445 92.888 266.053 91.672 263.557 91.672C261.189 91.672 259.973 92.696 259.973 94.04V94.168C259.973 95.96 263.237 97.112 266.949 98.264C271.749 99.8 277.317 102.168 277.317 108.44V108.568C277.317 116.184 271.621 119.64 264.197 119.64ZM295.249 119.576C289.361 119.576 285.265 117.208 285.265 109.272V93.016H281.169V84.696H285.265V75.928H294.993V84.696H303.057V93.016H294.993V107.672C294.993 109.912 296.017 111 298.128 111C299.857 111 301.457 110.616 302.929 109.784V117.592C300.881 118.808 298.513 119.576 295.249 119.576ZM329.607 80.92V72.28H339.847V80.92H329.607ZM329.863 119V84.696H339.591V119H329.863ZM348.727 119V84.696H358.455V89.56C360.695 86.68 363.639 84.056 368.567 84.056C373.111 84.056 376.439 85.976 378.231 89.496C381.239 85.912 384.823 84.056 389.495 84.056C396.727 84.056 401.079 88.408 401.079 96.664V119H391.351V99.864C391.351 95.256 389.303 92.888 385.655 92.888C382.007 92.888 379.767 95.256 379.767 99.864V119H370.039V99.864C370.039 95.256 367.991 92.888 364.343 92.888C360.695 92.888 358.455 95.256 358.455 99.864V119H348.727ZM409.54 129.24V84.696H419.268V89.624C421.635 86.36 424.836 84.056 429.956 84.056C437.956 84.056 445.572 90.328 445.572 101.784V101.912C445.572 113.368 438.083 119.64 429.956 119.64C424.772 119.64 421.572 117.272 419.268 114.52V129.24H409.54ZM427.46 111.384C432.004 111.384 435.844 107.672 435.844 101.912V101.784C435.844 96.088 432.004 92.312 427.46 92.312C422.916 92.312 419.14 96.088 419.14 101.784V101.912C419.14 107.608 422.916 111.384 427.46 111.384ZM469.559 119.768C458.999 119.768 451.063 111.96 451.063 102.04V101.912C451.063 92.056 458.999 84.056 469.687 84.056C480.247 84.056 488.183 91.864 488.183 101.784V101.912C488.183 111.768 480.247 119.768 469.559 119.768ZM469.687 111.384C475.255 111.384 478.583 107.16 478.583 102.04V101.912C478.583 96.856 474.935 92.44 469.559 92.44C463.991 92.44 460.663 96.664 460.663 101.784V101.912C460.663 106.968 464.311 111.384 469.687 111.384ZM495.227 119V84.696H504.955V91.608C506.939 86.936 510.075 83.8 515.899 84.056V94.232H515.387C508.923 94.232 504.955 98.072 504.955 106.328V119H495.227ZM533.561 119.576C527.673 119.576 523.577 117.208 523.577 109.272V93.016H519.481V84.696H523.577V75.928H533.305V84.696H541.369V93.016H533.305V107.672C533.305 109.912 534.329 111 536.441 111C538.169 111 539.769 110.616 541.241 109.784V117.592C539.193 118.808 536.825 119.576 533.561 119.576ZM558.268 119.64C551.804 119.64 546.492 115.992 546.492 109.144V109.016C546.492 101.592 552.188 98.072 560.316 98.072C563.836 98.072 566.204 98.648 568.7 99.48V98.904C568.7 94.808 566.204 92.632 561.34 92.632C557.564 92.632 555.004 93.272 551.868 94.488L549.436 87.064C553.212 85.464 556.924 84.312 562.748 84.312C568.124 84.312 571.836 85.656 574.332 88.152C576.892 90.712 578.044 94.488 578.044 99.096V119H568.636V115.288C566.268 117.912 563.068 119.64 558.268 119.64ZM561.212 112.92C565.82 112.92 568.828 110.488 568.828 106.904V105.176C567.1 104.408 564.988 103.896 562.62 103.896C558.46 103.896 555.9 105.56 555.9 108.632V108.76C555.9 111.384 558.076 112.92 561.212 112.92ZM586.415 119V84.696H596.143V89.56C598.383 86.68 601.327 84.056 606.191 84.056C613.615 84.056 617.839 88.856 617.839 96.792V119H608.111V99.864C608.111 95.256 605.999 92.888 602.223 92.888C598.447 92.888 596.143 95.256 596.143 99.864V119H586.415ZM637.874 119.576C631.986 119.576 627.89 117.208 627.89 109.272V93.016H623.794V84.696H627.89V75.928H637.618V84.696H645.682V93.016H637.618V107.672C637.618 109.912 638.642 111 640.753 111C642.482 111 644.082 110.616 645.554 109.784V117.592C643.506 118.808 641.138 119.576 637.874 119.576ZM681.768 119.64C675.304 119.64 669.992 115.992 669.992 109.144V109.016C669.992 101.592 675.688 98.072 683.816 98.072C687.336 98.072 689.704 98.648 692.2 99.48V98.904C692.2 94.808 689.704 92.632 684.84 92.632C681.064 92.632 678.504 93.272 675.368 94.488L672.936 87.064C676.712 85.464 680.424 84.312 686.248 84.312C691.624 84.312 695.336 85.656 697.832 88.152C700.392 90.712 701.544 94.488 701.544 99.096V119H692.136V115.288C689.768 117.912 686.568 119.64 681.768 119.64ZM684.712 112.92C689.32 112.92 692.328 110.488 692.328 106.904V105.176C690.6 104.408 688.488 103.896 686.12 103.896C681.96 103.896 679.4 105.56 679.4 108.632V108.76C679.4 111.384 681.576 112.92 684.712 112.92ZM726.107 119.768C715.803 119.768 708.251 111.768 708.251 102.04V101.912C708.251 92.12 715.739 84.056 726.235 84.056C732.699 84.056 736.667 86.232 739.931 89.816L733.979 96.216C731.739 93.912 729.691 92.44 726.171 92.44C721.307 92.44 717.851 96.664 717.851 101.784V101.912C717.851 107.224 721.243 111.384 726.555 111.384C729.819 111.384 732.059 109.976 734.427 107.736L740.123 113.496C736.795 117.144 732.955 119.768 726.107 119.768ZM758.061 119.576C752.173 119.576 748.077 117.208 748.077 109.272V93.016H743.981V84.696H748.077V75.928H757.805V84.696H765.869V93.016H757.805V107.672C757.805 109.912 758.829 111 760.941 111C762.669 111 764.269 110.616 765.741 109.784V117.592C763.693 118.808 761.325 119.576 758.061 119.576ZM773.232 80.92V72.28H783.472V80.92H773.232ZM773.488 119V84.696H783.216V119H773.488ZM802.784 119.256L789.28 84.696H799.584L807.264 107.672L815.008 84.696H825.12L811.616 119.256H802.784ZM830.919 80.92V72.28H841.159V80.92H830.919ZM831.175 119V84.696H840.903V119H831.175ZM861.624 119.576C855.736 119.576 851.64 117.208 851.64 109.272V93.016H847.544V84.696H851.64V75.928H861.368V84.696H869.432V93.016H861.368V107.672C861.368 109.912 862.392 111 864.503 111C866.232 111 867.832 110.616 869.304 109.784V117.592C867.256 118.808 864.888 119.576 861.624 119.576ZM876.794 80.92V72.28H887.034V80.92H876.794ZM877.05 119V84.696H886.778V119H877.05ZM912.171 119.768C901.867 119.768 894.251 112.536 894.251 102.04V101.912C894.251 92.12 901.227 84.056 911.211 84.056C922.667 84.056 927.915 92.952 927.915 102.68C927.915 103.448 927.851 104.28 927.787 105.24H903.915C904.875 109.656 907.947 111.96 912.299 111.96C915.563 111.96 917.867 110.936 920.619 108.44L926.187 113.368C922.923 117.4 918.379 119.768 912.171 119.768ZM903.787 99.16H918.443C917.867 94.808 915.307 91.864 911.211 91.864C907.115 91.864 904.555 94.744 903.787 99.16ZM947.197 119.64C942.333 119.64 937.085 118.04 932.477 114.456L936.637 108.056C940.413 110.808 944.189 112.152 947.453 112.152C950.269 112.152 951.549 111.128 951.549 109.592V109.464C951.549 107.352 948.221 106.712 944.445 105.496C939.645 104.152 934.205 101.848 934.205 95.192V95.064C934.205 88.088 939.837 84.184 946.749 84.184C951.101 84.184 955.773 85.656 959.549 88.152L955.837 94.872C952.445 92.888 949.053 91.672 946.557 91.672C944.189 91.672 942.973 92.696 942.973 94.04V94.168C942.973 95.96 946.237 97.112 949.949 98.264C954.749 99.8 960.317 102.168 960.317 108.44V108.568C960.317 116.184 954.621 119.64 947.197 119.64ZM996.205 119.64C989.741 119.64 984.429 115.992 984.429 109.144V109.016C984.429 101.592 990.125 98.072 998.253 98.072C1001.77 98.072 1004.14 98.648 1006.64 99.48V98.904C1006.64 94.808 1004.14 92.632 999.277 92.632C995.501 92.632 992.941 93.272 989.805 94.488L987.373 87.064C991.149 85.464 994.861 84.312 1000.69 84.312C1006.06 84.312 1009.77 85.656 1012.27 88.152C1014.83 90.712 1015.98 94.488 1015.98 99.096V119H1006.57V115.288C1004.21 117.912 1001.01 119.64 996.205 119.64ZM999.149 112.92C1003.76 112.92 1006.77 110.488 1006.77 106.904V105.176C1005.04 104.408 1002.93 103.896 1000.56 103.896C996.397 103.896 993.837 105.56 993.837 108.632V108.76C993.837 111.384 996.013 112.92 999.149 112.92ZM1035.62 119.576C1029.74 119.576 1025.64 117.208 1025.64 109.272V93.016H1021.54V84.696H1025.64V75.928H1035.37V84.696H1043.43V93.016H1035.37V107.672C1035.37 109.912 1036.39 111 1038.5 111C1040.23 111 1041.83 110.616 1043.3 109.784V117.592C1041.26 118.808 1038.89 119.576 1035.62 119.576ZM1079.52 119.64C1073.05 119.64 1067.74 115.992 1067.74 109.144V109.016C1067.74 101.592 1073.44 98.072 1081.57 98.072C1085.09 98.072 1087.45 98.648 1089.95 99.48V98.904C1089.95 94.808 1087.45 92.632 1082.59 92.632C1078.81 92.632 1076.25 93.272 1073.12 94.488L1070.69 87.064C1074.46 85.464 1078.17 84.312 1084 84.312C1089.37 84.312 1093.09 85.656 1095.58 88.152C1098.14 90.712 1099.29 94.488 1099.29 99.096V119H1089.89V115.288C1087.52 117.912 1084.32 119.64 1079.52 119.64ZM1082.46 112.92C1087.07 112.92 1090.08 110.488 1090.08 106.904V105.176C1088.35 104.408 1086.24 103.896 1083.87 103.896C1079.71 103.896 1077.15 105.56 1077.15 108.632V108.76C1077.15 111.384 1079.33 112.92 1082.46 112.92ZM1142.21 129.368C1136.58 129.368 1131.4 128.088 1127.04 125.784L1130.37 118.488C1133.96 120.472 1137.35 121.624 1141.96 121.624C1148.61 121.624 1151.75 118.424 1151.75 112.28V110.616C1148.87 114.136 1145.73 116.184 1140.55 116.184C1132.55 116.184 1125.32 110.424 1125.32 100.184V100.056C1125.32 89.816 1132.68 84.056 1140.55 84.056C1145.86 84.056 1149 86.296 1151.62 89.176V84.696H1161.35V111.256C1161.35 117.336 1159.88 121.88 1157 124.76C1153.73 128.024 1148.87 129.368 1142.21 129.368ZM1143.36 108.12C1148.16 108.12 1151.75 104.856 1151.75 100.184V100.056C1151.75 95.384 1148.16 92.12 1143.36 92.12C1138.63 92.12 1135.04 95.384 1135.04 100.056V100.184C1135.04 104.984 1138.56 108.12 1143.36 108.12ZM1170.49 119V72.28H1180.22V119H1170.49ZM1199.08 119.64C1192.62 119.64 1187.3 115.992 1187.3 109.144V109.016C1187.3 101.592 1193 98.072 1201.13 98.072C1204.65 98.072 1207.02 98.648 1209.51 99.48V98.904C1209.51 94.808 1207.02 92.632 1202.15 92.632C1198.38 92.632 1195.82 93.272 1192.68 94.488L1190.25 87.064C1194.02 85.464 1197.74 84.312 1203.56 84.312C1208.94 84.312 1212.65 85.656 1215.14 88.152C1217.7 90.712 1218.86 94.488 1218.86 99.096V119H1209.45V115.288C1207.08 117.912 1203.88 119.64 1199.08 119.64ZM1202.02 112.92C1206.63 112.92 1209.64 110.488 1209.64 106.904V105.176C1207.91 104.408 1205.8 103.896 1203.43 103.896C1199.27 103.896 1196.71 105.56 1196.71 108.632V108.76C1196.71 111.384 1198.89 112.92 1202.02 112.92ZM1227.23 119V84.696H1236.96V89.56C1239.2 86.68 1242.14 84.056 1247 84.056C1254.43 84.056 1258.65 88.856 1258.65 96.792V119H1248.92V99.864C1248.92 95.256 1246.81 92.888 1243.04 92.888C1239.26 92.888 1236.96 95.256 1236.96 99.864V119H1227.23ZM1283.29 119.768C1272.99 119.768 1265.44 111.768 1265.44 102.04V101.912C1265.44 92.12 1272.93 84.056 1283.42 84.056C1289.89 84.056 1293.85 86.232 1297.12 89.816L1291.17 96.216C1288.93 93.912 1286.88 92.44 1283.36 92.44C1278.49 92.44 1275.04 96.664 1275.04 101.784V101.912C1275.04 107.224 1278.43 111.384 1283.74 111.384C1287.01 111.384 1289.25 109.976 1291.61 107.736L1297.31 113.496C1293.98 117.144 1290.14 119.768 1283.29 119.768ZM1318.98 119.768C1308.68 119.768 1301.06 112.536 1301.06 102.04V101.912C1301.06 92.12 1308.04 84.056 1318.02 84.056C1329.48 84.056 1334.73 92.952 1334.73 102.68C1334.73 103.448 1334.66 104.28 1334.6 105.24H1310.73C1311.69 109.656 1314.76 111.96 1319.11 111.96C1322.38 111.96 1324.68 110.936 1327.43 108.44L1333 113.368C1329.74 117.4 1325.19 119.768 1318.98 119.768ZM1310.6 99.16H1325.26C1324.68 94.808 1322.12 91.864 1318.02 91.864C1313.93 91.864 1311.37 94.744 1310.6 99.16Z" fill="#212A33"/>
<path d="M2658.88 89V66.68H2650.36V61H2673.56V66.68H2665.04V89H2658.88ZM2683.96 89.48C2677.36 89.48 2672.4 84.6 2672.4 78.4V78.32C2672.4 72.16 2677.36 67.16 2684.04 67.16C2690.64 67.16 2695.6 72.04 2695.6 78.24V78.32C2695.6 84.48 2690.64 89.48 2683.96 89.48ZM2684.04 84.24C2687.52 84.24 2689.6 81.6 2689.6 78.4V78.32C2689.6 75.16 2687.32 72.4 2683.96 72.4C2680.48 72.4 2678.4 75.04 2678.4 78.24V78.32C2678.4 81.48 2680.68 84.24 2684.04 84.24ZM2700 95.4V67.56H2706.08V70.64C2707.56 68.6 2709.56 67.16 2712.76 67.16C2717.76 67.16 2722.52 71.08 2722.52 78.24V78.32C2722.52 85.48 2717.84 89.4 2712.76 89.4C2709.52 89.4 2707.52 87.92 2706.08 86.2V95.4H2700ZM2711.2 84.24C2714.04 84.24 2716.44 81.92 2716.44 78.32V78.24C2716.44 74.68 2714.04 72.32 2711.2 72.32C2708.36 72.32 2706 74.68 2706 78.24V78.32C2706 81.88 2708.36 84.24 2711.2 84.24ZM2745.07 89.4C2741.03 89.4 2737.71 87.12 2737.71 82.84V82.76C2737.71 78.12 2741.27 75.92 2746.35 75.92C2748.55 75.92 2750.03 76.28 2751.59 76.8V76.44C2751.59 73.88 2750.03 72.52 2746.99 72.52C2744.63 72.52 2743.03 72.92 2741.07 73.68L2739.55 69.04C2741.91 68.04 2744.23 67.32 2747.87 67.32C2751.23 67.32 2753.55 68.16 2755.11 69.72C2756.71 71.32 2757.43 73.68 2757.43 76.56V89H2751.55V86.68C2750.07 88.32 2748.07 89.4 2745.07 89.4ZM2746.91 85.2C2749.79 85.2 2751.67 83.68 2751.67 81.44V80.36C2750.59 79.88 2749.27 79.56 2747.79 79.56C2745.19 79.56 2743.59 80.6 2743.59 82.52V82.6C2743.59 84.24 2744.95 85.2 2746.91 85.2ZM2772.78 89.48C2766.34 89.48 2761.62 84.48 2761.62 78.4V78.32C2761.62 72.2 2766.3 67.16 2772.86 67.16C2776.9 67.16 2779.38 68.52 2781.42 70.76L2777.7 74.76C2776.3 73.32 2775.02 72.4 2772.82 72.4C2769.78 72.4 2767.62 75.04 2767.62 78.24V78.32C2767.62 81.64 2769.74 84.24 2773.06 84.24C2775.1 84.24 2776.5 83.36 2777.98 81.96L2781.54 85.56C2779.46 87.84 2777.06 89.48 2772.78 89.48ZM2792.75 89.36C2789.07 89.36 2786.51 87.88 2786.51 82.92V72.76H2783.95V67.56H2786.51V62.08H2792.59V67.56H2797.63V72.76H2792.59V81.92C2792.59 83.32 2793.23 84 2794.55 84C2795.63 84 2796.63 83.76 2797.55 83.24V88.12C2796.27 88.88 2794.79 89.36 2792.75 89.36ZM2802.23 65.2V59.8H2808.63V65.2H2802.23ZM2802.39 89V67.56H2808.47V89H2802.39ZM2820.7 89.16L2812.26 67.56H2818.7L2823.5 81.92L2828.34 67.56H2834.66L2826.22 89.16H2820.7ZM2838.29 65.2V59.8H2844.69V65.2H2838.29ZM2838.45 89V67.56H2844.53V89H2838.45ZM2857.48 89.36C2853.8 89.36 2851.24 87.88 2851.24 82.92V72.76H2848.68V67.56H2851.24V62.08H2857.32V67.56H2862.36V72.76H2857.32V81.92C2857.32 83.32 2857.96 84 2859.28 84C2860.36 84 2861.36 83.76 2862.28 83.24V88.12C2861 88.88 2859.52 89.36 2857.48 89.36ZM2866.96 65.2V59.8H2873.36V65.2H2866.96ZM2867.12 89V67.56H2873.2V89H2867.12ZM2889.07 89.48C2882.63 89.48 2877.87 84.96 2877.87 78.4V78.32C2877.87 72.2 2882.23 67.16 2888.47 67.16C2895.63 67.16 2898.91 72.72 2898.91 78.8C2898.91 79.28 2898.87 79.8 2898.83 80.4H2883.91C2884.51 83.16 2886.43 84.6 2889.15 84.6C2891.19 84.6 2892.63 83.96 2894.35 82.4L2897.83 85.48C2895.79 88 2892.95 89.48 2889.07 89.48ZM2883.83 76.6H2892.99C2892.63 73.88 2891.03 72.04 2888.47 72.04C2885.91 72.04 2884.31 73.84 2883.83 76.6ZM2910.96 89.4C2907.92 89.4 2904.64 88.4 2901.76 86.16L2904.36 82.16C2906.72 83.88 2909.08 84.72 2911.12 84.72C2912.88 84.72 2913.68 84.08 2913.68 83.12V83.04C2913.68 81.72 2911.6 81.32 2909.24 80.56C2906.24 79.72 2902.84 78.28 2902.84 74.12V74.04C2902.84 69.68 2906.36 67.24 2910.68 67.24C2913.4 67.24 2916.32 68.16 2918.68 69.72L2916.36 73.92C2914.24 72.68 2912.12 71.92 2910.56 71.92C2909.08 71.92 2908.32 72.56 2908.32 73.4V73.48C2908.32 74.6 2910.36 75.32 2912.68 76.04C2915.68 77 2919.16 78.48 2919.16 82.4V82.48C2919.16 87.24 2915.6 89.4 2910.96 89.4Z" fill="#212A33"/>
<rect x="3103" y="20" width="400" height="99" rx="40" fill="#F3DA2A"/>
<path d="M3245.84 82.48C3237.12 82.48 3231.12 76.4 3231.12 68.08V68C3231.12 60.04 3237.32 53.52 3245.8 53.52C3250.8 53.52 3253.92 54.88 3256.8 57.36L3252.92 62.04C3250.8 60.24 3248.8 59.2 3245.6 59.2C3241.12 59.2 3237.56 63.16 3237.56 67.92V68C3237.56 73.12 3241.08 76.88 3246.04 76.88C3248.32 76.88 3250.28 76.32 3251.84 75.2V71.2H3245.64V65.88H3257.8V78.04C3254.92 80.48 3250.96 82.48 3245.84 82.48ZM3263.73 82V54H3275.17C3281.85 54 3285.89 57.92 3285.89 63.68V63.76C3285.89 70.28 3280.85 73.6 3274.57 73.6H3269.89V82H3263.73ZM3269.89 68.12H3274.77C3277.85 68.12 3279.65 66.28 3279.65 63.88V63.8C3279.65 61.04 3277.73 59.56 3274.65 59.56H3269.89V68.12ZM3290.45 82V54H3301.89C3308.57 54 3312.61 57.92 3312.61 63.68V63.76C3312.61 70.28 3307.57 73.6 3301.29 73.6H3296.61V82H3290.45ZM3296.61 68.12H3301.49C3304.57 68.12 3306.37 66.28 3306.37 63.88V63.8C3306.37 61.04 3304.45 59.56 3301.37 59.56H3296.61V68.12Z" fill="#212A33"/>
<g filter="url(#filter0_d_158_103)">
<rect x="4" y="264" width="1001" height="619" rx="30" fill="#E9F5EB"/>
</g>
<rect x="67" y="464" width="102" height="38" rx="19" fill="#E18F27"/>
<path d="M97.344 488V476.8H99.616L104.864 483.696V476.8H107.296V488H105.2L99.776 480.88V488H97.344ZM109.985 488V476.8H118.433V478.992H112.433V481.264H117.713V483.456H112.433V485.808H118.513V488H109.985ZM123.663 488.08L119.839 476.8H122.479L124.799 484.384L127.311 476.768H129.423L131.935 484.384L134.255 476.8H136.831L133.007 488.08H130.863L128.335 480.752L125.807 488.08H123.663Z" fill="white"/>
<path d="M253.926 835.297L253.926 835.297L253.928 835.296L261.856 827.425L262.114 827.168H261.75H233.929C232.389 827.168 231.15 825.968 231.15 824.5C231.15 823.032 232.389 821.832 233.929 821.832H261.75H262.114L261.856 821.575L253.928 813.705L253.928 813.704L253.926 813.703C252.844 812.661 252.844 810.975 253.926 809.934C255.012 808.889 256.774 808.889 257.86 809.934L271.038 822.615C272.121 823.657 272.121 825.343 271.038 826.385L257.86 839.067C256.774 840.111 255.012 840.111 253.926 839.067C252.844 838.025 252.844 836.339 253.926 835.297Z" fill="#212A33" stroke="black" stroke-width="0.3"/>
<path d="M74.12 559V537.04L69.24 538.24L67.96 533.2L76 530.8H80.2V559H74.12ZM85.835 559V554.12L95.155 546.48C98.675 543.6 99.995 542.08 99.995 539.76C99.995 537.36 98.475 536.12 96.235 536.12C94.035 536.12 92.595 537.32 90.515 539.88L86.195 536.4C88.955 532.68 91.635 530.6 96.635 530.6C102.395 530.6 106.275 534 106.275 539.24V539.32C106.275 544.04 103.875 546.28 98.915 550.16L94.355 553.68H106.555V559H85.835ZM123.509 559V537.56H129.589V540.6C130.989 538.8 132.829 537.16 135.869 537.16C140.509 537.16 143.149 540.16 143.149 545.12V559H137.069V547.04C137.069 544.16 135.749 542.68 133.389 542.68C131.029 542.68 129.589 544.16 129.589 547.04V559H123.509ZM158.591 559.48C152.151 559.48 147.391 554.96 147.391 548.4V548.32C147.391 542.2 151.751 537.16 157.991 537.16C165.151 537.16 168.431 542.72 168.431 548.8C168.431 549.28 168.391 549.8 168.351 550.4H153.431C154.031 553.16 155.951 554.6 158.671 554.6C160.711 554.6 162.151 553.96 163.871 552.4L167.351 555.48C165.311 558 162.471 559.48 158.591 559.48ZM153.351 546.6H162.511C162.151 543.88 160.551 542.04 157.991 542.04C155.431 542.04 153.831 543.84 153.351 546.6ZM176.787 559.16L170.187 537.56H176.347L179.787 550.56L183.827 537.48H189.067L193.147 550.6L196.667 537.56H202.707L196.027 559.16H190.547L186.427 546L182.227 559.16H176.787ZM228.912 559.48C222.312 559.48 217.352 554.6 217.352 548.4V548.32C217.352 542.16 222.312 537.16 228.992 537.16C235.592 537.16 240.552 542.04 240.552 548.24V548.32C240.552 554.48 235.592 559.48 228.912 559.48ZM228.992 554.24C232.472 554.24 234.552 551.6 234.552 548.4V548.32C234.552 545.16 232.272 542.4 228.912 542.4C225.432 542.4 223.352 545.04 223.352 548.24V548.32C223.352 551.48 225.632 554.24 228.992 554.24ZM244.954 559V537.56H251.034V541.88C252.274 538.96 254.234 537 257.874 537.16V543.52H257.554C253.514 543.52 251.034 545.92 251.034 551.08V559H244.954ZM270.083 559.4C265.083 559.4 260.323 555.48 260.323 548.32V548.24C260.323 541.08 265.003 537.16 270.083 537.16C273.323 537.16 275.323 538.64 276.763 540.36V529.8H282.843V559H276.763V555.92C275.283 557.96 273.283 559.4 270.083 559.4ZM271.643 554.24C274.483 554.24 276.843 551.88 276.843 548.32V548.24C276.843 544.68 274.483 542.32 271.643 542.32C268.803 542.32 266.403 544.64 266.403 548.24V548.32C266.403 551.88 268.803 554.24 271.643 554.24ZM298.435 559.48C291.995 559.48 287.235 554.96 287.235 548.4V548.32C287.235 542.2 291.595 537.16 297.835 537.16C304.995 537.16 308.275 542.72 308.275 548.8C308.275 549.28 308.235 549.8 308.195 550.4H293.275C293.875 553.16 295.795 554.6 298.515 554.6C300.555 554.6 301.995 553.96 303.715 552.4L307.195 555.48C305.155 558 302.315 559.48 298.435 559.48ZM293.195 546.6H302.355C301.995 543.88 300.395 542.04 297.835 542.04C295.275 542.04 293.675 543.84 293.195 546.6ZM312.806 559V537.56H318.886V541.88C320.126 538.96 322.086 537 325.726 537.16V543.52H325.406C321.366 543.52 318.886 545.92 318.886 551.08V559H312.806ZM337.045 559.4C334.005 559.4 330.725 558.4 327.845 556.16L330.445 552.16C332.805 553.88 335.165 554.72 337.205 554.72C338.965 554.72 339.765 554.08 339.765 553.12V553.04C339.765 551.72 337.685 551.32 335.325 550.56C332.325 549.72 328.925 548.28 328.925 544.12V544.04C328.925 539.68 332.445 537.24 336.765 537.24C339.485 537.24 342.405 538.16 344.765 539.72L342.445 543.92C340.325 542.68 338.205 541.92 336.645 541.92C335.165 541.92 334.405 542.56 334.405 543.4V543.48C334.405 544.6 336.445 545.32 338.765 546.04C341.765 547 345.245 548.48 345.245 552.4V552.48C345.245 557.24 341.685 559.4 337.045 559.4ZM362.635 559V542.76H360.115V537.76H362.635V536.4C362.635 534.08 363.195 532.36 364.355 531.2C365.475 530.08 367.115 529.52 369.275 529.52C371.195 529.52 372.475 529.76 373.595 530.12V535.16C372.675 534.84 371.915 534.64 370.835 534.64C369.355 534.64 368.635 535.4 368.635 536.96V537.8H373.555V542.76H368.715V559H362.635ZM386.998 559.48C380.398 559.48 375.438 554.6 375.438 548.4V548.32C375.438 542.16 380.398 537.16 387.078 537.16C393.678 537.16 398.638 542.04 398.638 548.24V548.32C398.638 554.48 393.678 559.48 386.998 559.48ZM387.078 554.24C390.558 554.24 392.638 551.6 392.638 548.4V548.32C392.638 545.16 390.358 542.4 386.998 542.4C383.518 542.4 381.438 545.04 381.438 548.24V548.32C381.438 551.48 383.718 554.24 387.078 554.24ZM403.04 559V537.56H409.12V541.88C410.36 538.96 412.32 537 415.96 537.16V543.52H415.64C411.6 543.52 409.12 545.92 409.12 551.08V559H403.04ZM431.751 559V537.56H437.831V541.88C439.071 538.96 441.031 537 444.671 537.16V543.52H444.351C440.311 543.52 437.831 545.92 437.831 551.08V559H431.751ZM458.044 559.48C451.604 559.48 446.844 554.96 446.844 548.4V548.32C446.844 542.2 451.204 537.16 457.444 537.16C464.604 537.16 467.884 542.72 467.884 548.8C467.884 549.28 467.844 549.8 467.804 550.4H452.884C453.484 553.16 455.404 554.6 458.124 554.6C460.164 554.6 461.604 553.96 463.324 552.4L466.804 555.48C464.764 558 461.924 559.48 458.044 559.48ZM452.804 546.6H461.964C461.604 543.88 460.004 542.04 457.444 542.04C454.884 542.04 453.284 543.84 452.804 546.6ZM472.695 559V529.8H478.775V559H472.695ZM494.646 559.48C488.206 559.48 483.446 554.96 483.446 548.4V548.32C483.446 542.2 487.806 537.16 494.046 537.16C501.206 537.16 504.486 542.72 504.486 548.8C504.486 549.28 504.446 549.8 504.406 550.4H489.486C490.086 553.16 492.006 554.6 494.726 554.6C496.766 554.6 498.206 553.96 499.926 552.4L503.406 555.48C501.366 558 498.526 559.48 494.646 559.48ZM489.406 546.6H498.566C498.206 543.88 496.606 542.04 494.046 542.04C491.486 542.04 489.886 543.84 489.406 546.6ZM515.097 559.4C511.057 559.4 507.737 557.12 507.737 552.84V552.76C507.737 548.12 511.297 545.92 516.377 545.92C518.577 545.92 520.057 546.28 521.617 546.8V546.44C521.617 543.88 520.057 542.52 517.017 542.52C514.657 542.52 513.057 542.92 511.097 543.68L509.577 539.04C511.937 538.04 514.257 537.32 517.897 537.32C521.257 537.32 523.577 538.16 525.137 539.72C526.737 541.32 527.457 543.68 527.457 546.56V559H521.577V556.68C520.097 558.32 518.097 559.4 515.097 559.4ZM516.937 555.2C519.817 555.2 521.697 553.68 521.697 551.44V550.36C520.617 549.88 519.297 549.56 517.817 549.56C515.217 549.56 513.617 550.6 513.617 552.52V552.6C513.617 554.24 514.977 555.2 516.937 555.2ZM540.209 559.4C537.169 559.4 533.889 558.4 531.009 556.16L533.609 552.16C535.969 553.88 538.329 554.72 540.369 554.72C542.129 554.72 542.929 554.08 542.929 553.12V553.04C542.929 551.72 540.849 551.32 538.489 550.56C535.489 549.72 532.089 548.28 532.089 544.12V544.04C532.089 539.68 535.609 537.24 539.929 537.24C542.649 537.24 545.569 538.16 547.929 539.72L545.609 543.92C543.489 542.68 541.369 541.92 539.809 541.92C538.329 541.92 537.569 542.56 537.569 543.4V543.48C537.569 544.6 539.609 545.32 541.929 546.04C544.929 547 548.409 548.48 548.409 552.4V552.48C548.409 557.24 544.849 559.4 540.209 559.4ZM562.927 559.48C556.487 559.48 551.727 554.96 551.727 548.4V548.32C551.727 542.2 556.087 537.16 562.327 537.16C569.487 537.16 572.767 542.72 572.767 548.8C572.767 549.28 572.727 549.8 572.687 550.4H557.767C558.367 553.16 560.287 554.6 563.007 554.6C565.047 554.6 566.487 553.96 568.207 552.4L571.687 555.48C569.647 558 566.807 559.48 562.927 559.48ZM557.687 546.6H566.847C566.487 543.88 564.887 542.04 562.327 542.04C559.767 542.04 558.167 543.84 557.687 546.6Z" fill="#212A33"/>
<path d="M76.024 832.264C71.512 832.264 68.752 829.768 68.752 824.8V815.2H72.448V824.704C72.448 827.464 73.792 828.856 76.072 828.856C78.352 828.856 79.696 827.512 79.696 824.824V815.2H83.392V824.68C83.392 829.768 80.536 832.264 76.024 832.264ZM86.7726 832V819.136H90.4206V820.96C91.2606 819.88 92.3646 818.896 94.1886 818.896C96.9726 818.896 98.5566 820.696 98.5566 823.672V832H94.9086V824.824C94.9086 823.096 94.1166 822.208 92.7006 822.208C91.2846 822.208 90.4206 823.096 90.4206 824.824V832H86.7726ZM101.894 832V814.48H105.542V832H101.894ZM115.28 832.288C111.32 832.288 108.344 829.36 108.344 825.64V825.592C108.344 821.896 111.32 818.896 115.328 818.896C119.288 818.896 122.264 821.824 122.264 825.544V825.592C122.264 829.288 119.288 832.288 115.28 832.288ZM115.328 829.144C117.416 829.144 118.664 827.56 118.664 825.64V825.592C118.664 823.696 117.296 822.04 115.28 822.04C113.192 822.04 111.944 823.624 111.944 825.544V825.592C111.944 827.488 113.312 829.144 115.328 829.144ZM130.977 832.288C127.113 832.288 124.281 829.288 124.281 825.64V825.592C124.281 821.92 127.089 818.896 131.025 818.896C133.449 818.896 134.937 819.712 136.161 821.056L133.929 823.456C133.089 822.592 132.321 822.04 131.001 822.04C129.177 822.04 127.881 823.624 127.881 825.544V825.592C127.881 827.584 129.153 829.144 131.145 829.144C132.369 829.144 133.209 828.616 134.097 827.776L136.233 829.936C134.985 831.304 133.545 832.288 130.977 832.288ZM138.616 832V814.48H142.264V823.816L146.536 819.136H150.904L146.008 824.2L151.072 832H146.848L143.56 826.72L142.264 828.088V832H138.616ZM160.015 832V819.136H163.663V820.96C164.503 819.88 165.607 818.896 167.431 818.896C170.215 818.896 171.799 820.696 171.799 823.672V832H168.151V824.824C168.151 823.096 167.359 822.208 165.943 822.208C164.527 822.208 163.663 823.096 163.663 824.824V832H160.015ZM181.28 832.288C177.32 832.288 174.344 829.36 174.344 825.64V825.592C174.344 821.896 177.32 818.896 181.328 818.896C185.288 818.896 188.264 821.824 188.264 825.544V825.592C188.264 829.288 185.288 832.288 181.28 832.288ZM181.328 829.144C183.416 829.144 184.664 827.56 184.664 825.64V825.592C184.664 823.696 183.296 822.04 181.28 822.04C179.192 822.04 177.944 823.624 177.944 825.544V825.592C177.944 827.488 179.312 829.144 181.328 829.144ZM193.2 832.096L189.24 819.136H192.936L195 826.936L197.424 819.088H200.568L203.016 826.96L205.128 819.136H208.752L204.744 832.096H201.456L198.984 824.2L196.464 832.096H193.2Z" fill="#212A33"/>
<path d="M82.264 636.432C74.344 636.432 69.448 630.672 69.448 623.472V623.4C69.448 616.488 74.524 610.368 82.084 610.368C86.332 610.368 88.96 611.592 91.48 613.716L89.644 615.876C87.736 614.184 85.504 612.996 81.976 612.996C76.396 612.996 72.4 617.712 72.4 623.328V623.4C72.4 629.412 76.252 633.876 82.372 633.876C85.252 633.876 87.916 632.76 89.644 631.356V625.092H81.976V622.536H92.38V632.58C90.04 634.704 86.548 636.432 82.264 636.432ZM98.7945 636V610.8H108.226C113.914 610.8 117.658 613.824 117.658 618.792V618.864C117.658 624.3 113.122 627.108 107.758 627.108H101.638V636H98.7945ZM101.638 624.516H107.866C112.042 624.516 114.778 622.284 114.778 618.972V618.9C114.778 615.3 112.078 613.428 108.01 613.428H101.638V624.516ZM122.841 636V610.8H132.273C137.961 610.8 141.705 613.824 141.705 618.792V618.864C141.705 624.3 137.169 627.108 131.805 627.108H125.685V636H122.841ZM125.685 624.516H131.913C136.089 624.516 138.825 622.284 138.825 618.972V618.9C138.825 615.3 136.125 613.428 132.057 613.428H125.685V624.516Z" fill="#7D8A88"/>
<path d="M131.098 351.773H91.902C89.2603 351.773 86.7267 352.811 84.8587 354.658C82.9907 356.505 81.9412 359.01 81.9412 361.622V391.169C81.9366 392.464 82.1911 393.747 82.6901 394.944C83.189 396.141 83.9225 397.228 84.8484 398.144C85.7743 399.059 86.8742 399.785 88.0848 400.278C89.2953 400.771 90.5927 401.023 91.902 401.018H131.098C133.74 401.018 136.273 399.981 138.141 398.134C140.009 396.287 141.059 393.781 141.059 391.169V361.622C141.051 359.013 139.999 356.512 138.133 354.667C136.266 352.821 133.737 351.781 131.098 351.773ZM136.078 391.169C136.078 392.475 135.554 393.728 134.62 394.652C133.686 395.575 132.419 396.094 131.098 396.094H91.902C91.2462 396.1 90.5955 395.978 89.9883 395.732C89.381 395.487 88.8293 395.125 88.3655 394.666C87.9017 394.208 87.5351 393.662 87.2872 393.062C87.0393 392.461 86.915 391.818 86.9216 391.169V361.622C86.9216 360.316 87.4464 359.064 88.3804 358.14C89.3144 357.217 90.5812 356.698 91.902 356.698H131.098C132.419 356.698 133.686 357.217 134.62 358.14C135.554 359.064 136.078 360.316 136.078 361.622V391.169Z" fill="black"/>
<path d="M143.549 337H79.451C76.1516 337.009 72.99 338.309 70.657 340.616C68.324 342.923 67.0092 346.049 67 349.311V403.481C67 406.746 68.3118 409.877 70.6468 412.186C72.9818 414.495 76.1488 415.792 79.451 415.792V417.663C79.451 419.622 80.2381 421.501 81.6391 422.886C83.0401 424.272 84.9403 425.05 86.9217 425.05H94.0436C96.025 425.05 97.9252 424.272 99.3262 422.886C100.727 421.501 101.514 419.622 101.514 417.663V415.792H121.436V417.663C121.436 419.622 122.223 421.501 123.624 422.886C125.025 424.272 126.925 425.05 128.907 425.05H136.078C138.06 425.05 139.96 424.272 141.361 422.886C142.762 421.501 143.549 419.622 143.549 417.663V415.792C146.851 415.792 150.018 414.495 152.353 412.186C154.688 409.877 156 406.746 156 403.481V349.311C155.991 346.049 154.676 342.923 152.343 340.616C150.01 338.309 146.848 337.009 143.549 337ZM96.5339 417.663C96.5339 418.316 96.2715 418.942 95.8045 419.404C95.3375 419.866 94.7041 420.125 94.0436 420.125H86.9217C86.2612 420.125 85.6278 419.866 85.1608 419.404C84.6938 418.942 84.4314 418.316 84.4314 417.663V415.792H96.5339V417.663ZM138.569 417.663C138.569 418.316 138.306 418.942 137.839 419.404C137.372 419.866 136.739 420.125 136.078 420.125H128.931C128.274 420.115 127.647 419.852 127.182 419.393C126.717 418.933 126.452 418.313 126.441 417.663V415.792H138.593L138.569 417.663ZM151.02 403.481C151.02 405.44 150.233 407.318 148.831 408.704C147.43 410.089 145.53 410.867 143.549 410.867H79.451C77.4697 410.867 75.5695 410.089 74.1685 408.704C72.7675 407.318 71.9804 405.44 71.9804 403.481V349.311C71.9804 347.352 72.7675 345.473 74.1685 344.088C75.5695 342.703 77.4697 341.924 79.451 341.924H143.549C145.53 341.924 147.43 342.703 148.831 344.088C150.233 345.473 151.02 347.352 151.02 349.311V403.481Z" fill="black"/>
<path d="M122.781 373.934H119.743C119.367 372.57 118.639 371.327 117.63 370.325C116.622 369.324 115.367 368.599 113.99 368.221V365.217C113.976 364.578 113.706 363.97 113.239 363.527C112.772 363.084 112.147 362.842 111.5 362.854C110.856 362.853 110.238 363.099 109.773 363.54C109.309 363.98 109.036 364.581 109.01 365.217V368.221C107.628 368.595 106.369 369.319 105.356 370.32C104.342 371.322 103.611 372.567 103.233 373.934H100.194C99.5515 373.959 98.9434 374.23 98.4977 374.689C98.052 375.148 97.8034 375.76 97.8039 376.396C97.7919 377.035 98.0367 377.654 98.4848 378.115C98.9329 378.577 99.5476 378.844 100.194 378.858H103.233C103.611 380.224 104.342 381.47 105.356 382.471C106.369 383.473 107.628 384.196 109.01 384.57V387.624C109.034 388.255 109.309 388.852 109.775 389.285C110.241 389.718 110.861 389.953 111.5 389.938C111.818 389.949 112.134 389.898 112.432 389.788C112.729 389.677 113.002 389.509 113.233 389.294C113.465 389.079 113.651 388.821 113.781 388.534C113.911 388.247 113.982 387.938 113.99 387.624V384.57C115.38 384.212 116.648 383.494 117.663 382.49C118.679 381.486 119.405 380.232 119.768 378.858H122.806C123.127 378.855 123.445 378.788 123.74 378.662C124.035 378.536 124.302 378.353 124.524 378.124C124.747 377.895 124.921 377.624 125.036 377.327C125.152 377.03 125.206 376.714 125.196 376.396C125.202 376.077 125.144 375.76 125.026 375.464C124.907 375.167 124.731 374.897 124.506 374.668C124.282 374.439 124.014 374.256 123.718 374.13C123.422 374.004 123.103 373.937 122.781 373.934ZM111.5 380.089C110.761 380.089 110.039 379.873 109.425 379.467C108.811 379.061 108.332 378.484 108.049 377.809C107.766 377.134 107.692 376.392 107.836 375.675C107.981 374.959 108.336 374.301 108.859 373.784C109.381 373.268 110.047 372.916 110.771 372.773C111.496 372.631 112.247 372.704 112.929 372.984C113.612 373.263 114.195 373.737 114.606 374.344C115.016 374.951 115.235 375.665 115.235 376.396C115.236 376.881 115.14 377.362 114.952 377.81C114.765 378.258 114.49 378.666 114.143 379.009C113.796 379.352 113.384 379.624 112.93 379.809C112.477 379.995 111.991 380.09 111.5 380.089Z" fill="black"/>
<g filter="url(#filter1_d_158_103)">
<rect x="1265" y="262" width="1001" height="619" rx="30" fill="#E9F5EB"/>
</g>
<rect x="1327" y="464" width="102" height="38" rx="19" fill="#E18F27"/>
<path d="M1357.34 488V476.8H1359.62L1364.86 483.696V476.8H1367.3V488H1365.2L1359.78 480.88V488H1357.34ZM1369.98 488V476.8H1378.43V478.992H1372.43V481.264H1377.71V483.456H1372.43V485.808H1378.51V488H1369.98ZM1383.66 488.08L1379.84 476.8H1382.48L1384.8 484.384L1387.31 476.768H1389.42L1391.94 484.384L1394.26 476.8H1396.83L1393.01 488.08H1390.86L1388.34 480.752L1385.81 488.08H1383.66Z" fill="white"/>
<path d="M1513.93 835.297L1513.93 835.297L1513.93 835.296L1521.86 827.425L1522.11 827.168H1521.75H1493.93C1492.39 827.168 1491.15 825.968 1491.15 824.5C1491.15 823.032 1492.39 821.832 1493.93 821.832H1521.75H1522.11L1521.86 821.575L1513.93 813.705L1513.93 813.704L1513.93 813.703C1512.84 812.661 1512.84 810.975 1513.93 809.934C1515.01 808.889 1516.77 808.889 1517.86 809.934L1531.04 822.615C1532.12 823.657 1532.12 825.343 1531.04 826.385L1517.86 839.067C1516.77 840.111 1515.01 840.111 1513.93 839.067C1512.84 838.025 1512.84 836.339 1513.93 835.297Z" fill="#212A33" stroke="black" stroke-width="0.3"/>
<path d="M1339.44 559.48C1334.36 559.48 1330.92 557.52 1328.52 554.64L1332.76 550.6C1334.68 552.8 1336.64 553.96 1339.52 553.96C1341.88 553.96 1343.48 552.64 1343.48 550.56V550.48C1343.48 548.2 1341.48 546.92 1338 546.92H1335.44L1334.48 543L1341.16 536.28H1330.16V531H1349.08V535.64L1342 542.4C1345.8 543.04 1349.52 545 1349.52 550.24V550.32C1349.52 555.6 1345.68 559.48 1339.44 559.48ZM1366.56 559V537.56H1372.64V540.6C1374.04 538.8 1375.88 537.16 1378.92 537.16C1383.56 537.16 1386.2 540.16 1386.2 545.12V559H1380.12V547.04C1380.12 544.16 1378.8 542.68 1376.44 542.68C1374.08 542.68 1372.64 544.16 1372.64 547.04V559H1366.56ZM1401.64 559.48C1395.2 559.48 1390.44 554.96 1390.44 548.4V548.32C1390.44 542.2 1394.8 537.16 1401.04 537.16C1408.2 537.16 1411.48 542.72 1411.48 548.8C1411.48 549.28 1411.44 549.8 1411.4 550.4H1396.48C1397.08 553.16 1399 554.6 1401.72 554.6C1403.76 554.6 1405.2 553.96 1406.92 552.4L1410.4 555.48C1408.36 558 1405.52 559.48 1401.64 559.48ZM1396.4 546.6H1405.56C1405.2 543.88 1403.6 542.04 1401.04 542.04C1398.48 542.04 1396.88 543.84 1396.4 546.6ZM1419.83 559.16L1413.23 537.56H1419.39L1422.83 550.56L1426.87 537.48H1432.11L1436.19 550.6L1439.71 537.56H1445.75L1439.07 559.16H1433.59L1429.47 546L1425.27 559.16H1419.83ZM1467.52 559.4C1463.48 559.4 1460.16 557.12 1460.16 552.84V552.76C1460.16 548.12 1463.72 545.92 1468.8 545.92C1471 545.92 1472.48 546.28 1474.04 546.8V546.44C1474.04 543.88 1472.48 542.52 1469.44 542.52C1467.08 542.52 1465.48 542.92 1463.52 543.68L1462 539.04C1464.36 538.04 1466.68 537.32 1470.32 537.32C1473.68 537.32 1476 538.16 1477.56 539.72C1479.16 541.32 1479.88 543.68 1479.88 546.56V559H1474V556.68C1472.52 558.32 1470.52 559.4 1467.52 559.4ZM1469.36 555.2C1472.24 555.2 1474.12 553.68 1474.12 551.44V550.36C1473.04 549.88 1471.72 549.56 1470.24 549.56C1467.64 549.56 1466.04 550.6 1466.04 552.52V552.6C1466.04 554.24 1467.4 555.2 1469.36 555.2ZM1485.11 565.4V537.56H1491.19V540.64C1492.67 538.6 1494.67 537.16 1497.87 537.16C1502.87 537.16 1507.63 541.08 1507.63 548.24V548.32C1507.63 555.48 1502.95 559.4 1497.87 559.4C1494.63 559.4 1492.63 557.92 1491.19 556.2V565.4H1485.11ZM1496.31 554.24C1499.15 554.24 1501.55 551.92 1501.55 548.32V548.24C1501.55 544.68 1499.15 542.32 1496.31 542.32C1493.47 542.32 1491.11 544.68 1491.11 548.24V548.32C1491.11 551.88 1493.47 554.24 1496.31 554.24ZM1512.1 565.4V537.56H1518.18V540.64C1519.66 538.6 1521.66 537.16 1524.86 537.16C1529.86 537.16 1534.62 541.08 1534.62 548.24V548.32C1534.62 555.48 1529.94 559.4 1524.86 559.4C1521.62 559.4 1519.62 557.92 1518.18 556.2V565.4H1512.1ZM1523.3 554.24C1526.14 554.24 1528.54 551.92 1528.54 548.32V548.24C1528.54 544.68 1526.14 542.32 1523.3 542.32C1520.46 542.32 1518.1 544.68 1518.1 548.24V548.32C1518.1 551.88 1520.46 554.24 1523.3 554.24ZM1539.38 559V529.8H1545.46V559H1539.38ZM1551.29 535.2V529.8H1557.69V535.2H1551.29ZM1551.45 559V537.56H1557.53V559H1551.45ZM1573.36 559.48C1566.92 559.48 1562.2 554.48 1562.2 548.4V548.32C1562.2 542.2 1566.88 537.16 1573.44 537.16C1577.48 537.16 1579.96 538.52 1582 540.76L1578.28 544.76C1576.88 543.32 1575.6 542.4 1573.4 542.4C1570.36 542.4 1568.2 545.04 1568.2 548.24V548.32C1568.2 551.64 1570.32 554.24 1573.64 554.24C1575.68 554.24 1577.08 553.36 1578.56 551.96L1582.12 555.56C1580.04 557.84 1577.64 559.48 1573.36 559.48ZM1592.17 559.4C1588.13 559.4 1584.81 557.12 1584.81 552.84V552.76C1584.81 548.12 1588.37 545.92 1593.45 545.92C1595.65 545.92 1597.13 546.28 1598.69 546.8V546.44C1598.69 543.88 1597.13 542.52 1594.09 542.52C1591.73 542.52 1590.13 542.92 1588.17 543.68L1586.65 539.04C1589.01 538.04 1591.33 537.32 1594.97 537.32C1598.33 537.32 1600.65 538.16 1602.21 539.72C1603.81 541.32 1604.53 543.68 1604.53 546.56V559H1598.65V556.68C1597.17 558.32 1595.17 559.4 1592.17 559.4ZM1594.01 555.2C1596.89 555.2 1598.77 553.68 1598.77 551.44V550.36C1597.69 549.88 1596.37 549.56 1594.89 549.56C1592.29 549.56 1590.69 550.6 1590.69 552.52V552.6C1590.69 554.24 1592.05 555.2 1594.01 555.2ZM1616.8 559.36C1613.12 559.36 1610.56 557.88 1610.56 552.92V542.76H1608V537.56H1610.56V532.08H1616.64V537.56H1621.68V542.76H1616.64V551.92C1616.64 553.32 1617.28 554 1618.6 554C1619.68 554 1620.68 553.76 1621.6 553.24V558.12C1620.32 558.88 1618.84 559.36 1616.8 559.36ZM1626.29 535.2V529.8H1632.69V535.2H1626.29ZM1626.45 559V537.56H1632.53V559H1626.45ZM1648.76 559.48C1642.16 559.48 1637.2 554.6 1637.2 548.4V548.32C1637.2 542.16 1642.16 537.16 1648.84 537.16C1655.44 537.16 1660.4 542.04 1660.4 548.24V548.32C1660.4 554.48 1655.44 559.48 1648.76 559.48ZM1648.84 554.24C1652.32 554.24 1654.4 551.6 1654.4 548.4V548.32C1654.4 545.16 1652.12 542.4 1648.76 542.4C1645.28 542.4 1643.2 545.04 1643.2 548.24V548.32C1643.2 551.48 1645.48 554.24 1648.84 554.24ZM1664.8 559V537.56H1670.88V540.6C1672.28 538.8 1674.12 537.16 1677.16 537.16C1681.8 537.16 1684.44 540.16 1684.44 545.12V559H1678.36V547.04C1678.36 544.16 1677.04 542.68 1674.68 542.68C1672.32 542.68 1670.88 544.16 1670.88 547.04V559H1664.8ZM1697.24 559.4C1694.2 559.4 1690.92 558.4 1688.04 556.16L1690.64 552.16C1693 553.88 1695.36 554.72 1697.4 554.72C1699.16 554.72 1699.96 554.08 1699.96 553.12V553.04C1699.96 551.72 1697.88 551.32 1695.52 550.56C1692.52 549.72 1689.12 548.28 1689.12 544.12V544.04C1689.12 539.68 1692.64 537.24 1696.96 537.24C1699.68 537.24 1702.6 538.16 1704.96 539.72L1702.64 543.92C1700.52 542.68 1698.4 541.92 1696.84 541.92C1695.36 541.92 1694.6 542.56 1694.6 543.4V543.48C1694.6 544.6 1696.64 545.32 1698.96 546.04C1701.96 547 1705.44 548.48 1705.44 552.4V552.48C1705.44 557.24 1701.88 559.4 1697.24 559.4ZM1722.83 559V542.76H1720.31V537.76H1722.83V536.4C1722.83 534.08 1723.39 532.36 1724.55 531.2C1725.67 530.08 1727.31 529.52 1729.47 529.52C1731.39 529.52 1732.67 529.76 1733.79 530.12V535.16C1732.87 534.84 1732.11 534.64 1731.03 534.64C1729.55 534.64 1728.83 535.4 1728.83 536.96V537.8H1733.75V542.76H1728.91V559H1722.83ZM1747.19 559.48C1740.59 559.48 1735.63 554.6 1735.63 548.4V548.32C1735.63 542.16 1740.59 537.16 1747.27 537.16C1753.87 537.16 1758.83 542.04 1758.83 548.24V548.32C1758.83 554.48 1753.87 559.48 1747.19 559.48ZM1747.27 554.24C1750.75 554.24 1752.83 551.6 1752.83 548.4V548.32C1752.83 545.16 1750.55 542.4 1747.19 542.4C1743.71 542.4 1741.63 545.04 1741.63 548.24V548.32C1741.63 551.48 1743.91 554.24 1747.27 554.24ZM1763.24 559V537.56H1769.32V541.88C1770.56 538.96 1772.52 537 1776.16 537.16V543.52H1775.84C1771.8 543.52 1769.32 545.92 1769.32 551.08V559H1763.24ZM1791.95 559V537.56H1798.03V541.88C1799.27 538.96 1801.23 537 1804.87 537.16V543.52H1804.55C1800.51 543.52 1798.03 545.92 1798.03 551.08V559H1791.95ZM1818.24 559.48C1811.8 559.48 1807.04 554.96 1807.04 548.4V548.32C1807.04 542.2 1811.4 537.16 1817.64 537.16C1824.8 537.16 1828.08 542.72 1828.08 548.8C1828.08 549.28 1828.04 549.8 1828 550.4H1813.08C1813.68 553.16 1815.6 554.6 1818.32 554.6C1820.36 554.6 1821.8 553.96 1823.52 552.4L1827 555.48C1824.96 558 1822.12 559.48 1818.24 559.48ZM1813 546.6H1822.16C1821.8 543.88 1820.2 542.04 1817.64 542.04C1815.08 542.04 1813.48 543.84 1813 546.6ZM1832.89 559V529.8H1838.97V559H1832.89ZM1854.84 559.48C1848.4 559.48 1843.64 554.96 1843.64 548.4V548.32C1843.64 542.2 1848 537.16 1854.24 537.16C1861.4 537.16 1864.68 542.72 1864.68 548.8C1864.68 549.28 1864.64 549.8 1864.6 550.4H1849.68C1850.28 553.16 1852.2 554.6 1854.92 554.6C1856.96 554.6 1858.4 553.96 1860.12 552.4L1863.6 555.48C1861.56 558 1858.72 559.48 1854.84 559.48ZM1849.6 546.6H1858.76C1858.4 543.88 1856.8 542.04 1854.24 542.04C1851.68 542.04 1850.08 543.84 1849.6 546.6ZM1875.29 559.4C1871.25 559.4 1867.93 557.12 1867.93 552.84V552.76C1867.93 548.12 1871.49 545.92 1876.57 545.92C1878.77 545.92 1880.25 546.28 1881.81 546.8V546.44C1881.81 543.88 1880.25 542.52 1877.21 542.52C1874.85 542.52 1873.25 542.92 1871.29 543.68L1869.77 539.04C1872.13 538.04 1874.45 537.32 1878.09 537.32C1881.45 537.32 1883.77 538.16 1885.33 539.72C1886.93 541.32 1887.65 543.68 1887.65 546.56V559H1881.77V556.68C1880.29 558.32 1878.29 559.4 1875.29 559.4ZM1877.13 555.2C1880.01 555.2 1881.89 553.68 1881.89 551.44V550.36C1880.81 549.88 1879.49 549.56 1878.01 549.56C1875.41 549.56 1873.81 550.6 1873.81 552.52V552.6C1873.81 554.24 1875.17 555.2 1877.13 555.2ZM1900.4 559.4C1897.36 559.4 1894.08 558.4 1891.2 556.16L1893.8 552.16C1896.16 553.88 1898.52 554.72 1900.56 554.72C1902.32 554.72 1903.12 554.08 1903.12 553.12V553.04C1903.12 551.72 1901.04 551.32 1898.68 550.56C1895.68 549.72 1892.28 548.28 1892.28 544.12V544.04C1892.28 539.68 1895.8 537.24 1900.12 537.24C1902.84 537.24 1905.76 538.16 1908.12 539.72L1905.8 543.92C1903.68 542.68 1901.56 541.92 1900 541.92C1898.52 541.92 1897.76 542.56 1897.76 543.4V543.48C1897.76 544.6 1899.8 545.32 1902.12 546.04C1905.12 547 1908.6 548.48 1908.6 552.4V552.48C1908.6 557.24 1905.04 559.4 1900.4 559.4ZM1923.12 559.48C1916.68 559.48 1911.92 554.96 1911.92 548.4V548.32C1911.92 542.2 1916.28 537.16 1922.52 537.16C1929.68 537.16 1932.96 542.72 1932.96 548.8C1932.96 549.28 1932.92 549.8 1932.88 550.4H1917.96C1918.56 553.16 1920.48 554.6 1923.2 554.6C1925.24 554.6 1926.68 553.96 1928.4 552.4L1931.88 555.48C1929.84 558 1927 559.48 1923.12 559.48ZM1917.88 546.6H1927.04C1926.68 543.88 1925.08 542.04 1922.52 542.04C1919.96 542.04 1918.36 543.84 1917.88 546.6Z" fill="#212A33"/>
<path d="M1336.02 832.264C1331.51 832.264 1328.75 829.768 1328.75 824.8V815.2H1332.45V824.704C1332.45 827.464 1333.79 828.856 1336.07 828.856C1338.35 828.856 1339.7 827.512 1339.7 824.824V815.2H1343.39V824.68C1343.39 829.768 1340.54 832.264 1336.02 832.264ZM1346.77 832V819.136H1350.42V820.96C1351.26 819.88 1352.36 818.896 1354.19 818.896C1356.97 818.896 1358.56 820.696 1358.56 823.672V832H1354.91V824.824C1354.91 823.096 1354.12 822.208 1352.7 822.208C1351.28 822.208 1350.42 823.096 1350.42 824.824V832H1346.77ZM1361.89 832V814.48H1365.54V832H1361.89ZM1375.28 832.288C1371.32 832.288 1368.34 829.36 1368.34 825.64V825.592C1368.34 821.896 1371.32 818.896 1375.33 818.896C1379.29 818.896 1382.26 821.824 1382.26 825.544V825.592C1382.26 829.288 1379.29 832.288 1375.28 832.288ZM1375.33 829.144C1377.42 829.144 1378.66 827.56 1378.66 825.64V825.592C1378.66 823.696 1377.3 822.04 1375.28 822.04C1373.19 822.04 1371.94 823.624 1371.94 825.544V825.592C1371.94 827.488 1373.31 829.144 1375.33 829.144ZM1390.98 832.288C1387.11 832.288 1384.28 829.288 1384.28 825.64V825.592C1384.28 821.92 1387.09 818.896 1391.03 818.896C1393.45 818.896 1394.94 819.712 1396.16 821.056L1393.93 823.456C1393.09 822.592 1392.32 822.04 1391 822.04C1389.18 822.04 1387.88 823.624 1387.88 825.544V825.592C1387.88 827.584 1389.15 829.144 1391.15 829.144C1392.37 829.144 1393.21 828.616 1394.1 827.776L1396.23 829.936C1394.99 831.304 1393.55 832.288 1390.98 832.288ZM1398.62 832V814.48H1402.26V823.816L1406.54 819.136H1410.9L1406.01 824.2L1411.07 832H1406.85L1403.56 826.72L1402.26 828.088V832H1398.62ZM1420.01 832V819.136H1423.66V820.96C1424.5 819.88 1425.61 818.896 1427.43 818.896C1430.21 818.896 1431.8 820.696 1431.8 823.672V832H1428.15V824.824C1428.15 823.096 1427.36 822.208 1425.94 822.208C1424.53 822.208 1423.66 823.096 1423.66 824.824V832H1420.01ZM1441.28 832.288C1437.32 832.288 1434.34 829.36 1434.34 825.64V825.592C1434.34 821.896 1437.32 818.896 1441.33 818.896C1445.29 818.896 1448.26 821.824 1448.26 825.544V825.592C1448.26 829.288 1445.29 832.288 1441.28 832.288ZM1441.33 829.144C1443.42 829.144 1444.66 827.56 1444.66 825.64V825.592C1444.66 823.696 1443.3 822.04 1441.28 822.04C1439.19 822.04 1437.94 823.624 1437.94 825.544V825.592C1437.94 827.488 1439.31 829.144 1441.33 829.144ZM1453.2 832.096L1449.24 819.136H1452.94L1455 826.936L1457.42 819.088H1460.57L1463.02 826.96L1465.13 819.136H1468.75L1464.74 832.096H1461.46L1458.98 824.2L1456.46 832.096H1453.2Z" fill="#212A33"/>
<path d="M1342.26 636.432C1334.6 636.432 1329.45 630.42 1329.45 623.472V623.4C1329.45 616.452 1334.67 610.368 1342.34 610.368C1350 610.368 1355.15 616.38 1355.15 623.328V623.4C1355.15 630.348 1349.93 636.432 1342.26 636.432ZM1342.34 633.804C1348.1 633.804 1352.2 629.196 1352.2 623.472V623.4C1352.2 617.676 1348.02 612.996 1342.26 612.996C1336.5 612.996 1332.4 617.604 1332.4 623.328V623.4C1332.4 629.124 1336.58 633.804 1342.34 633.804ZM1366.91 636.144L1358.85 617.388H1361.91L1368.17 632.832L1374.47 617.388H1377.46L1369.36 636.144H1366.91ZM1388.86 636.432C1383.78 636.432 1379.57 632.508 1379.57 626.748V626.676C1379.57 621.312 1383.31 616.992 1388.5 616.992C1394.01 616.992 1397.17 621.384 1397.17 626.82C1397.17 627.216 1397.17 627.396 1397.14 627.72H1382.38C1382.77 631.752 1385.62 634.02 1388.93 634.02C1391.52 634.02 1393.25 632.976 1394.8 631.392L1396.53 632.94C1394.65 635.064 1392.42 636.432 1388.86 636.432ZM1382.38 625.668H1394.37C1394.08 622.32 1392.17 619.332 1388.43 619.332C1385.15 619.332 1382.77 622.068 1382.38 625.668ZM1402.03 636V617.388H1404.8V622.248C1406.17 619.152 1408.87 616.956 1412.39 617.064V620.052H1412.18C1408.11 620.052 1404.8 622.968 1404.8 628.584V636H1402.03ZM1422.84 636.144L1414.78 617.388H1417.84L1424.1 632.832L1430.4 617.388H1433.39L1425.29 636.144H1422.84ZM1437.82 613.32V610.26H1440.98V613.32H1437.82ZM1438 636V617.388H1440.77V636H1438ZM1455.34 636.432C1450.26 636.432 1446.05 632.508 1446.05 626.748V626.676C1446.05 621.312 1449.79 616.992 1454.98 616.992C1460.49 616.992 1463.65 621.384 1463.65 626.82C1463.65 627.216 1463.65 627.396 1463.62 627.72H1448.86C1449.25 631.752 1452.1 634.02 1455.41 634.02C1458 634.02 1459.73 632.976 1461.28 631.392L1463.01 632.94C1461.13 635.064 1458.9 636.432 1455.34 636.432ZM1448.86 625.668H1460.85C1460.56 622.32 1458.65 619.332 1454.91 619.332C1451.63 619.332 1449.25 622.068 1448.86 625.668ZM1472.52 636.144L1466.01 617.388H1468.96L1473.86 632.328L1478.86 617.316H1481.16L1486.2 632.328L1491.1 617.388H1493.98L1487.43 636.144H1485.02L1480.01 621.456L1474.97 636.144H1472.52Z" fill="#7D8A88"/>
<g filter="url(#filter2_d_158_103)">
<rect x="2498" y="264" width="1001" height="619" rx="30" fill="#E9F5EB"/>
</g>
<rect x="2560.5" y="464.5" width="77" height="37" rx="18.5" stroke="#7D8A88"/>
<path d="M2782.93 835.297L2782.93 835.297L2782.93 835.296L2790.86 827.425L2791.11 827.168H2790.75H2762.93C2761.39 827.168 2760.15 825.968 2760.15 824.5C2760.15 823.032 2761.39 821.832 2762.93 821.832H2790.75H2791.11L2790.86 821.575L2782.93 813.705L2782.93 813.704L2782.93 813.703C2781.84 812.661 2781.84 810.975 2782.93 809.934C2784.01 808.889 2785.77 808.889 2786.86 809.934L2800.04 822.615C2801.12 823.657 2801.12 825.343 2800.04 826.385L2786.86 839.067C2785.77 840.111 2784.01 840.111 2782.93 839.067C2781.84 838.025 2781.84 836.339 2782.93 835.297Z" fill="#212A33" stroke="black" stroke-width="0.3"/>
<path d="M2574.56 559.48C2567.04 559.48 2562.16 553.24 2562.16 545.08V545C2562.16 536.88 2567.16 530.52 2574.64 530.52C2582.04 530.52 2587.04 536.76 2587.04 544.92V545C2587.04 553.12 2582.04 559.48 2574.56 559.48ZM2574.64 553.92C2578.36 553.92 2580.72 550.2 2580.72 545.08V545C2580.72 539.92 2578.24 536.08 2574.56 536.08C2570.88 536.08 2568.48 539.8 2568.48 544.92V545C2568.48 550.12 2570.92 553.92 2574.64 553.92ZM2604.57 559V531H2610.25L2623.37 548.24V531H2629.45V559H2624.21L2610.65 541.2V559H2604.57ZM2646.05 559.48C2639.45 559.48 2634.49 554.6 2634.49 548.4V548.32C2634.49 542.16 2639.45 537.16 2646.13 537.16C2652.73 537.16 2657.69 542.04 2657.69 548.24V548.32C2657.69 554.48 2652.73 559.48 2646.05 559.48ZM2646.13 554.24C2649.61 554.24 2651.69 551.6 2651.69 548.4V548.32C2651.69 545.16 2649.41 542.4 2646.05 542.4C2642.57 542.4 2640.49 545.04 2640.49 548.24V548.32C2640.49 551.48 2642.77 554.24 2646.13 554.24ZM2669.34 559.36C2665.66 559.36 2663.1 557.88 2663.1 552.92V542.76H2660.54V537.56H2663.1V532.08H2669.18V537.56H2674.22V542.76H2669.18V551.92C2669.18 553.32 2669.82 554 2671.13 554C2672.22 554 2673.22 553.76 2674.14 553.24V558.12C2672.86 558.88 2671.38 559.36 2669.34 559.36ZM2678.82 535.2V529.8H2685.22V535.2H2678.82ZM2678.98 559V537.56H2685.06V559H2678.98ZM2691.81 559V542.76H2689.29V537.76H2691.81V536.4C2691.81 534.08 2692.37 532.36 2693.53 531.2C2694.65 530.08 2696.29 529.52 2698.45 529.52C2700.37 529.52 2701.65 529.76 2702.77 530.12V535.16C2701.85 534.84 2701.09 534.64 2700.01 534.64C2698.53 534.64 2697.81 535.4 2697.81 536.96V537.8H2702.73V542.76H2697.89V559H2691.81ZM2706.33 559V537.56H2712.41V559H2706.33ZM2706.17 535.2V529.8H2712.57V535.2H2706.17ZM2728.23 559.48C2721.79 559.48 2717.07 554.48 2717.07 548.4V548.32C2717.07 542.2 2721.75 537.16 2728.31 537.16C2732.35 537.16 2734.83 538.52 2736.87 540.76L2733.15 544.76C2731.75 543.32 2730.47 542.4 2728.27 542.4C2725.23 542.4 2723.07 545.04 2723.07 548.24V548.32C2723.07 551.64 2725.19 554.24 2728.51 554.24C2730.55 554.24 2731.95 553.36 2733.43 551.96L2736.99 555.56C2734.91 557.84 2732.51 559.48 2728.23 559.48ZM2747.04 559.4C2743 559.4 2739.68 557.12 2739.68 552.84V552.76C2739.68 548.12 2743.24 545.92 2748.32 545.92C2750.52 545.92 2752 546.28 2753.56 546.8V546.44C2753.56 543.88 2752 542.52 2748.96 542.52C2746.6 542.52 2745 542.92 2743.04 543.68L2741.52 539.04C2743.88 538.04 2746.2 537.32 2749.84 537.32C2753.2 537.32 2755.52 538.16 2757.08 539.72C2758.68 541.32 2759.4 543.68 2759.4 546.56V559H2753.52V556.68C2752.04 558.32 2750.04 559.4 2747.04 559.4ZM2748.88 555.2C2751.76 555.2 2753.64 553.68 2753.64 551.44V550.36C2752.56 549.88 2751.24 549.56 2749.76 549.56C2747.16 549.56 2745.56 550.6 2745.56 552.52V552.6C2745.56 554.24 2746.92 555.2 2748.88 555.2ZM2771.68 559.36C2768 559.36 2765.44 557.88 2765.44 552.92V542.76H2762.88V537.56H2765.44V532.08H2771.52V537.56H2776.56V542.76H2771.52V551.92C2771.52 553.32 2772.16 554 2773.48 554C2774.56 554 2775.56 553.76 2776.48 553.24V558.12C2775.2 558.88 2773.72 559.36 2771.68 559.36ZM2781.16 535.2V529.8H2787.56V535.2H2781.16ZM2781.32 559V537.56H2787.4V559H2781.32ZM2803.63 559.48C2797.03 559.48 2792.07 554.6 2792.07 548.4V548.32C2792.07 542.16 2797.03 537.16 2803.71 537.16C2810.31 537.16 2815.27 542.04 2815.27 548.24V548.32C2815.27 554.48 2810.31 559.48 2803.63 559.48ZM2803.71 554.24C2807.19 554.24 2809.27 551.6 2809.27 548.4V548.32C2809.27 545.16 2806.99 542.4 2803.63 542.4C2800.15 542.4 2798.07 545.04 2798.07 548.24V548.32C2798.07 551.48 2800.35 554.24 2803.71 554.24ZM2819.67 559V537.56H2825.75V540.6C2827.15 538.8 2828.99 537.16 2832.03 537.16C2836.67 537.16 2839.31 540.16 2839.31 545.12V559H2833.23V547.04C2833.23 544.16 2831.91 542.68 2829.55 542.68C2827.19 542.68 2825.75 544.16 2825.75 547.04V559H2819.67ZM2852.12 559.4C2849.08 559.4 2845.8 558.4 2842.92 556.16L2845.52 552.16C2847.88 553.88 2850.24 554.72 2852.28 554.72C2854.04 554.72 2854.84 554.08 2854.84 553.12V553.04C2854.84 551.72 2852.76 551.32 2850.4 550.56C2847.4 549.72 2844 548.28 2844 544.12V544.04C2844 539.68 2847.52 537.24 2851.84 537.24C2854.56 537.24 2857.48 538.16 2859.84 539.72L2857.52 543.92C2855.4 542.68 2853.28 541.92 2851.72 541.92C2850.24 541.92 2849.48 542.56 2849.48 543.4V543.48C2849.48 544.6 2851.52 545.32 2853.84 546.04C2856.84 547 2860.32 548.48 2860.32 552.4V552.48C2860.32 557.24 2856.76 559.4 2852.12 559.4Z" fill="#212A33"/>
<path d="M2565.93 832V818.608H2560.82V815.2H2574.74V818.608H2569.62V832H2565.93ZM2580.98 832.288C2577.02 832.288 2574.04 829.36 2574.04 825.64V825.592C2574.04 821.896 2577.02 818.896 2581.02 818.896C2584.98 818.896 2587.96 821.824 2587.96 825.544V825.592C2587.96 829.288 2584.98 832.288 2580.98 832.288ZM2581.02 829.144C2583.11 829.144 2584.36 827.56 2584.36 825.64V825.592C2584.36 823.696 2582.99 822.04 2580.98 822.04C2578.89 822.04 2577.64 823.624 2577.64 825.544V825.592C2577.64 827.488 2579.01 829.144 2581.02 829.144ZM2602.14 832.216C2599.93 832.216 2598.4 831.328 2598.4 828.352V822.256H2596.86V819.136H2598.4V815.848H2602.04V819.136H2605.07V822.256H2602.04V827.752C2602.04 828.592 2602.43 829 2603.22 829C2603.87 829 2604.47 828.856 2605.02 828.544V831.472C2604.25 831.928 2603.36 832.216 2602.14 832.216ZM2607.76 832V814.48H2611.41V820.96C2612.25 819.88 2613.35 818.896 2615.17 818.896C2617.96 818.896 2619.54 820.696 2619.54 823.672V832H2615.89V824.824C2615.89 823.096 2615.1 822.208 2613.69 822.208C2612.27 822.208 2611.41 823.096 2611.41 824.824V832H2607.76ZM2628.81 832.288C2624.94 832.288 2622.09 829.576 2622.09 825.64V825.592C2622.09 821.92 2624.7 818.896 2628.45 818.896C2632.74 818.896 2634.71 822.232 2634.71 825.88C2634.71 826.168 2634.69 826.48 2634.66 826.84H2625.71C2626.07 828.496 2627.22 829.36 2628.85 829.36C2630.08 829.36 2630.94 828.976 2631.97 828.04L2634.06 829.888C2632.84 831.4 2631.13 832.288 2628.81 832.288ZM2625.66 824.56H2631.16C2630.94 822.928 2629.98 821.824 2628.45 821.824C2626.91 821.824 2625.95 822.904 2625.66 824.56ZM2644.62 832V819.136H2648.27V820.96C2649.11 819.88 2650.22 818.896 2652.06 818.896C2653.77 818.896 2655.02 819.616 2655.69 820.936C2656.82 819.592 2658.16 818.896 2659.91 818.896C2662.62 818.896 2664.26 820.528 2664.26 823.624V832H2660.61V824.824C2660.61 823.096 2659.84 822.208 2658.47 822.208C2657.1 822.208 2656.26 823.096 2656.26 824.824V832H2652.62V824.824C2652.62 823.096 2651.85 822.208 2650.48 822.208C2649.11 822.208 2648.27 823.096 2648.27 824.824V832H2644.62ZM2671.08 832.24C2668.65 832.24 2666.66 830.872 2666.66 828.304V828.256C2666.66 825.472 2668.8 824.152 2671.84 824.152C2673.16 824.152 2674.05 824.368 2674.99 824.68V824.464C2674.99 822.928 2674.05 822.112 2672.23 822.112C2670.81 822.112 2669.85 822.352 2668.68 822.808L2667.76 820.024C2669.18 819.424 2670.57 818.992 2672.76 818.992C2674.77 818.992 2676.16 819.496 2677.1 820.432C2678.06 821.392 2678.49 822.808 2678.49 824.536V832H2674.96V830.608C2674.08 831.592 2672.88 832.24 2671.08 832.24ZM2672.18 829.72C2673.91 829.72 2675.04 828.808 2675.04 827.464V826.816C2674.39 826.528 2673.6 826.336 2672.71 826.336C2671.15 826.336 2670.19 826.96 2670.19 828.112V828.16C2670.19 829.144 2671 829.72 2672.18 829.72ZM2681.7 817.72V814.48H2685.54V817.72H2681.7ZM2681.8 832V819.136H2685.45V832H2681.8ZM2689.04 832V814.48H2692.69V832H2689.04ZM2703.77 832.24C2701.83 832.24 2700.63 831.352 2699.76 830.32V832H2696.12V814.48H2699.76V820.984C2700.65 819.76 2701.85 818.896 2703.77 818.896C2706.77 818.896 2709.63 821.248 2709.63 825.544V825.592C2709.63 829.888 2706.82 832.24 2703.77 832.24ZM2702.84 829.144C2704.54 829.144 2705.98 827.752 2705.98 825.592V825.544C2705.98 823.408 2704.54 821.992 2702.84 821.992C2701.13 821.992 2699.72 823.408 2699.72 825.544V825.592C2699.72 827.728 2701.13 829.144 2702.84 829.144ZM2718.62 832.288C2714.66 832.288 2711.69 829.36 2711.69 825.64V825.592C2711.69 821.896 2714.66 818.896 2718.67 818.896C2722.63 818.896 2725.61 821.824 2725.61 825.544V825.592C2725.61 829.288 2722.63 832.288 2718.62 832.288ZM2718.67 829.144C2720.76 829.144 2722.01 827.56 2722.01 825.64V825.592C2722.01 823.696 2720.64 822.04 2718.62 822.04C2716.54 822.04 2715.29 823.624 2715.29 825.544V825.592C2715.29 827.488 2716.66 829.144 2718.67 829.144ZM2730.41 819.136L2732.81 822.904L2735.23 819.136H2739.05L2734.7 825.424L2739.24 832H2735.33L2732.73 827.992L2730.14 832H2726.33L2730.84 825.472L2726.49 819.136H2730.41Z" fill="#212A33"/>
<path d="M2563.56 636V610.8H2566.44L2575.62 624.552L2584.8 610.8H2587.68V636H2584.84V615.588L2575.66 629.088H2575.52L2566.34 615.624V636H2563.56ZM2599.89 636.396C2596.44 636.396 2592.95 634.452 2592.95 630.6V630.528C2592.95 626.64 2596.19 624.516 2600.9 624.516C2603.31 624.516 2604.93 624.84 2606.63 625.308V624.66C2606.63 621.312 2604.57 619.584 2601.08 619.584C2598.89 619.584 2597.16 620.124 2595.43 620.952L2594.6 618.684C2596.65 617.712 2598.63 617.136 2601.37 617.136C2604 617.136 2606.01 617.82 2607.38 619.188C2608.64 620.448 2609.29 622.284 2609.29 624.624V636H2606.63V633.192C2605.33 634.884 2603.21 636.396 2599.89 636.396ZM2600.43 634.2C2603.89 634.2 2606.66 632.112 2606.66 629.16V627.36C2605.26 626.964 2603.49 626.568 2601.19 626.568C2597.7 626.568 2595.75 628.08 2595.75 630.42V630.492C2595.75 632.832 2597.95 634.2 2600.43 634.2ZM2615.27 613.32V610.26H2618.44V613.32H2615.27ZM2615.45 636V617.388H2618.22V636H2615.45ZM2624.91 636V609.72H2627.68V636H2624.91ZM2644.01 636.396C2640.56 636.396 2638.32 634.56 2636.88 632.436V636H2634.11V609.72H2636.88V621.132C2638.43 618.936 2640.56 616.992 2644.01 616.992C2648.48 616.992 2652.9 620.52 2652.9 626.64V626.712C2652.9 632.76 2648.51 636.396 2644.01 636.396ZM2643.51 633.912C2647.11 633.912 2650.06 631.248 2650.06 626.748V626.676C2650.06 622.248 2647.07 619.476 2643.51 619.476C2640.05 619.476 2636.78 622.428 2636.78 626.64V626.712C2636.78 631.032 2640.05 633.912 2643.51 633.912ZM2666.51 636.432C2660.93 636.432 2656.87 632.04 2656.87 626.784V626.712C2656.87 621.42 2660.93 616.992 2666.59 616.992C2672.2 616.992 2676.27 621.384 2676.27 626.64V626.712C2676.27 632.004 2672.13 636.432 2666.51 636.432ZM2666.59 633.948C2670.62 633.948 2673.43 630.672 2673.43 626.784V626.712C2673.43 622.716 2670.44 619.44 2666.51 619.44C2662.48 619.44 2659.71 622.716 2659.71 626.64V626.712C2659.71 630.708 2662.66 633.948 2666.59 633.948ZM2681.79 617.388L2687.26 624.66L2692.81 617.388H2695.9L2688.85 626.496L2696.19 636H2692.99L2687.23 628.332L2681.43 636H2678.33L2685.61 626.532L2678.62 617.388H2681.79Z" fill="#7D8A88"/>
<path fill-rule="evenodd" clip-rule="evenodd" d="M2585.71 483C2585.71 485.209 2583.99 487 2581.86 487C2579.73 487 2578 485.209 2578 483C2578 480.791 2579.73 479 2581.86 479C2583.99 479 2585.71 480.791 2585.71 483ZM2602.86 483C2602.86 485.209 2601.13 487 2599 487C2596.87 487 2595.14 485.209 2595.14 483C2595.14 480.791 2596.87 479 2599 479C2601.13 479 2602.86 480.791 2602.86 483ZM2616.14 487C2618.27 487 2620 485.209 2620 483C2620 480.791 2618.27 479 2616.14 479C2614.01 479 2612.29 480.791 2612.29 483C2612.29 485.209 2614.01 487 2616.14 487Z" fill="#7D8A88"/>
<path d="M2637.33 346.5H2570.67C2566.06 346.5 2562.33 349.97 2562.33 354.25V400.75C2562.33 405.03 2566.06 408.5 2570.67 408.5H2637.33C2641.94 408.5 2645.67 405.03 2645.67 400.75V354.25C2645.67 349.97 2641.94 346.5 2637.33 346.5Z" stroke="black" stroke-width="6" stroke-linecap="round" stroke-linejoin="round"/>
<path d="M2645.67 358.125L2608.29 380.212C2607.01 380.962 2605.52 381.36 2604 381.36C2602.48 381.36 2600.99 380.962 2599.71 380.212L2562.33 358.125" stroke="black" stroke-width="6" stroke-linecap="round" stroke-linejoin="round"/>
<path d="M3356.71 80.6761L3356.71 80.6762L3356.71 80.6745L3365.61 71.788L3365.86 71.5319H3365.5H3334.29C3332.55 71.5319 3331.15 70.1699 3331.15 68.5C3331.15 66.8301 3332.55 65.4682 3334.29 65.4682H3365.5H3365.86L3365.61 65.2121L3356.71 56.3256L3356.71 56.3256L3356.71 56.324C3355.49 55.1403 3355.49 53.2233 3356.71 52.0397C3357.93 50.8534 3359.92 50.8534 3361.15 52.0397L3375.93 66.3579C3377.16 67.5415 3377.16 69.4585 3375.93 70.6422L3361.15 84.9604C3359.92 86.1465 3357.93 86.1465 3356.71 84.9604C3355.49 83.7768 3355.49 81.8597 3356.71 80.6761Z" fill="#212A33" stroke="black" stroke-width="0.3"/>
<path d="M1410.71 343H1339.96C1338.1 343 1336.59 344.51 1336.59 346.364C1336.59 348.218 1338.1 349 1339.96 349H1410.71C1415.42 349 1420 353.568 1420 358.298V401.771C1420 406.492 1415.42 411.5 1410.71 411.5H1340.29C1335.58 411.5 1331 406.492 1331 401.771V357.963C1331 356.101 1330.22 354.595 1328.36 354.595C1326.51 354.595 1325 356.101 1325 357.963V401.771C1325 410.209 1331.86 417.065 1340.29 417.065H1410.71C1419.14 417.065 1426 410.209 1426 401.771V358.298C1426 349.856 1419.14 343 1410.71 343ZM1399.4 390.795C1397.35 390.795 1395.7 389.137 1395.7 387.104C1395.7 385.238 1394.19 383.732 1392.33 383.732C1390.47 383.732 1388.97 385.238 1388.97 387.104C1388.97 391.665 1391.94 395.517 1396.03 396.926V398.831C1396.03 400.689 1397.54 402.203 1399.4 402.203C1401.26 402.203 1402.76 400.689 1402.76 398.831V396.926C1406.86 395.517 1409.83 391.665 1409.83 387.104C1409.83 381.343 1405.15 376.664 1399.4 376.664C1397.35 376.664 1395.7 375.005 1395.7 372.969C1395.7 370.928 1397.35 369.269 1399.4 369.269C1401.44 369.269 1403.1 370.928 1403.1 372.969C1403.1 374.827 1404.6 376.337 1406.46 376.337C1408.32 376.337 1409.83 374.827 1409.83 372.969C1409.83 368.4 1406.86 364.556 1402.76 363.143V361.23C1402.76 359.372 1401.26 357.861 1399.4 357.861C1397.54 357.861 1396.03 359.372 1396.03 361.23V363.143C1391.94 364.556 1388.97 368.4 1388.97 372.969C1388.97 378.721 1393.65 383.397 1399.4 383.397C1401.44 383.397 1403.1 385.055 1403.1 387.104C1403.1 389.137 1401.44 390.795 1399.4 390.795ZM1341.83 399.5H1375.5C1377.36 399.5 1378.86 398.78 1378.86 396.926C1378.86 395.072 1377.36 394 1375.5 394H1341.83C1339.97 394 1338.47 395.072 1338.47 396.926C1338.47 398.78 1339.97 399.5 1341.83 399.5ZM1341.5 366H1375.5C1377.36 366 1378.86 365.056 1378.86 363.203C1378.86 361.34 1377.36 360.5 1375.5 360.5H1341.5C1339.64 360.5 1338.47 361.34 1338.47 363.203C1338.47 365.056 1339.64 366 1341.5 366ZM1341.5 383H1375.5C1377.36 383 1378.86 382.098 1378.86 380.236C1378.86 378.377 1377.36 377.5 1375.5 377.5H1341.5C1339.64 377.5 1338.47 378.17 1338.47 380.028C1338.47 381.891 1339.64 383 1341.5 383Z" fill="black"/>
<defs>
<filter id="filter0_d_158_103" x="0" y="264" width="1009" height="627" filterUnits="userSpaceOnUse" color-interpolation-filters="sRGB">
<feFlood flood-opacity="0" result="BackgroundImageFix"/>
<feColorMatrix in="SourceAlpha" type="matrix" values="0 0 0 0 0 0 0 0 0 0 0 0 0 0 0 0 0 0 127 0" result="hardAlpha"/>
<feOffset dy="4"/>
<feGaussianBlur stdDeviation="2"/>
<feComposite in2="hardAlpha" operator="out"/>
<feColorMatrix type="matrix" values="0 0 0 0 0 0 0 0 0 0 0 0 0 0 0 0 0 0 0.25 0"/>
<feBlend mode="normal" in2="BackgroundImageFix" result="effect1_dropShadow_158_103"/>
<feBlend mode="normal" in="SourceGraphic" in2="effect1_dropShadow_158_103" result="shape"/>
</filter>
<filter id="filter1_d_158_103" x="1261" y="262" width="1009" height="627" filterUnits="userSpaceOnUse" color-interpolation-filters="sRGB">
<feFlood flood-opacity="0" result="BackgroundImageFix"/>
<feColorMatrix in="SourceAlpha" type="matrix" values="0 0 0 0 0 0 0 0 0 0 0 0 0 0 0 0 0 0 127 0" result="hardAlpha"/>
<feOffset dy="4"/>
<feGaussianBlur stdDeviation="2"/>
<feComposite in2="hardAlpha" operator="out"/>
<feColorMatrix type="matrix" values="0 0 0 0 0 0 0 0 0 0 0 0 0 0 0 0 0 0 0.25 0"/>
<feBlend mode="normal" in2="BackgroundImageFix" result="effect1_dropShadow_158_103"/>
<feBlend mode="normal" in="SourceGraphic" in2="effect1_dropShadow_158_103" result="shape"/>
</filter>
<filter id="filter2_d_158_103" x="2494" y="264" width="1009" height="627" filterUnits="userSpaceOnUse" color-interpolation-filters="sRGB">
<feFlood flood-opacity="0" result="BackgroundImageFix"/>
<feColorMatrix in="SourceAlpha" type="matrix" values="0 0 0 0 0 0 0 0 0 0 0 0 0 0 0 0 0 0 127 0" result="hardAlpha"/>
<feOffset dy="4"/>
<feGaussianBlur stdDeviation="2"/>
<feComposite in2="hardAlpha" operator="out"/>
<feColorMatrix type="matrix" values="0 0 0 0 0 0 0 0 0 0 0 0 0 0 0 0 0 0 0.25 0"/>
<feBlend mode="normal" in2="BackgroundImageFix" result="effect1_dropShadow_158_103"/>
<feBlend mode="normal" in="SourceGraphic" in2="effect1_dropShadow_158_103" result="shape"/>
</filter>
</defs>
</svg>
