<svg width="741" height="100" viewBox="0 0 741 100" fill="none" xmlns="http://www.w3.org/2000/svg">
<path d="M63.904 34V16.144H57.088V11.6H75.648V16.144H68.832V34H63.904ZM78.7698 34V10.64H83.6338V19.28C84.7538 17.84 86.2258 16.528 88.6578 16.528C92.3698 16.528 94.4818 18.928 94.4818 22.896V34H89.6178V24.432C89.6178 22.128 88.5618 20.944 86.6738 20.944C84.7858 20.944 83.6338 22.128 83.6338 24.432V34H78.7698ZM98.8033 14.96V10.64H103.923V14.96H98.8033ZM98.9313 34V16.848H103.795V34H98.9313ZM114.38 34.32C111.948 34.32 109.324 33.52 107.02 31.728L109.1 28.528C110.988 29.904 112.876 30.576 114.508 30.576C115.916 30.576 116.556 30.064 116.556 29.296V29.232C116.556 28.176 114.892 27.856 113.004 27.248C110.604 26.576 107.884 25.424 107.884 22.096V22.032C107.884 18.544 110.7 16.592 114.156 16.592C116.332 16.592 118.668 17.328 120.556 18.576L118.7 21.936C117.004 20.944 115.308 20.336 114.06 20.336C112.876 20.336 112.268 20.848 112.268 21.52V21.584C112.268 22.48 113.9 23.056 115.756 23.632C118.156 24.4 120.94 25.584 120.94 28.72V28.784C120.94 32.592 118.092 34.32 114.38 34.32ZM134.02 34V16.848H138.884V19.28C140.004 17.84 141.476 16.528 143.94 16.528C146.212 16.528 147.876 17.488 148.772 19.248C150.276 17.456 152.068 16.528 154.404 16.528C158.02 16.528 160.196 18.704 160.196 22.832V34H155.332V24.432C155.332 22.128 154.308 20.944 152.484 20.944C150.66 20.944 149.54 22.128 149.54 24.432V34H144.676V24.432C144.676 22.128 143.652 20.944 141.828 20.944C140.004 20.944 138.884 22.128 138.884 24.432V34H134.02ZM172.842 34.384C167.562 34.384 163.594 30.48 163.594 25.52V25.456C163.594 20.528 167.562 16.528 172.906 16.528C178.186 16.528 182.154 20.432 182.154 25.392V25.456C182.154 30.384 178.186 34.384 172.842 34.384ZM172.906 30.192C175.69 30.192 177.354 28.08 177.354 25.52V25.456C177.354 22.928 175.53 20.72 172.842 20.72C170.058 20.72 168.394 22.832 168.394 25.392V25.456C168.394 27.984 170.218 30.192 172.906 30.192ZM185.676 34V16.848H190.54V19.28C191.66 17.84 193.132 16.528 195.564 16.528C199.276 16.528 201.388 18.928 201.388 22.896V34H196.524V24.432C196.524 22.128 195.468 20.944 193.58 20.944C191.692 20.944 190.54 22.128 190.54 24.432V34H185.676ZM211.406 34.288C208.462 34.288 206.414 33.104 206.414 29.136V21.008H204.366V16.848H206.414V12.464H211.278V16.848H215.31V21.008H211.278V28.336C211.278 29.456 211.79 30 212.845 30C213.71 30 214.51 29.808 215.246 29.392V33.296C214.222 33.904 213.038 34.288 211.406 34.288ZM218.895 34V10.64H223.759V19.28C224.879 17.84 226.351 16.528 228.783 16.528C232.495 16.528 234.607 18.928 234.607 22.896V34H229.743V24.432C229.743 22.128 228.687 20.944 226.799 20.944C224.911 20.944 223.759 22.128 223.759 24.432V34H218.895ZM237.904 39.184L237.488 37.168C239.76 36.944 240.784 35.888 240.624 34H238.64V28.88H243.824V33.2C243.824 37.424 241.712 39.152 237.904 39.184ZM258.414 34V21.008H256.398V17.008H258.414V15.92C258.414 14.064 258.862 12.688 259.79 11.76C260.686 10.864 261.998 10.416 263.726 10.416C265.262 10.416 266.286 10.608 267.182 10.896V14.928C266.446 14.672 265.838 14.512 264.974 14.512C263.79 14.512 263.214 15.12 263.214 16.368V17.04H267.15V21.008H263.278V34H258.414ZM277.905 34.384C272.625 34.384 268.657 30.48 268.657 25.52V25.456C268.657 20.528 272.625 16.528 277.969 16.528C283.249 16.528 287.217 20.432 287.217 25.392V25.456C287.217 30.384 283.249 34.384 277.905 34.384ZM277.969 30.192C280.753 30.192 282.417 28.08 282.417 25.52V25.456C282.417 22.928 280.593 20.72 277.905 20.72C275.121 20.72 273.457 22.832 273.457 25.392V25.456C273.457 27.984 275.281 30.192 277.969 30.192ZM298.835 34.384C293.683 34.384 289.907 30.384 289.907 25.52V25.456C289.907 20.56 293.651 16.528 298.899 16.528C302.131 16.528 304.115 17.616 305.747 19.408L302.771 22.608C301.651 21.456 300.627 20.72 298.867 20.72C296.435 20.72 294.707 22.832 294.707 25.392V25.456C294.707 28.112 296.403 30.192 299.059 30.192C300.691 30.192 301.811 29.488 302.995 28.368L305.843 31.248C304.179 33.072 302.259 34.384 298.835 34.384ZM314.716 34.32C311.004 34.32 308.892 31.92 308.892 27.952V16.848H313.756V26.416C313.756 28.72 314.812 29.904 316.7 29.904C318.588 29.904 319.74 28.72 319.74 26.416V16.848H324.604V34H319.74V31.568C318.62 33.008 317.148 34.32 314.716 34.32ZM334.973 34.32C332.541 34.32 329.917 33.52 327.613 31.728L329.693 28.528C331.581 29.904 333.469 30.576 335.101 30.576C336.509 30.576 337.149 30.064 337.149 29.296V29.232C337.149 28.176 335.485 27.856 333.597 27.248C331.197 26.576 328.477 25.424 328.477 22.096V22.032C328.477 18.544 331.293 16.592 334.749 16.592C336.925 16.592 339.261 17.328 341.149 18.576L339.293 21.936C337.597 20.944 335.901 20.336 334.653 20.336C333.469 20.336 332.861 20.848 332.861 21.52V21.584C332.861 22.48 334.493 23.056 336.349 23.632C338.749 24.4 341.533 25.584 341.533 28.72V28.784C341.533 32.592 338.685 34.32 334.973 34.32ZM363.03 34.384C357.75 34.384 353.782 30.48 353.782 25.52V25.456C353.782 20.528 357.75 16.528 363.094 16.528C368.374 16.528 372.342 20.432 372.342 25.392V25.456C372.342 30.384 368.374 34.384 363.03 34.384ZM363.094 30.192C365.878 30.192 367.542 28.08 367.542 25.52V25.456C367.542 22.928 365.718 20.72 363.03 20.72C360.246 20.72 358.582 22.832 358.582 25.392V25.456C358.582 27.984 360.406 30.192 363.094 30.192ZM375.864 34V16.848H380.728V19.28C381.848 17.84 383.32 16.528 385.752 16.528C389.464 16.528 391.576 18.928 391.576 22.896V34H386.712V24.432C386.712 22.128 385.656 20.944 383.768 20.944C381.88 20.944 380.728 22.128 380.728 24.432V34H375.864ZM405.395 34V16.848H410.259V19.28C411.379 17.84 412.851 16.528 415.315 16.528C417.587 16.528 419.251 17.488 420.147 19.248C421.651 17.456 423.443 16.528 425.779 16.528C429.395 16.528 431.571 18.704 431.571 22.832V34H426.707V24.432C426.707 22.128 425.683 20.944 423.859 20.944C422.035 20.944 420.915 22.128 420.915 24.432V34H416.051V24.432C416.051 22.128 415.027 20.944 413.203 20.944C411.379 20.944 410.259 22.128 410.259 24.432V34H405.395ZM440.665 34.32C437.433 34.32 434.777 32.496 434.777 29.072V29.008C434.777 25.296 437.625 23.536 441.689 23.536C443.449 23.536 444.633 23.824 445.881 24.24V23.952C445.881 21.904 444.633 20.816 442.201 20.816C440.313 20.816 439.033 21.136 437.465 21.744L436.249 18.032C438.137 17.232 439.993 16.656 442.905 16.656C445.593 16.656 447.449 17.328 448.697 18.576C449.977 19.856 450.553 21.744 450.553 24.048V34H445.849V32.144C444.665 33.456 443.065 34.32 440.665 34.32ZM442.137 30.96C444.441 30.96 445.945 29.744 445.945 27.952V27.088C445.081 26.704 444.025 26.448 442.841 26.448C440.761 26.448 439.481 27.28 439.481 28.816V28.88C439.481 30.192 440.569 30.96 442.137 30.96ZM454.739 34V16.848H459.603V19.28C460.723 17.84 462.195 16.528 464.627 16.528C468.339 16.528 470.451 18.928 470.451 22.896V34H465.587V24.432C465.587 22.128 464.531 20.944 462.643 20.944C460.755 20.944 459.603 22.128 459.603 24.432V34H454.739ZM479.54 34.32C476.308 34.32 473.652 32.496 473.652 29.072V29.008C473.652 25.296 476.5 23.536 480.564 23.536C482.324 23.536 483.508 23.824 484.756 24.24V23.952C484.756 21.904 483.508 20.816 481.076 20.816C479.188 20.816 477.908 21.136 476.34 21.744L475.124 18.032C477.012 17.232 478.868 16.656 481.78 16.656C484.468 16.656 486.324 17.328 487.572 18.576C488.852 19.856 489.428 21.744 489.428 24.048V34H484.724V32.144C483.54 33.456 481.94 34.32 479.54 34.32ZM481.012 30.96C483.316 30.96 484.82 29.744 484.82 27.952V27.088C483.956 26.704 482.9 26.448 481.716 26.448C479.636 26.448 478.356 27.28 478.356 28.816V28.88C478.356 30.192 479.444 30.96 481.012 30.96ZM501.294 39.184C498.478 39.184 495.886 38.544 493.71 37.392L495.374 33.744C497.166 34.736 498.862 35.312 501.166 35.312C504.494 35.312 506.062 33.712 506.062 30.64V29.808C504.622 31.568 503.054 32.592 500.462 32.592C496.462 32.592 492.846 29.712 492.846 24.592V24.528C492.846 19.408 496.526 16.528 500.462 16.528C503.118 16.528 504.686 17.648 505.998 19.088V16.848H510.862V30.128C510.862 33.168 510.126 35.44 508.686 36.88C507.054 38.512 504.622 39.184 501.294 39.184ZM501.87 28.56C504.27 28.56 506.062 26.928 506.062 24.592V24.528C506.062 22.192 504.27 20.56 501.87 20.56C499.502 20.56 497.71 22.192 497.71 24.528V24.592C497.71 26.992 499.47 28.56 501.87 28.56ZM515.303 14.96V10.64H520.423V14.96H515.303ZM515.431 34V16.848H520.295V34H515.431ZM524.864 34V16.848H529.728V19.28C530.848 17.84 532.32 16.528 534.752 16.528C538.464 16.528 540.576 18.928 540.576 22.896V34H535.712V24.432C535.712 22.128 534.656 20.944 532.768 20.944C530.88 20.944 529.728 22.128 529.728 24.432V34H524.864ZM552.481 39.184C549.665 39.184 547.073 38.544 544.897 37.392L546.561 33.744C548.353 34.736 550.049 35.312 552.353 35.312C555.681 35.312 557.249 33.712 557.249 30.64V29.808C555.809 31.568 554.241 32.592 551.649 32.592C547.649 32.592 544.033 29.712 544.033 24.592V24.528C544.033 19.408 547.713 16.528 551.649 16.528C554.305 16.528 555.873 17.648 557.185 19.088V16.848H562.049V30.128C562.049 33.168 561.313 35.44 559.873 36.88C558.241 38.512 555.809 39.184 552.481 39.184ZM553.057 28.56C555.457 28.56 557.249 26.928 557.249 24.592V24.528C557.249 22.192 555.457 20.56 553.057 20.56C550.689 20.56 548.897 22.192 548.897 24.528V24.592C548.897 26.992 550.657 28.56 553.057 28.56ZM584.085 34.384C578.933 34.384 575.157 30.384 575.157 25.52V25.456C575.157 20.56 578.901 16.528 584.149 16.528C587.381 16.528 589.365 17.616 590.997 19.408L588.021 22.608C586.901 21.456 585.877 20.72 584.117 20.72C581.685 20.72 579.957 22.832 579.957 25.392V25.456C579.957 28.112 581.653 30.192 584.309 30.192C585.941 30.192 587.061 29.488 588.245 28.368L591.093 31.248C589.429 33.072 587.509 34.384 584.085 34.384ZM602.217 34.384C596.937 34.384 592.969 30.48 592.969 25.52V25.456C592.969 20.528 596.937 16.528 602.281 16.528C607.561 16.528 611.529 20.432 611.529 25.392V25.456C611.529 30.384 607.561 34.384 602.217 34.384ZM602.281 30.192C605.065 30.192 606.729 28.08 606.729 25.52V25.456C606.729 22.928 604.905 20.72 602.217 20.72C599.433 20.72 597.769 22.832 597.769 25.392V25.456C597.769 27.984 599.593 30.192 602.281 30.192ZM615.051 34V16.848H619.915V19.28C621.035 17.84 622.507 16.528 624.939 16.528C628.651 16.528 630.763 18.928 630.763 22.896V34H625.899V24.432C625.899 22.128 624.843 20.944 622.955 20.944C621.067 20.944 619.915 22.128 619.915 24.432V34H615.051ZM641.005 34.32C638.573 34.32 635.949 33.52 633.645 31.728L635.725 28.528C637.613 29.904 639.501 30.576 641.133 30.576C642.541 30.576 643.181 30.064 643.181 29.296V29.232C643.181 28.176 641.517 27.856 639.629 27.248C637.229 26.576 634.509 25.424 634.509 22.096V22.032C634.509 18.544 637.325 16.592 640.781 16.592C642.957 16.592 645.293 17.328 647.181 18.576L645.325 21.936C643.629 20.944 641.933 20.336 640.685 20.336C639.501 20.336 638.893 20.848 638.893 21.52V21.584C638.893 22.48 640.525 23.056 642.381 23.632C644.781 24.4 647.565 25.584 647.565 28.72V28.784C647.565 32.592 644.717 34.32 641.005 34.32ZM656.747 34.32C653.035 34.32 650.923 31.92 650.923 27.952V16.848H655.787V26.416C655.787 28.72 656.843 29.904 658.731 29.904C660.619 29.904 661.771 28.72 661.771 26.416V16.848H666.635V34H661.771V31.568C660.651 33.008 659.179 34.32 656.747 34.32ZM671.213 34V10.64H676.077V34H671.213ZM686.437 34.288C683.493 34.288 681.445 33.104 681.445 29.136V21.008H679.397V16.848H681.445V12.464H686.309V16.848H690.341V21.008H686.309V28.336C686.309 29.456 686.821 30 687.877 30C688.741 30 689.541 29.808 690.277 29.392V33.296C689.253 33.904 688.069 34.288 686.437 34.288ZM694.022 14.96V10.64H699.142V14.96H694.022ZM694.15 34V16.848H699.014V34H694.15ZM703.582 34V16.848H708.446V19.28C709.566 17.84 711.038 16.528 713.47 16.528C717.182 16.528 719.294 18.928 719.294 22.896V34H714.43V24.432C714.43 22.128 713.374 20.944 711.486 20.944C709.598 20.944 708.446 22.128 708.446 24.432V34H703.582ZM731.2 39.184C728.384 39.184 725.792 38.544 723.616 37.392L725.28 33.744C727.072 34.736 728.768 35.312 731.072 35.312C734.4 35.312 735.968 33.712 735.968 30.64V29.808C734.528 31.568 732.96 32.592 730.368 32.592C726.368 32.592 722.752 29.712 722.752 24.592V24.528C722.752 19.408 726.432 16.528 730.368 16.528C733.024 16.528 734.592 17.648 735.904 19.088V16.848H740.768V30.128C740.768 33.168 740.032 35.44 738.592 36.88C736.96 38.512 734.528 39.184 731.2 39.184ZM731.776 28.56C734.176 28.56 735.968 26.928 735.968 24.592V24.528C735.968 22.192 734.176 20.56 731.776 20.56C729.408 20.56 727.616 22.192 727.616 24.528V24.592C727.616 26.992 729.376 28.56 731.776 28.56Z" fill="#212A33"/>
<path d="M17.632 96V89.352L10.648 79.2H12.952L18.616 87.6L24.328 79.2H26.536L19.552 89.328V96H17.632ZM32.2593 96.288C28.5393 96.288 25.8273 93.36 25.8273 89.856V89.808C25.8273 86.28 28.5393 83.328 32.3073 83.328C36.0513 83.328 38.7633 86.256 38.7633 89.76V89.808C38.7633 93.336 36.0033 96.288 32.2593 96.288ZM32.3073 94.632C34.9953 94.632 36.8672 92.448 36.8672 89.856V89.808C36.8672 87.144 34.8753 84.96 32.2593 84.96C29.5713 84.96 27.7233 87.144 27.7233 89.76V89.808C27.7233 92.472 29.6913 94.632 32.3073 94.632ZM46.6709 96.264C43.6949 96.264 41.9189 94.248 41.9189 91.296V83.592H43.7669V90.84C43.7669 93.144 44.9909 94.584 47.1989 94.584C49.3109 94.584 50.9189 93.024 50.9189 90.696V83.592H52.7429V96H50.9189V93.84C50.0789 95.184 48.8069 96.264 46.6709 96.264ZM56.8999 96V83.592H58.7479V86.832C59.6599 84.768 61.4599 83.304 63.8119 83.376V85.368H63.6679C60.9559 85.368 58.7479 87.312 58.7479 91.056V96H56.8999ZM79.4138 96.288C75.7658 96.288 73.0538 93.336 73.0538 89.856V89.808C73.0538 86.28 75.7658 83.328 79.4138 83.328C81.7658 83.328 83.2058 84.288 84.3818 85.536L83.1578 86.832C82.1738 85.8 81.0938 84.96 79.3898 84.96C76.8698 84.96 74.9498 87.072 74.9498 89.76V89.808C74.9498 92.496 76.9178 94.632 79.5098 94.632C81.1178 94.632 82.3178 93.84 83.3018 92.784L84.4778 93.888C83.2298 95.304 81.7418 96.288 79.4138 96.288ZM92.8452 96.288C89.1252 96.288 86.4132 93.36 86.4132 89.856V89.808C86.4132 86.28 89.1252 83.328 92.8932 83.328C96.6372 83.328 99.3492 86.256 99.3492 89.76V89.808C99.3492 93.336 96.5892 96.288 92.8452 96.288ZM92.8932 94.632C95.5812 94.632 97.4532 92.448 97.4532 89.856V89.808C97.4532 87.144 95.4612 84.96 92.8452 84.96C90.1572 84.96 88.3092 87.144 88.3092 89.76V89.808C88.3092 92.472 90.2772 94.632 92.8932 94.632ZM102.697 96V83.592H104.545V85.752C105.385 84.408 106.657 83.328 108.793 83.328C111.769 83.328 113.545 85.344 113.545 88.296V96H111.697V88.752C111.697 86.448 110.473 85.008 108.265 85.008C106.129 85.008 104.545 86.568 104.545 88.896V96H102.697ZM121.59 96.24C119.79 96.24 117.87 95.544 116.454 94.416L117.39 93.096C118.734 94.128 120.222 94.68 121.686 94.68C123.198 94.68 124.254 93.936 124.254 92.712V92.664C124.254 91.44 122.79 90.936 121.158 90.48C119.238 89.904 117.054 89.28 117.054 86.976V86.928C117.054 84.792 118.83 83.376 121.278 83.376C122.814 83.376 124.47 83.904 125.742 84.744L124.902 86.136C123.75 85.392 122.454 84.936 121.23 84.936C119.766 84.936 118.83 85.704 118.83 86.736V86.784C118.83 87.96 120.366 88.416 122.022 88.92C123.942 89.496 126.006 90.24 126.006 92.472V92.52C126.006 94.872 124.062 96.24 121.59 96.24ZM133.999 96.264C131.023 96.264 129.247 94.248 129.247 91.296V83.592H131.095V90.84C131.095 93.144 132.319 94.584 134.527 94.584C136.639 94.584 138.247 93.024 138.247 90.696V83.592H140.071V96H138.247V93.84C137.407 95.184 136.135 96.264 133.999 96.264ZM144.396 96V78.48H146.244V96H144.396ZM154.685 96.216C152.669 96.216 151.181 95.232 151.181 92.712V85.224H149.453V83.592H151.181V79.848H153.029V83.592H156.965V85.224H153.029V92.472C153.029 94.008 153.869 94.536 155.117 94.536C155.765 94.536 156.269 94.416 156.917 94.104V95.688C156.269 96.048 155.573 96.216 154.685 96.216ZM160.284 80.88V78.84H162.396V80.88H160.284ZM160.404 96V83.592H162.252V96H160.404ZM166.541 96V83.592H168.389V85.752C169.229 84.408 170.501 83.328 172.637 83.328C175.613 83.328 177.389 85.344 177.389 88.296V96H175.541V88.752C175.541 86.448 174.317 85.008 172.109 85.008C169.973 85.008 168.389 86.568 168.389 88.896V96H166.541ZM186.826 99.888C184.738 99.888 182.842 99.312 181.186 98.16L182.026 96.72C183.466 97.752 185.002 98.304 186.802 98.304C189.562 98.304 191.314 96.792 191.314 93.888V92.424C190.234 93.864 188.722 95.04 186.442 95.04C183.466 95.04 180.61 92.784 180.61 89.232V89.184C180.61 85.56 183.466 83.328 186.442 83.328C188.77 83.328 190.258 84.48 191.29 85.824V83.592H193.138V93.84C193.138 95.76 192.586 97.2 191.554 98.232C190.426 99.36 188.818 99.888 186.826 99.888ZM186.802 93.408C189.154 93.408 191.362 91.704 191.362 89.208V89.16C191.362 86.616 189.154 84.96 186.802 84.96C184.426 84.96 182.506 86.592 182.506 89.136V89.184C182.506 91.68 184.498 93.408 186.802 93.408ZM209.886 96.288C206.502 96.288 203.694 93.672 203.694 89.832V89.784C203.694 86.208 206.19 83.328 209.646 83.328C213.318 83.328 215.43 86.256 215.43 89.88C215.43 90.144 215.43 90.264 215.406 90.48H205.566C205.83 93.168 207.726 94.68 209.934 94.68C211.662 94.68 212.814 93.984 213.846 92.928L214.998 93.96C213.75 95.376 212.262 96.288 209.886 96.288ZM205.566 89.112H213.558C213.366 86.88 212.094 84.888 209.598 84.888C207.414 84.888 205.83 86.712 205.566 89.112ZM219.115 83.592L222.763 88.44L226.459 83.592H228.523L223.819 89.664L228.715 96H226.579L222.739 90.888L218.875 96H216.811L221.659 89.688L217.003 83.592H219.115ZM231.72 99.84V83.592H233.568V86.088C234.6 84.624 236.016 83.328 238.32 83.328C241.296 83.328 244.248 85.68 244.248 89.76V89.808C244.248 93.84 241.32 96.264 238.32 96.264C236.016 96.264 234.528 95.04 233.568 93.624V99.84H231.72ZM237.984 94.608C240.384 94.608 242.352 92.832 242.352 89.832V89.784C242.352 86.832 240.36 84.984 237.984 84.984C235.68 84.984 233.496 86.952 233.496 89.76V89.808C233.496 92.688 235.68 94.608 237.984 94.608ZM253.082 96.288C249.698 96.288 246.89 93.672 246.89 89.832V89.784C246.89 86.208 249.386 83.328 252.842 83.328C256.514 83.328 258.626 86.256 258.626 89.88C258.626 90.144 258.626 90.264 258.602 90.48H248.762C249.026 93.168 250.922 94.68 253.13 94.68C254.858 94.68 256.01 93.984 257.042 92.928L258.194 93.96C256.946 95.376 255.458 96.288 253.082 96.288ZM248.762 89.112H256.754C256.562 86.88 255.29 84.888 252.794 84.888C250.61 84.888 249.026 86.712 248.762 89.112ZM261.861 96V83.592H263.709V85.752C264.549 84.408 265.821 83.328 267.957 83.328C270.933 83.328 272.709 85.344 272.709 88.296V96H270.861V88.752C270.861 86.448 269.637 85.008 267.429 85.008C265.293 85.008 263.709 86.568 263.709 88.896V96H261.861ZM280.754 96.24C278.954 96.24 277.034 95.544 275.618 94.416L276.554 93.096C277.898 94.128 279.386 94.68 280.85 94.68C282.362 94.68 283.418 93.936 283.418 92.712V92.664C283.418 91.44 281.954 90.936 280.322 90.48C278.402 89.904 276.218 89.28 276.218 86.976V86.928C276.218 84.792 277.994 83.376 280.442 83.376C281.978 83.376 283.634 83.904 284.906 84.744L284.066 86.136C282.914 85.392 281.618 84.936 280.394 84.936C278.93 84.936 277.994 85.704 277.994 86.736V86.784C277.994 87.96 279.53 88.416 281.186 88.92C283.106 89.496 285.17 90.24 285.17 92.472V92.52C285.17 94.872 283.226 96.24 280.754 96.24ZM294.027 96.288C290.643 96.288 287.835 93.672 287.835 89.832V89.784C287.835 86.208 290.331 83.328 293.787 83.328C297.459 83.328 299.571 86.256 299.571 89.88C299.571 90.144 299.571 90.264 299.547 90.48H289.707C289.971 93.168 291.867 94.68 294.075 94.68C295.803 94.68 296.955 93.984 297.987 92.928L299.139 93.96C297.891 95.376 296.403 96.288 294.027 96.288ZM289.707 89.112H297.699C297.507 86.88 296.235 84.888 293.739 84.888C291.555 84.888 289.971 86.712 289.707 89.112ZM306.91 96.24C305.11 96.24 303.19 95.544 301.774 94.416L302.71 93.096C304.054 94.128 305.542 94.68 307.006 94.68C308.518 94.68 309.574 93.936 309.574 92.712V92.664C309.574 91.44 308.11 90.936 306.478 90.48C304.558 89.904 302.374 89.28 302.374 86.976V86.928C302.374 84.792 304.15 83.376 306.598 83.376C308.134 83.376 309.79 83.904 311.062 84.744L310.222 86.136C309.07 85.392 307.774 84.936 306.55 84.936C305.086 84.936 304.15 85.704 304.15 86.736V86.784C304.15 87.96 305.686 88.416 307.342 88.92C309.262 89.496 311.326 90.24 311.326 92.472V92.52C311.326 94.872 309.382 96.24 306.91 96.24ZM325.243 96.096L320.899 83.592H322.867L326.131 93.552L329.467 83.544H331.003L334.363 93.552L337.627 83.592H339.547L335.179 96.096H333.571L330.235 86.304L326.875 96.096H325.243ZM347.441 96.288C344.057 96.288 341.249 93.672 341.249 89.832V89.784C341.249 86.208 343.745 83.328 347.201 83.328C350.873 83.328 352.985 86.256 352.985 89.88C352.985 90.144 352.985 90.264 352.961 90.48H343.121C343.385 93.168 345.281 94.68 347.489 94.68C349.217 94.68 350.369 93.984 351.401 92.928L352.553 93.96C351.305 95.376 349.817 96.288 347.441 96.288ZM343.121 89.112H351.113C350.921 86.88 349.649 84.888 347.153 84.888C344.969 84.888 343.385 86.712 343.121 89.112ZM356.22 96V83.592H358.068V85.752C358.908 84.408 360.18 83.328 362.316 83.328C365.292 83.328 367.068 85.344 367.068 88.296V96H365.22V88.752C365.22 86.448 363.996 85.008 361.788 85.008C359.652 85.008 358.068 86.568 358.068 88.896V96H356.22ZM375.161 96.216C373.145 96.216 371.657 95.232 371.657 92.712V85.224H369.929V83.592H371.657V79.848H373.505V83.592H377.441V85.224H373.505V92.472C373.505 94.008 374.345 94.536 375.593 94.536C376.241 94.536 376.745 94.416 377.393 94.104V95.688C376.745 96.048 376.049 96.216 375.161 96.216ZM392.468 96.264C389.492 96.264 387.716 94.248 387.716 91.296V83.592H389.564V90.84C389.564 93.144 390.788 94.584 392.996 94.584C395.108 94.584 396.716 93.024 396.716 90.696V83.592H398.54V96H396.716V93.84C395.876 95.184 394.604 96.264 392.468 96.264ZM402.697 99.84V83.592H404.545V86.088C405.577 84.624 406.993 83.328 409.297 83.328C412.273 83.328 415.225 85.68 415.225 89.76V89.808C415.225 93.84 412.297 96.264 409.297 96.264C406.993 96.264 405.505 95.04 404.545 93.624V99.84H402.697ZM408.961 94.608C411.361 94.608 413.329 92.832 413.329 89.832V89.784C413.329 86.832 411.337 84.984 408.961 84.984C406.657 84.984 404.473 86.952 404.473 89.76V89.808C404.473 92.688 406.657 94.608 408.961 94.608ZM432.43 96.264C430.126 96.264 428.638 95.04 427.678 93.624V96H425.83V78.48H427.678V86.088C428.71 84.624 430.126 83.328 432.43 83.328C435.406 83.328 438.358 85.68 438.358 89.76V89.808C438.358 93.84 435.43 96.264 432.43 96.264ZM432.094 94.608C434.494 94.608 436.462 92.832 436.462 89.832V89.784C436.462 86.832 434.47 84.984 432.094 84.984C429.79 84.984 427.606 86.952 427.606 89.76V89.808C427.606 92.688 429.79 94.608 432.094 94.608ZM446.462 93.936L450.446 83.592H452.414L447.206 96.408C446.15 98.976 444.926 99.912 443.078 99.912C442.046 99.912 441.278 99.696 440.438 99.288L441.062 97.824C441.662 98.136 442.214 98.28 443.006 98.28C444.134 98.28 444.806 97.704 445.55 95.952L439.91 83.592H441.95L446.462 93.936ZM468.461 96.288C466.613 96.288 465.101 95.64 464.045 94.584C462.701 93.24 461.933 91.512 461.933 88.08V88.032C461.933 82.92 464.501 78.912 468.917 78.912C470.933 78.912 472.421 79.608 473.885 80.832L472.781 82.296C471.533 81.24 470.357 80.64 468.821 80.64C465.557 80.64 463.877 84.048 463.877 87.84V88.08C465.005 86.448 466.469 85.488 468.677 85.488C471.821 85.488 474.485 87.48 474.485 90.648V90.696C474.485 93.936 471.845 96.288 468.461 96.288ZM468.485 94.608C470.957 94.608 472.541 92.904 472.541 90.768V90.72C472.541 88.68 470.861 87.12 468.437 87.12C465.917 87.12 464.237 88.944 464.237 90.792V90.84C464.237 92.976 465.989 94.608 468.485 94.608ZM477.832 96V93.48H480.04V96H477.832ZM484.686 96L492.27 80.928H483.03V79.2H494.43V80.616L486.798 96H484.686ZM500.735 87.6C498.455 87.6 496.943 85.584 496.943 83.352V83.304C496.943 81.024 498.479 79.008 500.783 79.008C503.015 79.008 504.551 81.024 504.551 83.256V83.304C504.551 85.584 503.015 87.6 500.735 87.6ZM500.735 80.352C499.415 80.352 498.551 81.648 498.551 83.256V83.304C498.551 84.96 499.535 86.256 500.783 86.256C502.079 86.256 502.967 84.96 502.967 83.352V83.304C502.967 81.648 501.959 80.352 500.735 80.352ZM505.151 87.24L511.007 79.2H512.711L506.231 88.008L500.399 96H498.671L505.151 87.24ZM510.623 96.192C508.391 96.192 506.855 94.176 506.855 91.944V91.896C506.855 89.616 508.391 87.6 510.671 87.6C512.975 87.6 514.439 89.616 514.439 91.848V91.896C514.439 94.176 512.927 96.192 510.623 96.192ZM510.671 94.848C511.991 94.848 512.855 93.552 512.855 91.944V91.896C512.855 90.24 511.871 88.944 510.623 88.944C509.327 88.944 508.439 90.24 508.439 91.848V91.896C508.439 93.552 509.423 94.848 510.671 94.848ZM529.122 96.216C527.106 96.216 525.618 95.232 525.618 92.712V85.224H523.89V83.592H525.618V79.848H527.466V83.592H531.402V85.224H527.466V92.472C527.466 94.008 528.306 94.536 529.554 94.536C530.202 94.536 530.706 94.416 531.354 94.104V95.688C530.706 96.048 530.01 96.216 529.122 96.216ZM534.673 96V78.48H536.521V85.752C537.361 84.408 538.633 83.328 540.769 83.328C543.745 83.328 545.521 85.344 545.521 88.296V96H543.673V88.752C543.673 86.448 542.449 85.008 540.241 85.008C538.105 85.008 536.521 86.568 536.521 88.896V96H534.673ZM549.51 80.88V78.84H551.622V80.88H549.51ZM549.63 96V83.592H551.478V96H549.63ZM559.871 96.24C558.071 96.24 556.151 95.544 554.735 94.416L555.671 93.096C557.015 94.128 558.503 94.68 559.967 94.68C561.479 94.68 562.535 93.936 562.535 92.712V92.664C562.535 91.44 561.071 90.936 559.439 90.48C557.519 89.904 555.335 89.28 555.335 86.976V86.928C555.335 84.792 557.111 83.376 559.559 83.376C561.095 83.376 562.751 83.904 564.023 84.744L563.183 86.136C562.031 85.392 560.735 84.936 559.511 84.936C558.047 84.936 557.111 85.704 557.111 86.736V86.784C557.111 87.96 558.647 88.416 560.303 88.92C562.223 89.496 564.287 90.24 564.287 92.472V92.52C564.287 94.872 562.343 96.24 559.871 96.24ZM574.916 96V83.592H576.764V85.68C577.604 84.432 578.684 83.328 580.772 83.328C582.788 83.328 584.084 84.384 584.756 85.8C585.668 84.432 586.94 83.328 589.124 83.328C592.004 83.328 593.732 85.224 593.732 88.32V96H591.884V88.752C591.884 86.352 590.684 85.008 588.668 85.008C586.82 85.008 585.236 86.4 585.236 88.848V96H583.412V88.704C583.412 86.376 582.212 85.008 580.22 85.008C578.252 85.008 576.764 86.64 576.764 88.92V96H574.916ZM603.337 96.288C599.617 96.288 596.905 93.36 596.905 89.856V89.808C596.905 86.28 599.617 83.328 603.385 83.328C607.129 83.328 609.841 86.256 609.841 89.76V89.808C609.841 93.336 607.081 96.288 603.337 96.288ZM603.385 94.632C606.073 94.632 607.945 92.448 607.945 89.856V89.808C607.945 87.144 605.953 84.96 603.337 84.96C600.649 84.96 598.801 87.144 598.801 89.76V89.808C598.801 92.472 600.769 94.632 603.385 94.632ZM613.189 96V83.592H615.037V85.752C615.877 84.408 617.149 83.328 619.285 83.328C622.261 83.328 624.037 85.344 624.037 88.296V96H622.189V88.752C622.189 86.448 620.965 85.008 618.757 85.008C616.621 85.008 615.037 86.568 615.037 88.896V96H613.189ZM632.13 96.216C630.114 96.216 628.626 95.232 628.626 92.712V85.224H626.898V83.592H628.626V79.848H630.474V83.592H634.41V85.224H630.474V92.472C630.474 94.008 631.314 94.536 632.562 94.536C633.21 94.536 633.714 94.416 634.362 94.104V95.688C633.714 96.048 633.018 96.216 632.13 96.216ZM637.681 96V78.48H639.529V85.752C640.369 84.408 641.641 83.328 643.777 83.328C646.753 83.328 648.529 85.344 648.529 88.296V96H646.681V88.752C646.681 86.448 645.457 85.008 643.249 85.008C641.113 85.008 639.529 86.568 639.529 88.896V96H637.681Z" fill="#212A33"/>
<g clip-path="url(#clip0_0_1)">
<path d="M25.2591 34.7695L27.7987 34.9045V38.4637H17.2041V35.0803L18.6736 34.9481C19.4723 34.8595 19.9617 34.5909 19.9617 33.5222V21.1458C19.9617 20.1628 19.6973 19.852 18.8494 19.852L17.2941 19.7648V16.072H25.2619L25.2591 34.7695ZM22.1442 6.53625C24.1045 6.53625 25.5263 8.00859 25.5263 9.87469C25.5263 11.7464 24.1003 13.1273 22.0978 13.1273C20.0531 13.1273 18.7172 11.7464 18.7172 9.87469C18.7172 8.00859 20.0531 6.53625 22.1442 6.53625ZM22.5 45C10.0941 45 0 34.9059 0 22.5C0 10.0941 10.0941 0 22.5 0C34.9031 0 45 10.0941 45 22.5C45 34.9059 34.9031 45 22.5 45ZM22.5 4.21875C12.42 4.21875 4.21875 12.42 4.21875 22.5C4.21875 32.58 12.42 40.7812 22.5 40.7812C32.58 40.7812 40.7812 32.58 40.7812 22.5C40.7812 12.42 32.58 4.21875 22.5 4.21875Z" fill="#212A33"/>
</g>
<defs>
<clipPath id="clip0_0_1">
<rect width="45" height="45" fill="white"/>
</clipPath>
</defs>
</svg>
